<?xml version="1.0" encoding="UTF-8"?>
<svg width="24px" height="23px" viewBox="0 0 24 23" version="1.1" xmlns="http://www.w3.org/2000/svg" xmlns:xlink="http://www.w3.org/1999/xlink">
    <title>dianzhi</title>
    <g id="etc21年更新文档" stroke="none" stroke-width="1" fill="none" fill-rule="evenodd">
        <g id="2.2" transform="translate(-226.000000, -628.000000)">
            <g id="dianzhi" transform="translate(226.000000, 628.000000)">
                <path d="M15.8402283,5.1484411 C15.6454877,4.95051963 15.3309745,4.95051963 15.136234,5.1484411 L12.4950071,7.84883019 L9.8537803,5.1484411 C9.65903978,4.95051963 9.34452653,4.95051963 9.14978601,5.1484411 C9.05691624,5.22499672 9.00292473,5.34041218 9.00292473,5.46238048 C9.00292473,5.58434877 9.05691624,5.69976423 9.14978601,5.77631985 L11.7910129,8.38482425 L9.49928674,8.38482425 C9.22353829,8.38482425 9,8.61336968 9,8.89529476 C9,9.17721984 9.22353829,9.40576528 9.49928674,9.40576528 L11.9607703,9.40576528 L11.9607703,10.9371769 L9.49928674,10.9371769 C9.22353829,10.9371769 9,11.1657223 9,11.4476474 C9,11.7295725 9.22353829,11.9581179 9.49928674,11.9581179 L11.9957204,11.9581179 L11.9957204,13.4895295 C11.9957204,13.6249147 12.0483237,13.7547549 12.1419581,13.8504867 C12.2355925,13.9462184 12.3625881,14 12.4950071,14 C12.7707556,14 12.9942939,13.7714546 12.9942939,13.4895295 L12.9942939,11.9581179 L15.4907276,11.9581179 C15.766476,11.9581179 15.9900143,11.7295725 15.9900143,11.4476474 C15.9900143,11.1657223 15.766476,10.9371769 15.4907276,10.9371769 L12.9593438,10.9371769 L12.9593438,9.40576528 L15.5007133,9.40576528 C15.7764617,9.40576528 16,9.17721984 16,8.89529476 C16,8.61336968 15.7764617,8.38482425 15.5007133,8.38482425 L13.1990014,8.38482425 L15.8402283,5.77631985 C15.933098,5.69976423 15.9870895,5.58434877 15.9870895,5.46238048 C15.9870895,5.34041218 15.933098,5.22499672 15.8402283,5.1484411 Z" id="路径" fill="#666666" fill-rule="nonzero"></path>
                <g id="编组-3">
                    <path d="M23.3827319,12.2617466 C22.1591566,11.1441669 20.6245028,12.3671786 20.1215926,12.7889068 C19.6186824,13.2106349 19.0224487,13.7746964 18.3691839,14.4125602 C17.4690636,15.3399999 16.5039119,16.1997736 15.4813387,16.985102 C14.5616203,17.7009718 13.409436,18.0362269 12.2564919,17.9234472 L9.56047843,17.9234472 C9.54478149,17.6504396 9.6757312,17.3901995 9.90266475,17.2434105 C10.4988985,16.7162503 11.1106862,16.0414853 11.1106861,15.2665598 C11.1106861,14.1595233 10.4885292,13.6850791 9.03682966,13.6850791 C8.13988672,13.6850791 6.50672473,14.3703874 5.68755143,14.7973872 L5.34536511,14.97135 C3.24378792,11.7769535 3.37937444,7.57571153 5.68239415,4.52827289 C7.98541385,1.48083425 11.943082,0.265734266 15.5200168,1.50788443 C19.0969516,2.75003459 21.4967214,6.17286077 21.4851532,10.0160441 C21.4851532,10.3071866 21.7172775,10.5432043 22.0036174,10.5432043 C22.2899572,10.5432043 22.5220815,10.3071866 22.5220815,10.0160441 C22.5220815,6.43765621 20.6445262,3.13108943 17.5966724,1.34189547 C14.5488185,-0.447298489 10.7937078,-0.447298489 7.74585395,1.34189547 C4.69800012,3.13108943 2.82044477,6.43765621 2.82044482,10.0160441 C2.77743294,11.9409052 3.29122463,13.8362432 4.29806757,15.4668806 C0.710295856,17.3013982 0,17.8707312 0,18.4506074 L0,21.6135686 C0,22.3726793 0.824357955,23 1.78351659,23 L14.2266555,23 C16.3264352,23 17.2959631,22.6520743 18.1825368,21.9456796 C19.0691104,21.2392849 21.676985,18.8617924 22.9731453,16.5739171 C23.844165,15.0135229 24.5596455,13.342425 23.3827319,12.2617466 Z M22.0710177,16.0783865 C20.8370731,18.2608297 18.1721675,20.5592482 17.529272,21.0864084 C16.7826837,21.6926427 16.0360953,21.9245932 14.2266555,21.9245932 L1.78351659,21.9245932 C1.4465149,21.9245932 1.03692825,21.8138895 1.03692825,21.5977538 L1.03692825,18.5507679 C2.44521719,17.6316469 3.9103251,16.8058067 5.42313473,16.0783865 C5.69273607,15.9413248 5.97270669,15.8306212 6.11269201,15.7568188 C7.01477045,15.2609556 7.99295629,14.9240775 9.00572181,14.760486 C10.0426501,14.760486 10.0426501,14.9344488 10.0426501,15.2876462 C10.0426501,15.6408435 9.42049312,16.2628926 9.18718426,16.4737566 C8.59095053,17.0009168 8.35245702,17.6335091 8.56502732,18.2133853 C8.72983677,18.6019163 9.12662108,18.8336794 9.53973985,18.7827183 L12.2357533,18.7827183 C13.454144,18.7827183 14.408118,18.8828788 16.0516492,17.7283979 C17.1210142,16.9279279 18.1296773,16.0468444 19.0691104,15.0925969 C19.7016367,14.4758194 20.303055,13.911758 20.7437496,13.5638323 C22.0917563,12.5095119 22.4961583,12.8679808 22.6672514,13.0366721 C22.8383446,13.2053634 23.4138398,13.7061655 22.0710177,16.0783865 Z" id="形状" fill="#666666" fill-rule="nonzero"></path>
                    <line x1="5.5" y1="4.5" x2="17.5" y2="15.5" id="路径-2" stroke="#666666"></line>
                </g>
            </g>
        </g>
    </g>
</svg>
