<?xml version="1.0" encoding="UTF-8"?>
<svg width="16px" height="15px" viewBox="0 0 16 15" version="1.1" xmlns="http://www.w3.org/2000/svg" xmlns:xlink="http://www.w3.org/1999/xlink">
    <title>favorites</title>
    <defs>
        <filter id="filter-1">
            <feColorMatrix in="SourceGraphic" type="matrix" values="0 0 0 0 0.980392 0 0 0 0 0.317647 0 0 0 0 0.317647 0 0 0 1.000000 0"></feColorMatrix>
        </filter>
    </defs>
    <g id="注册流程" stroke="none" stroke-width="1" fill="none" fill-rule="evenodd">
        <g id="favorites" transform="translate(-32.000000, -507.000000)" filter="url(#filter-1)">
            <g transform="translate(32.000000, 507.000000)">
                <path d="M7.38814373,1.29469239 L7.53448368,1.44292941 C7.66626463,1.57471036 7.82156056,1.72623419 7.99990823,1.89800826 L8.20274148,1.70128537 C8.362736,1.54598944 8.49921553,1.41045845 8.61215803,1.29469239 C9.41512015,0.46707822 10.5190704,1.60500939e-15 11.6721938,1.60500939e-15 C12.8253171,1.60500939e-15 13.9292674,0.46707822 14.7322295,1.29469239 C16.406602,3.00484471 16.4225948,5.76816375 14.7792815,7.49759571 L7.99990823,14.117901 L1.22053494,7.49805895 C-0.422315125,5.76816375 -0.406763473,3.00484471 1.26758696,1.29469239 C2.07054909,0.46707822 3.17449938,1.60500939e-15 4.3276227,1.60500939e-15 C5.48074602,1.60500939e-15 6.58469631,0.46707822 7.38765843,1.29469239 L7.38814373,1.29469239 Z M13.8550281,6.41570808 C14.8757459,5.22981187 14.8296424,3.41236418 13.7232692,2.28247598 C13.1858832,1.72604917 12.4455108,1.4118004 11.6719511,1.4118004 C10.8983915,1.4118004 10.1580191,1.72604917 9.62063304,2.28247598 L9.28698944,2.61565634 C9.25473072,2.64740682 9.22241411,2.67909841 9.19003978,2.71073098 L7.99990823,3.85705319 L6.91283671,2.81046009 L6.62106125,2.52528029 L6.37918342,2.28245392 C5.84178208,1.72588102 5.10130912,1.41153848 4.32763373,1.41153848 C3.55395834,1.41153848 2.81348538,1.72588102 2.27608403,2.28245392 C1.14101196,3.44198952 1.1221735,5.32579094 2.22759817,6.50837828 L7.99990823,12.1447162 L13.7722183,6.50793709 L13.8550281,6.41570808 Z" id="形状" fill="#000000" fill-rule="nonzero"></path>
            </g>
        </g>
    </g>
</svg>
