<?xml version="1.0" encoding="UTF-8"?>
<svg width="22px" height="22px" viewBox="0 0 22 22" version="1.1" xmlns="http://www.w3.org/2000/svg" xmlns:xlink="http://www.w3.org/1999/xlink">
    <title>基础服务</title>
    <defs>
        <filter id="filter-1">
            <feColorMatrix in="SourceGraphic" type="matrix" values="0 0 0 0 1.000000 0 0 0 0 0.764706 0 0 0 0 0.000000 0 0 0 1.000000 0"></feColorMatrix>
        </filter>
    </defs>
    <g id="注册流程" stroke="none" stroke-width="1" fill="none" fill-rule="evenodd">
        <g id="基础服务" transform="translate(-45.000000, -343.000000)" filter="url(#filter-1)">
            <g transform="translate(45.000000, 343.000000)">
                <path d="M13.1763866,3.79472543e-06 L13.3760955,0.00324586671 C14.4711215,0.0507704009 15.4703474,0.660534677 16.0377935,1.62751159 C16.6052396,2.59448851 16.6655311,3.79023303 16.1983957,4.8126881 L20.1159544,4.8126881 C21.1564841,4.8126881 22,5.68257524 22,6.75563541 L22,9.05673269 C22,10.1297929 21.1564841,10.99968 20.1159544,10.99968 L19.9997716,10.99968 L19.9997716,20.0570527 C19.9997716,21.1301129 19.1562557,22.0000038 18.1157261,22.0000038 L3.88490194,22.0000038 C2.84437231,22.0000038 2.00085638,21.1301129 2.00085638,20.0570527 L2.00022838,10.99968 L1.88404556,10.99968 C0.843515929,10.99968 0,10.1297929 0,9.05673269 L0,6.75563541 C0,5.68257524 0.843515929,4.8126881 1.88404556,4.8126881 L5.48759671,4.8126881 C5.02018163,3.79017276 5.08032841,2.59421237 5.64780767,1.62704871 C6.21528692,0.659885057 7.21469488,0.0500299551 8.30989696,0.00259822772 L8.50960579,3.79472543e-06 C9.3823268,-0.00102554341 10.2203943,0.352126397 10.8426822,0.98313895 C11.4650491,0.351850013 12.3034218,-0.00133542951 13.1763866,3.79472543e-06 Z M9.99988583,10.99968 L3.88427394,10.99968 L3.88427394,20.0570527 L9.99988583,20.0564051 L9.99988583,10.99968 Z M18.1157261,10.99968 L12.0001142,10.99968 L12.0001142,20.0564051 L18.1157261,20.0564051 L18.1157261,11.0003276 L18.1157261,10.99968 Z M9.99988583,6.75498777 L1.88404556,6.75498777 L1.88404556,9.05673269 L1.99960034,9.05673269 L1.99960034,8.9977966 L9.99925779,8.99714896 L9.99925779,6.75498777 L9.99988583,6.75498777 Z M20.1159544,6.75498777 L12.0001142,6.75498777 L12.0001142,8.99714896 L19.9997716,8.9977966 L19.9997716,9.05673269 L20.1159544,9.05673269 L20.1159544,6.75563541 L20.1159544,6.75498777 Z M8.50960579,1.94295492 L8.44806029,1.94295492 C7.68153679,1.94295492 7.06014672,2.58377179 7.06014672,3.37425945 C7.06014672,4.16474711 7.68153679,4.80556398 8.44806029,4.80556398 L9.842254,4.80556398 L9.842254,3.43772907 C9.842254,3.26934029 9.85481432,3.10418977 9.87679483,2.94292515 C9.67333285,2.34420844 9.12541978,1.94327738 8.51023379,1.94295492 L8.50960579,1.94295492 Z M13.2373041,1.94295492 L13.1757586,1.94295492 C12.5600685,1.94321377 12.0116605,2.34439808 11.8079415,2.94357279 C11.8311781,3.10418977 11.8424824,3.26934029 11.8424824,3.43772907 L11.8424824,4.80556404 L13.2366761,4.80556404 C13.9648557,4.8057866 14.5693897,4.2256115 14.6214496,3.47658802 L14.6252177,3.37425945 C14.6252177,2.58412753 14.0034826,1.94295492 13.2373041,1.94295492 L13.2373041,1.94295492 Z" id="形状" fill="#000000" fill-rule="nonzero"></path>
            </g>
        </g>
    </g>
</svg>
