<?xml version="1.0" encoding="UTF-8"?>
<svg width="22px" height="18px" viewBox="0 0 22 18" version="1.1" xmlns="http://www.w3.org/2000/svg" xmlns:xlink="http://www.w3.org/1999/xlink">
    <title>车主服务</title>
    <defs>
        <filter id="filter-1">
            <feColorMatrix in="SourceGraphic" type="matrix" values="0 0 0 0 0.392157 0 0 0 0 0.403922 0 0 0 0 0.941176 0 0 0 1.000000 0"></feColorMatrix>
        </filter>
    </defs>
    <g id="注册流程" stroke="none" stroke-width="1" fill="none" fill-rule="evenodd">
        <g id="车主服务" transform="translate(-134.000000, -345.000000)" filter="url(#filter-1)">
            <g transform="translate(134.000000, 345.000000)">
                <path d="M15.8658586,0 C16.5700244,0 17.1996843,0.43875 17.4467305,1.09968751 L19.4970463,6.58349999 L21.2762273,5.551875 L22,6.81187501 L20.6684152,7.583625 C21.1162391,7.9013602 21.3822293,8.41790501 21.3815441,8.9685 L21.3815441,14.304375 C21.3815441,15.2407048 20.6256085,15.99975 19.6931147,15.99975 L18.9671012,15.99975 L18.9671012,18 L17.5189957,18 L17.5189957,15.99975 L4.48044408,15.99975 L4.48044408,18 L3.03345895,18 L3.03345895,15.99975 L2.30688532,15.99975 C1.85898895,15.9998992 1.42938639,15.8213457 1.11262329,15.5033851 C0.79586018,15.1854244 0.617895693,14.7541139 0.61789571,14.304375 L0.61789571,8.9685 C0.617467442,8.41769904 0.883896616,7.90111319 1.33214505,7.583625 L3.73165205e-16,6.81187501 L0.724332858,5.551875 L2.50295377,6.5829375 L4.55326952,1.09968751 C4.80051879,0.438152989 5.43044987,0 6.13414137,0 L15.8658586,0 L15.8658586,0 Z M19.6925545,9.04275 L2.30688532,9.04275 L2.30688532,14.304375 L19.6931147,14.304375 L19.6931147,9.04275 L19.6925545,9.04275 Z M5.0848951,10.3635 C5.47894539,10.3545149 5.84695345,10.5604648 6.0466071,10.9017071 C6.24626075,11.2429493 6.24626075,11.6659881 6.0466071,12.0072304 C5.84695345,12.3484727 5.47894539,12.5544226 5.0848951,12.5454375 C4.49444931,12.5319741 4.02278855,12.0474963 4.02278855,11.4544687 C4.02278855,10.8614412 4.49444931,10.3769633 5.0848951,10.3635 L5.0848951,10.3635 Z M17.0361071,10.3635 C17.4301574,10.3545149 17.7981655,10.5604648 17.9978191,10.9017071 C18.1974728,11.2429493 18.1974728,11.6659881 17.9978191,12.0072304 C17.7981655,12.3484727 17.4301574,12.5544226 17.0361071,12.5454375 C16.4456614,12.5319741 15.9740006,12.0474963 15.9740006,11.4544687 C15.9740006,10.8614412 16.4456614,10.3769633 17.0361071,10.3635 L17.0361071,10.3635 Z M15.8658586,1.69537501 L6.13414137,1.69537501 L4.04909352,7.27256251 L17.9503463,7.27256251 L15.8664188,1.69537501 L15.8658586,1.69537501 Z M13.7763292,2.90925 L13.7763292,4.54556251 L8.34411285,4.54556251 L8.34411285,2.90868751 L13.7763292,2.90868751 L13.7763292,2.90925 Z" id="形状" fill="#000000" fill-rule="nonzero"></path>
            </g>
        </g>
    </g>
</svg>
