<?xml version="1.0" encoding="UTF-8"?>
<svg width="22px" height="21px" viewBox="0 0 22 21" version="1.1" xmlns="http://www.w3.org/2000/svg" xmlns:xlink="http://www.w3.org/1999/xlink">
    <title>特色服务</title>
    <defs>
        <filter id="filter-1">
            <feColorMatrix in="SourceGraphic" type="matrix" values="0 0 0 0 0.245536 0 0 0 0 0.688377 0 0 0 0 0.392755 0 0 0 1.000000 0"></feColorMatrix>
        </filter>
    </defs>
    <g id="注册流程" stroke="none" stroke-width="1" fill="none" fill-rule="evenodd">
        <g id="特色服务" transform="translate(-45.000000, -405.000000)" filter="url(#filter-1)">
            <g transform="translate(45.000000, 405.000000)">
                <path d="M3.65770157,0.678995319 C4.02158992,0.315183445 4.51512845,0.110796062 5.02974429,0.110796062 C5.54436014,0.110796062 6.03789866,0.315183445 6.40178702,0.678995319 L10.8773904,5.15457254 L15.617798,0.548678663 C16.3786172,-0.19048103 17.5921503,-0.1817231 18.3422175,0.568340487 L21.4316004,3.65707403 C22.1581638,4.38340384 22.1924558,5.55008731 21.5098068,6.31782022 L21.4114771,6.4197873 L16.7113161,10.987272 L20.3252766,14.5995585 C20.689165,14.9633704 20.8935953,15.4568052 20.8935953,15.9713128 C20.8935953,16.4858205 20.689165,16.9792553 20.3252766,17.3430672 L17.2358937,20.4318007 C16.8720054,20.7956126 16.3784668,21 15.863851,21 C15.3492351,21 14.8556966,20.7956126 14.4918083,20.4318007 L10.7941531,16.7367518 L8.29977944,19.161099 L3.70435101,20.7313005 C3.03191538,20.9611298 2.28761024,20.8050562 1.76420435,20.3244706 C1.24079845,19.8438849 1.02203756,19.1156817 1.19397018,18.4262959 L2.46585378,13.3283995 L4.9606848,10.9045095 L0.568318705,6.51123759 C0.204430349,6.14742572 0,5.65399093 0,5.13948324 C0,4.62497556 0.204430349,4.13154077 0.568318705,3.76772889 L3.65770157,0.678995319 Z M12.1849471,15.3846592 L13.2148939,16.4143895 L15.1778296,14.4518663 L16.5498724,15.8236206 L14.5878513,17.7852293 L15.863851,19.0609609 L18.9536912,15.9717701 L15.3196074,12.3393646 L12.1849471,15.3846592 Z M14.6024864,4.23961239 L17.6580255,7.36218254 L20.0595577,5.02882838 L16.9701748,1.94009484 L14.6029437,4.23915514 L14.6024864,4.23961239 Z M4.21475093,14.3343527 L3.07687014,18.8958931 L7.25977106,17.4665251 L16.2663169,8.71427507 L13.2107777,5.59170492 L4.21475093,14.3343527 Z M5.02974429,2.05074967 L1.94036143,5.13948324 L3.21498913,6.41475752 L5.17701021,4.45314881 L6.54905293,5.82490317 L4.58703185,7.78651187 L6.35193613,9.55195974 L9.48613907,6.50712232 L5.02974429,2.05074967 Z" id="形状" fill="#000000" fill-rule="nonzero"></path>
            </g>
        </g>
    </g>
</svg>
