<?xml version="1.0" encoding="UTF-8"?>
<svg width="24px" height="20px" viewBox="0 0 24 20" version="1.1" xmlns="http://www.w3.org/2000/svg" xmlns:xlink="http://www.w3.org/1999/xlink">
    <title>领券中心</title>
    <defs>
        <filter id="filter-1">
            <feColorMatrix in="SourceGraphic" type="matrix" values="0 0 0 0 0.784314 0 0 0 0 0.490196 0 0 0 0 0.184314 0 0 0 1.000000 0"></feColorMatrix>
        </filter>
    </defs>
    <g id="注册流程" stroke="none" stroke-width="1" fill="none" fill-rule="evenodd">
        <g id="领券中心" transform="translate(-303.000000, -344.000000)" filter="url(#filter-1)">
            <g transform="translate(303.000000, 344.000000)">
                <path d="M0,13.1235714 C1.65369032,13.1235714 2.99453938,11.755 2.99453935,10.0671428 C2.99453935,8.39428569 1.67694204,7.03571427 0.0436850229,7.01142856 L0.0436850229,2.14285714 C0.0436850229,0.959389821 0.990062159,0 2.15747752,0 L21.8862075,0 C23.0536229,0 24,0.959389821 24,2.14285714 L23.9992954,7.01285715 L23.898538,7.015 C22.312489,7.09214286 21.0491457,8.42928572 21.0491457,10.0671428 C21.0491457,11.74 22.3660384,13.0992857 23.9992954,13.1235714 L23.9992954,17.8571429 C23.9992954,19.0406102 23.0529182,20 21.8855029,20 L2.15747752,20 C0.990062159,20 0.0436850229,19.0406102 0.0436850229,17.8571429 L0.0436850229,13.1228571 L0,13.1235714 Z M2.15747752,14.7807143 L2.15747752,17.8571429 L21.8862075,17.8571429 L21.8862075,14.7814286 C20.0836021,13.923539 18.9333446,12.0858873 18.9353532,10.0671428 C18.9336419,8.05150535 20.0845332,6.21757702 21.8862075,5.36500001 L21.8862075,2.14285714 L2.15747752,2.14285714 L2.15747752,5.35357144 C3.95980822,6.21166837 5.10976399,8.0492768 5.10762726,10.0678572 C5.10932134,12.0180373 4.03492676,13.805375 2.32446713,14.6978571 L2.15747752,14.7814286 L2.15747752,14.7807143 Z M7.79425752,12.8571428 L10.0405144,12.8571428 L10.0405144,15.7142857 L7.79425752,15.7142857 L7.79425752,12.8571428 Z M7.79425752,8.57142856 L10.0405144,8.57142856 L10.0405144,11.4285714 L7.79425752,11.4285714 L7.79425752,8.57142856 L7.79425752,8.57142856 Z M7.79425752,4.28571428 L10.0405144,4.28571428 L10.0405144,7.14285716 L7.79425752,7.14285716 L7.79425752,4.28571428 Z" id="形状" fill="#000000" fill-rule="nonzero"></path>
            </g>
        </g>
    </g>
</svg>
