<?xml version="1.0" standalone="no"?><!DOCTYPE svg PUBLIC "-//W3C//DTD SVG 1.1//EN" "http://www.w3.org/Graphics/SVG/1.1/DTD/svg11.dtd"><svg t="1619491204517" class="icon" viewBox="0 0 1024 1024" version="1.1" xmlns="http://www.w3.org/2000/svg" p-id="744" xmlns:xlink="http://www.w3.org/1999/xlink" width="32" height="32"><defs><style type="text/css"></style></defs><path d="M726.528 378.135273a59.717818 59.717818 0 0 0-22.202182-21.643637V230.4h-58.693818v126.091636a60.043636 60.043636 0 0 0-22.202182 21.643637H437.899636V230.4H378.135273v147.735273H230.4v59.764363h147.735273v186.274909c-8.750545 5.12-16.058182 12.427636-21.178182 21.178182H230.4v58.88h125.998545c5.12 9.169455 12.706909 16.802909 21.736728 22.109091v67.258182h59.764363v-67.211636c9.029818-5.352727 16.570182-13.032727 21.736728-22.155637h156.578909a88.110545 88.110545 0 0 0 88.110545-88.064V459.543273c9.169455-5.12 16.849455-12.567273 22.202182-21.597091h67.072V378.135273h-67.072z m-317.998545 326.190545a29.602909 29.602909 0 1 1 0-59.205818 29.602909 29.602909 0 0 1 0 59.205818z m50.548363-58.973091a59.485091 59.485091 0 0 0-21.224727-21.178182V437.899636h185.576727c5.306182 9.029818 13.032727 16.523636 22.155637 21.643637v185.856H459.124364zM674.909091 438.132364a29.556364 29.556364 0 1 1 0-59.112728 29.556364 29.556364 0 0 1 0 59.112728z" fill="#2FB565" p-id="745"></path></svg>
