<?xml version="1.0" encoding="UTF-8"?>
<svg width="36px" height="36px" viewBox="0 0 36 36" version="1.1" xmlns="http://www.w3.org/2000/svg" xmlns:xlink="http://www.w3.org/1999/xlink">
    <title>国际驾照</title>
    <defs>
        <linearGradient x1="50%" y1="0%" x2="50%" y2="335.515048%" id="linearGradient-1">
            <stop stop-color="#9DE2FF" offset="0%"></stop>
            <stop stop-color="#61CAF6" offset="100%"></stop>
        </linearGradient>
        <path d="M15.7383939,1.02724966 C15.7383939,1.02724966 16.646644,0.500444814 16.9627005,0.816501331 C17.278757,1.13255785 18.3850538,0.763847239 21.2297274,2.44956998 C21.2297274,2.44956998 20.6032229,3.11770949 20.4662101,3.07762508 C20.546181,3.22288571 20.792032,3.66569475 20.966325,3.93942345 C21.1770403,4.27032604 21.2297274,4.29335396 21.2297274,4.29335396 L21.0189791,4.60941048 L21.2297274,4.66206457 C21.0189791,4.60941048 20.9136709,5.24152351 20.6086665,5.34689768 C20.303695,5.45227185 20.7029226,6.03173079 20.5975814,6.13707197 C20.4922402,6.24244613 20.6502685,7.19068167 20.5975814,7.74919114 C20.5449273,8.30773361 20.334212,7.8227947 20.0708095,7.74919114 C19.8074071,7.67562058 19.3859764,7.50670519 19.3499499,7.34867694 C19.3138575,7.19064868 19.2279482,6.7165639 19.3332893,6.45316148 C19.4386305,6.18975905 19.0172328,5.92635662 18.8064845,5.73319265 C18.5957362,5.53999568 17.7529078,5.76832837 17.5948465,5.73319265 C17.4368183,5.69802394 17.3314771,5.24152351 17.3314771,4.82009283 C17.3314771,4.39866215 18.0689973,4.87277991 18.4840607,4.82009283 C18.899157,4.76743874 18.9645457,3.71716116 18.9645457,3.71716116 L18.940693,2.82435098 C18.770392,2.75625697 18.7425804,2.66797229 19.0172328,2.55487816 C19.0172328,2.55487816 18.1216514,2.34416282 17.910969,2.81828059 C17.7002207,3.29243134 17.5949125,3.24637551 17.5421924,3.71716116 C17.4895383,4.1879468 16.6641954,3.77314737 16.4710644,3.71716116 C16.2779004,3.66114195 15.7510955,3.02896294 15.7510955,3.02896294 C15.9091238,2.66021934 16.014465,2.3968499 16.014465,2.3968499 L15.7383939,1.76473687 L15.7383939,1.02724966 Z" id="path-2"></path>
        <filter x="-127.5%" y="-68.5%" width="354.9%" height="291.8%" filterUnits="objectBoundingBox" id="filter-3">
            <feOffset dx="0" dy="2" in="SourceAlpha" result="shadowOffsetOuter1"></feOffset>
            <feGaussianBlur stdDeviation="2" in="shadowOffsetOuter1" result="shadowBlurOuter1"></feGaussianBlur>
            <feColorMatrix values="0 0 0 0 0.526045609   0 0 0 0 0.527316658   0 0 0 0 0.535920516  0 0 0 0.5 0" type="matrix" in="shadowBlurOuter1"></feColorMatrix>
        </filter>
        <filter x="-100.2%" y="-48.0%" width="300.3%" height="250.7%" filterUnits="objectBoundingBox" id="filter-4">
            <feGaussianBlur stdDeviation="1" in="SourceAlpha" result="shadowBlurInner1"></feGaussianBlur>
            <feOffset dx="0" dy="1" in="shadowBlurInner1" result="shadowOffsetInner1"></feOffset>
            <feComposite in="shadowOffsetInner1" in2="SourceAlpha" operator="arithmetic" k2="-1" k3="1" result="shadowInnerInner1"></feComposite>
            <feColorMatrix values="0 0 0 0 1   0 0 0 0 1   0 0 0 0 1  0 0 0 0.539554196 0" type="matrix" in="shadowInnerInner1"></feColorMatrix>
        </filter>
        <linearGradient x1="50%" y1="0%" x2="50%" y2="335.515048%" id="linearGradient-5">
            <stop stop-color="#9DE2FF" offset="0%"></stop>
            <stop stop-color="#61CAF6" offset="100%"></stop>
        </linearGradient>
        <path d="M7.42779004,5.92642261 C7.51713044,5.8071921 8.11259016,4.76743874 8.85014334,5.08356124 C9.58766353,5.39961776 10.0617483,4.71481764 10.0617483,4.71481764 C10.0617483,4.71481764 11.1446213,3.60855384 11.2089873,3.7665821 L11.2733533,3.92461036 C11.2089873,3.7665821 12.1689347,3.50317968 12.2742429,4.02998453 C12.3796171,4.55675639 13.0117961,4.82180838 13.0117961,4.82180838 C13.0117961,4.82180838 12.6430195,5.45233783 12.7483937,5.92642261 C12.8537348,6.40054037 13.2225114,6.50588155 13.0117961,6.92734523 C12.8010478,7.34877591 12.3796171,7.50680417 12.2742429,7.71751951 C12.1689017,7.92826784 11.3026166,7.03271939 11.2089543,6.71659689 C11.115292,6.40054037 10.6524573,6.08448386 10.2517121,6.18982503 C9.85099998,6.2951992 8.79739028,6.55856863 8.58670792,6.45322746 C8.37599258,6.34785329 7.18094924,6.25574162 7.42779004,5.92642261 L7.42779004,5.92642261 Z" id="path-6"></path>
        <filter x="-123.2%" y="-124.0%" width="346.4%" height="447.2%" filterUnits="objectBoundingBox" id="filter-7">
            <feOffset dx="0" dy="2" in="SourceAlpha" result="shadowOffsetOuter1"></feOffset>
            <feGaussianBlur stdDeviation="2" in="shadowOffsetOuter1" result="shadowBlurOuter1"></feGaussianBlur>
            <feColorMatrix values="0 0 0 0 0.526045609   0 0 0 0 0.527316658   0 0 0 0 0.535920516  0 0 0 0.5 0" type="matrix" in="shadowBlurOuter1"></feColorMatrix>
        </filter>
        <filter x="-96.8%" y="-86.8%" width="293.6%" height="372.8%" filterUnits="objectBoundingBox" id="filter-8">
            <feGaussianBlur stdDeviation="1" in="SourceAlpha" result="shadowBlurInner1"></feGaussianBlur>
            <feOffset dx="0" dy="1" in="shadowBlurInner1" result="shadowOffsetInner1"></feOffset>
            <feComposite in="shadowOffsetInner1" in2="SourceAlpha" operator="arithmetic" k2="-1" k3="1" result="shadowInnerInner1"></feComposite>
            <feColorMatrix values="0 0 0 0 1   0 0 0 0 1   0 0 0 0 1  0 0 0 0.539554196 0" type="matrix" in="shadowInnerInner1"></feColorMatrix>
        </filter>
        <linearGradient x1="50%" y1="0%" x2="50%" y2="335.515048%" id="linearGradient-9">
            <stop stop-color="#9DE2FF" offset="0%"></stop>
            <stop stop-color="#61CAF6" offset="100%"></stop>
        </linearGradient>
        <path d="M21.5458499,21.4141487 C21.1244192,22.5204125 20.1234966,24.4168836 19.5967248,24.9436554 C19.0699199,25.4704603 18.4377409,26.4713829 17.9636561,26.8401265 C17.4895383,27.2088701 17.4895383,27.8937032 16.9100794,27.8410491 C16.3306205,27.788362 15.6457544,26.1552934 15.8038156,25.7338627 C15.9618439,25.312432 12.9064549,24.5748788 12.9064549,24.5748788 C12.9064549,24.5748788 11.5894428,24.4168506 11.3260734,21.8882665 C11.2791597,21.4382653 11.2490717,21.1189097 11.2310914,20.8971093 C10.835262,20.7221895 9.28262611,20.0794862 8.32333849,20.3078849 C7.2170747,20.5712873 6.95367227,19.9564288 6.00543674,19.8160838 L4.37236809,18.3060727 C4.37236809,18.3060727 1.68575573,15.1979636 2.00181225,14.6711918 C2.31786876,14.1443869 2.31786876,12.7220666 2.37055585,12.4060101 C2.42324293,12.0899206 1.9501149,10.0880424 1.97594708,9.82467293 C2.00181225,9.56127051 1.58038156,8.56034789 1.58038156,8.56034789 C1.58038156,8.56034789 2.58130418,6.45319447 2.73933244,6.45319447 C2.8973607,6.45319447 3.47685263,8.24429137 4.05634457,8.29694546 C4.63577052,8.34963255 6.21615208,8.24429137 6.45322746,7.98088894 C6.69030284,7.71748652 6.90098519,7.40143 7.16438761,7.40143 C7.42779004,7.40143 7.42779004,7.24340174 7.90190781,7.45411708 C8.37602557,7.66483243 8.90283042,7.98088894 9.11351278,8.29694546 C9.32426111,8.61300198 8.95548452,9.245181 10.0617483,9.245181 C11.1680121,9.245181 11.1680121,8.98177857 11.3260734,9.71929876 C11.4841016,10.4568519 11.6713931,12.0898876 11.2090203,12.1952618 C10.7466144,12.3006029 9.37694819,13.9043423 9.48232236,14.4194683 C9.58769653,14.9345942 9.58769653,15.7247685 9.37694819,16.1988863 C9.16623285,16.672971 9.00820459,16.8309993 8.21799732,16.7783452 C7.42782303,16.7256581 6.75978249,16.3041944 6.54065437,16.9363735 C6.32152625,17.5685195 5.90233897,18.9926213 6.63764875,18.8488453 C6.63764875,18.8488453 7.79656663,18.4961025 8.21799732,18.8488453 C8.639428,19.2015881 11.3261063,20.360506 11.3261063,20.360506 C11.3261063,20.360506 13.7493163,17.7265477 17.5422584,19.4123035 L18.1744374,19.8337342 L19.2280142,19.6046757 C19.2280142,19.6046757 20.5976474,19.2015551 21.0717981,19.3069293 L21.5459159,19.4123035 L21.5459159,19.2015551 C21.5458499,19.2016211 21.9672806,20.3078849 21.5458499,21.4141487 L21.5458499,21.4141487 Z" id="path-10"></path>
        <filter x="-34.7%" y="-23.4%" width="169.5%" height="165.4%" filterUnits="objectBoundingBox" id="filter-11">
            <feOffset dx="0" dy="2" in="SourceAlpha" result="shadowOffsetOuter1"></feOffset>
            <feGaussianBlur stdDeviation="2" in="shadowOffsetOuter1" result="shadowBlurOuter1"></feGaussianBlur>
            <feColorMatrix values="0 0 0 0 0.526045609   0 0 0 0 0.527316658   0 0 0 0 0.535920516  0 0 0 0.5 0" type="matrix" in="shadowBlurOuter1"></feColorMatrix>
        </filter>
        <filter x="-27.3%" y="-16.4%" width="154.6%" height="151.4%" filterUnits="objectBoundingBox" id="filter-12">
            <feGaussianBlur stdDeviation="1" in="SourceAlpha" result="shadowBlurInner1"></feGaussianBlur>
            <feOffset dx="0" dy="1" in="shadowBlurInner1" result="shadowOffsetInner1"></feOffset>
            <feComposite in="shadowOffsetInner1" in2="SourceAlpha" operator="arithmetic" k2="-1" k3="1" result="shadowInnerInner1"></feComposite>
            <feColorMatrix values="0 0 0 0 1   0 0 0 0 1   0 0 0 0 1  0 0 0 0.539554196 0" type="matrix" in="shadowInnerInner1"></feColorMatrix>
        </filter>
        <linearGradient x1="50%" y1="0%" x2="50%" y2="335.515048%" id="linearGradient-13">
            <stop stop-color="#9DE2FF" offset="0%"></stop>
            <stop stop-color="#61CAF6" offset="100%"></stop>
        </linearGradient>
        <path d="M27.7093479,15.408712 C27.7093479,15.408712 27.3932914,14.9345942 27.3932914,14.4358979 C27.3932914,13.9372017 27.0245148,13.9863587 27.0245148,13.3542456 C27.0245148,12.7220666 26.550397,12.932815 26.2343405,12.5113843 C25.918284,12.0899536 25.7601898,12.6694125 25.4968203,12.7220996 C25.2334179,12.7747867 25.286072,13.1962504 25.0226696,13.6966622 C24.7592671,14.19714 24.074467,14.5131965 23.8637187,14.4195343 C23.6530033,14.325839 22.8627961,13.6176811 22.810142,13.4595868 C22.7574549,13.3015586 21.7038782,12.4060101 21.7331085,12.1952948 C21.7623717,11.9845464 21.4404758,10.8782826 21.2297604,10.3515108 C21.0190121,9.82470592 21.2297604,7.74925713 21.2297604,7.74925713 C20.9137039,7.57031239 24.1271211,6.24247912 23.7056904,6.08445087 C23.2842597,5.92642261 23.0735444,4.18801279 23.0735444,4.18801279 L24.6070783,4.97818707 C26.1406453,5.76839435 28.0780915,12.0372665 28.0780915,12.0372665 L28.0780915,13.8283634 L27.7093479,15.408712 Z" id="path-14"></path>
        <filter x="-100.8%" y="-44.6%" width="301.7%" height="224.8%" filterUnits="objectBoundingBox" id="filter-15">
            <feOffset dx="0" dy="2" in="SourceAlpha" result="shadowOffsetOuter1"></feOffset>
            <feGaussianBlur stdDeviation="2" in="shadowOffsetOuter1" result="shadowBlurOuter1"></feGaussianBlur>
            <feColorMatrix values="0 0 0 0 0.526045609   0 0 0 0 0.527316658   0 0 0 0 0.535920516  0 0 0 0.5 0" type="matrix" in="shadowBlurOuter1"></feColorMatrix>
        </filter>
        <filter x="-79.2%" y="-31.2%" width="258.5%" height="198.0%" filterUnits="objectBoundingBox" id="filter-16">
            <feGaussianBlur stdDeviation="1" in="SourceAlpha" result="shadowBlurInner1"></feGaussianBlur>
            <feOffset dx="0" dy="1" in="shadowBlurInner1" result="shadowOffsetInner1"></feOffset>
            <feComposite in="shadowOffsetInner1" in2="SourceAlpha" operator="arithmetic" k2="-1" k3="1" result="shadowInnerInner1"></feComposite>
            <feColorMatrix values="0 0 0 0 1   0 0 0 0 1   0 0 0 0 1  0 0 0 0.539554196 0" type="matrix" in="shadowInnerInner1"></feColorMatrix>
        </filter>
    </defs>
    <g id="注册流程" stroke="none" stroke-width="1" fill="none" fill-rule="evenodd" opacity="0.41859654">
        <g id="2.2.2" transform="translate(-302.000000, -146.000000)" fill-rule="nonzero">
            <g id="国际驾照" transform="translate(305.000000, 148.000000)">
                <path d="M14.5,0 C6.49189324,0 0,6.49186025 0,14.5 C0,22.5081397 6.49189324,29 14.5,29 C22.5081068,29 29,22.5081068 29,14.5 C29,6.49189324 22.5081068,0 14.5,0 Z" id="路径" fill="#15B8FF"></path>
                <g id="路径">
                    <use fill="black" fill-opacity="1" filter="url(#filter-3)" xlink:href="#path-2"></use>
                    <use fill="url(#linearGradient-1)" xlink:href="#path-2"></use>
                    <use fill="black" fill-opacity="1" filter="url(#filter-4)" xlink:href="#path-2"></use>
                </g>
                <g id="路径">
                    <use fill="black" fill-opacity="1" filter="url(#filter-7)" xlink:href="#path-6"></use>
                    <use fill="url(#linearGradient-5)" xlink:href="#path-6"></use>
                    <use fill="black" fill-opacity="1" filter="url(#filter-8)" xlink:href="#path-6"></use>
                </g>
                <g id="路径">
                    <use fill="black" fill-opacity="1" filter="url(#filter-11)" xlink:href="#path-10"></use>
                    <use fill="url(#linearGradient-9)" xlink:href="#path-10"></use>
                    <use fill="black" fill-opacity="1" filter="url(#filter-12)" xlink:href="#path-10"></use>
                </g>
                <g id="路径">
                    <use fill="black" fill-opacity="1" filter="url(#filter-15)" xlink:href="#path-14"></use>
                    <use fill="url(#linearGradient-13)" xlink:href="#path-14"></use>
                    <use fill="black" fill-opacity="1" filter="url(#filter-16)" xlink:href="#path-14"></use>
                </g>
            </g>
        </g>
    </g>
</svg>
