<?xml version="1.0" encoding="UTF-8"?>
<svg width="20px" height="20px" viewBox="0 0 20 20" version="1.1" xmlns="http://www.w3.org/2000/svg" xmlns:xlink="http://www.w3.org/1999/xlink">
    <title>生活服务</title>
    <defs>
        <filter id="filter-1">
            <feColorMatrix in="SourceGraphic" type="matrix" values="0 0 0 0 0.223529 0 0 0 0 0.650980 0 0 0 0 0.972549 0 0 0 1.000000 0"></feColorMatrix>
        </filter>
    </defs>
    <g id="注册流程" stroke="none" stroke-width="1" fill="none" fill-rule="evenodd">
        <g id="生活服务" transform="translate(-220.000000, -344.000000)" filter="url(#filter-1)">
            <g transform="translate(220.000000, 344.000000)">
                <path d="M9.37500001,10.625 L9.37500001,18.125 C9.37500001,19.1605339 8.53553392,20 7.5,20 L1.875,20 C0.839466095,20 8.8817842e-16,19.1605339 8.8817842e-16,18.125 L8.8817842e-16,12.5 C8.8817842e-16,11.4644661 0.839466095,10.625 1.875,10.625 L9.37500001,10.625 Z M18.125,10.625 C19.1605339,10.625 20,11.4644661 20,12.5 L20,18.125 C20,19.1605339 19.1605339,20 18.125,20 L12.5,20 C11.4644661,20 10.625,19.1605339 10.625,18.125 L10.625,10.625 L18.125,10.625 Z M7.50000001,12.5 L1.875,12.5 L1.875,18.125 L7.50000001,18.125 L7.50000001,12.5 Z M18.125,12.5 L12.5,12.5 L12.5,18.125 L18.125,18.125 L18.125,12.5 Z M7.5,0 C8.53553392,0 9.37500001,0.839466095 9.37500001,1.875 L9.37500001,9.37500001 L1.875,9.37500001 C0.839466095,9.37500001 0,8.53553392 0,7.5 L0,1.875 C0,0.839466095 0.839466095,0 1.875,0 L7.5,0 Z M15.3125,8.8817842e-16 C17.9013348,8.8817842e-16 20,2.09866524 20,4.68750001 C20,7.27633478 17.9013348,9.37500001 15.3125,9.37500001 C12.7236652,9.37500001 10.625,7.27633478 10.625,4.68750001 C10.625,2.09866524 12.7236652,8.8817842e-16 15.3125,8.8817842e-16 Z M7.50000001,1.875 L1.875,1.875 L1.875,7.50000001 L7.50000001,7.50000001 L7.50000001,1.875 Z M15.3125,1.875 C13.7591991,1.875 12.5,3.13419915 12.5,4.68750001 C12.5,6.24080087 13.7591991,7.50000001 15.3125,7.50000001 C16.8658009,7.50000001 18.125,6.24080087 18.125,4.68750001 C18.125,3.13419915 16.8658009,1.875 15.3125,1.875 Z" id="形状" fill="#000000" fill-rule="nonzero"></path>
            </g>
        </g>
    </g>
</svg>
