<?xml version="1.0" encoding="UTF-8"?>
<svg width="22px" height="23px" viewBox="0 0 22 23" version="1.1" xmlns="http://www.w3.org/2000/svg" xmlns:xlink="http://www.w3.org/1999/xlink">
    <title>加购记录</title>
    <defs>
        <filter id="filter-1">
            <feColorMatrix in="SourceGraphic" type="matrix" values="0 0 0 0 0.984771 0 0 0 0 0.659556 0 0 0 0 0.123678 0 0 0 1.000000 0"></feColorMatrix>
        </filter>
    </defs>
    <g id="注册流程" stroke="none" stroke-width="1" fill="none" fill-rule="evenodd">
        <g id="加购记录" transform="translate(-135.000000, -404.000000)" filter="url(#filter-1)">
            <g transform="translate(135.000000, 404.000000)">
                <path d="M20.5024954,10.5802878 L22,12.0877097 L11.29858,22.7133335 L10.8119265,22.2231381 L11.3014135,22.7175838 L9.80674244,22.7175838 L9.80674244,21.2108703 L9.80178383,21.2059117 L20.5024954,10.5802878 L20.5024954,10.5802878 Z M17.7093731,9.43744979e-16 C18.8830471,9.43744979e-16 19.8344979,0.951450767 19.8344979,2.12512477 L19.8344979,8.50049907 L17.7093731,10.6256238 L17.7093731,2.12512477 L2.12512477,2.12512477 L2.12512477,20.5428727 L7.79212416,20.5428727 L5.66699939,22.6679975 L2.12512477,22.6679975 C0.951450767,22.6679975 1.88748996e-15,21.7165467 1.88748996e-15,20.5428727 L1.88748996e-15,2.12512477 C1.88748996e-15,0.951450767 0.951450767,9.43744979e-16 2.12512477,9.43744979e-16 L17.7093731,9.43744979e-16 Z M10.6256238,8.50049907 L10.6256238,10.6256238 L4.95862448,10.6256238 L4.95862448,8.50049907 L10.6256238,8.50049907 Z M14.8758734,4.25024954 L14.8758734,6.37537431 L4.95862448,6.37537431 L4.95862448,4.25024954 L14.8758734,4.25024954 Z" id="形状" fill="#000000" fill-rule="nonzero"></path>
            </g>
        </g>
    </g>
</svg>
