<?xml version="1.0" standalone="no"?><!DOCTYPE svg PUBLIC "-//W3C//DTD SVG 1.1//EN" "http://www.w3.org/Graphics/SVG/1.1/DTD/svg11.dtd"><svg t="1619505209121" class="icon" viewBox="0 0 1024 1024" version="1.1" xmlns="http://www.w3.org/2000/svg" p-id="774" xmlns:xlink="http://www.w3.org/1999/xlink" width="32" height="32"><defs><style type="text/css"></style></defs><path d="M700.608 350.336h40.448c66.944 0 121.28 54.272 121.28 121.216v350.336a40.448 40.448 0 0 0 80.832 0v-549.12L793.344 122.88l57.152-57.152L1024 239.232v582.656a121.28 121.28 0 0 1-242.56 0V471.552a40.448 40.448 0 0 0-40.384-40.384h-40.448v471.552A121.28 121.28 0 0 1 579.392 1024H121.28A121.28 121.28 0 0 1 0 902.72V121.28C0 54.272 54.272 0 121.28 0h458.112c66.944 0 121.216 54.272 121.216 121.28v229.056z m-80.832-229.12a40.448 40.448 0 0 0-40.384-40.32H121.28a40.448 40.448 0 0 0-40.448 40.32v781.504c0 22.4 18.112 40.448 40.448 40.448h458.112a40.448 40.448 0 0 0 40.384-40.448V121.28zM552.448 242.56v107.84c0 44.608-36.224 80.832-80.896 80.832h-242.56a80.832 80.832 0 0 1-80.768-80.832V242.496c0-44.608 36.16-80.832 80.832-80.832h242.56c44.608 0 80.832 36.224 80.832 80.832z m-80.896 0h-242.56v107.84h242.56V242.496z" fill="#D92E2E" p-id="775"></path></svg>
