<?xml version="1.0" standalone="no"?><!DOCTYPE svg PUBLIC "-//W3C//DTD SVG 1.1//EN" "http://www.w3.org/Graphics/SVG/1.1/DTD/svg11.dtd"><svg t="1624259581947" class="icon" viewBox="0 0 2457 1024" version="1.1" xmlns="http://www.w3.org/2000/svg" p-id="6571" xmlns:xlink="http://www.w3.org/1999/xlink" width="479.8828125" height="200"><defs><style type="text/css">@font-face { font-weight: 400; font-style: normal; font-family: Circular-Loom; src: url("https://cdn.loom.com/assets/fonts/circular/CircularXXWeb-Book-cd7d2bcec649b1243839a15d5eb8f0a3.woff2") format("woff2"); }
@font-face { font-weight: 500; font-style: normal; font-family: Circular-Loom; src: url("https://cdn.loom.com/assets/fonts/circular/CircularXXWeb-Medium-d74eac43c78bd5852478998ce63dceb3.woff2") format("woff2"); }
@font-face { font-weight: 700; font-style: normal; font-family: Circular-Loom; src: url("https://cdn.loom.com/assets/fonts/circular/CircularXXWeb-Bold-83b8ceaf77f49c7cffa44107561909e4.woff2") format("woff2"); }
@font-face { font-weight: 900; font-style: normal; font-family: Circular-Loom; src: url("https://cdn.loom.com/assets/fonts/circular/CircularXXWeb-Black-bf067ecb8aa777ceb6df7d72226febca.woff2") format("woff2"); }
</style></defs><path d="M265.796 238.933l-11.23 1.024v144.896l1.024 4.096 1.024 1.024v2.048h2.048l0.99 1.024 3.072 1.024h28.57l3.072-1.024 1.024-1.024h1.024l1.024-2.048 1.024-1.024V239.957l-10.24-1.024z m61.201 15.292V399.19l-2.048 3.038-2.048 1.024-3.038 1.024-4.096 0.99h-27.545l-2.048 1.024-1.024 2.048-0.99 2.048v70.417l1.024-1.024 1.024-1.024h60.211l4.096-1.024h2.014l2.048-1.024 1.024-2.048 1.024-1.024 1.024-2.048V304.265l12.22 6.144 12.288 7.133 11.196 8.192 10.205 8.158 10.24 9.148 9.148 10.24 9.182 11.196 8.192 10.24 6.11 12.22 7.134 12.287 5.12 13.244 2.048 6.144 2.048 6.076 4.062 14.302 3.072 14.302v7.168l1.024 7.1 0.99 14.267-1.025 18.398-1.024 9.182-2.048 8.192-1.024 9.148-3.072 8.157-5.051 16.384-3.072 8.124-4.096 8.158-4.096 7.134-4.096 8.192-4.028 7.168-5.12 7.134-5.12 6.11-6.144 7.134-5.052 6.144-6.144 6.11-13.278 11.23-7.133 5.12-6.144 5.051-7.134 4.096-8.158 4.096-7.134 4.096-8.192 4.062-8.124 3.072-4.096 2.048-4.096 1.024-8.158 2.048-8.158 3.072-9.216 0.99-9.181 2.048V560.4h42.905l4.096-1.024 2.014-1.024h2.048l1.024-2.014 1.024-1.024 1.024-2.014v-72.499l-2.048 2.048-3.072 2.048-3.072 1.024-3.072 1.024h-58.129l-2.048 1.024-1.024 2.014-0.99 2.048v67.345h-15.36V489.95l-2.014-2.014-2.048-1.024H206.61l-3.072-1.024-3.038-1.024-3.072-2.048-1.024-1.024-1.024-1.024v69.427l1.024 3.072v2.048l1.024 0.99 2.048 2.048h2.048l1.024 1.024 4.096 1.024h42.872v114.313l-9.216-2.048-8.192-1.024-8.124-3.072-9.216-2.048-8.158-3.072-8.158-3.072-7.134-4.062-8.192-4.096-14.267-8.158-7.134-5.086-7.168-5.12-12.22-11.196-6.144-6.144-6.144-6.11-5.086-7.168-5.052-7.133-10.24-13.244-8.157-15.326-3.072-8.192-3.072-8.124-2.048-4.096-0.99-4.096-3.072-8.158-2.048-8.158-2.048-9.181-1.024-9.182-1.024-8.192-1.024-9.182v-9.182l1.024-14.268v-7.134l1.024-7.168 3.072-14.267 3.072-13.278 5.12-13.244 2.048-7.168 3.038-6.11 6.144-12.254 7.1-11.23 8.191-11.23 8.158-11.23 9.182-10.205 10.24-9.148 11.196-8.192 11.23-8.192 11.23-7.1 12.253-6.144v164.318l1.024 3.072v2.048l1.024 1.024 2.048 2.048 1.024 1.024h2.014l4.096 1.024h60.177l2.048 2.014v-72.465l-2.048-2.048-2.048-1.024h-27.545l-3.072-1.024-3.004-1.024-3.072-1.024-1.024-1.024-1.024-2.014V244.053l-10.24 3.072-10.172 3.072-10.24 3.072-9.148 3.072-9.216 4.062-9.147 5.12-9.216 4.062-9.182 5.12-8.192 6.076-8.124 6.144-16.35 12.254-7.134 7.168-7.168 7.1-7.133 7.167-6.076 7.134-6.144 8.158-6.144 8.192-6.11 9.148-5.12 8.192-5.12 9.148-4.062 9.216-4.062 9.181-4.096 10.24-6.144 19.354-2.014 10.206-2.048 10.206-2.048 10.24-1.024 11.196-0.99 10.205v23.484l1.024 12.22 2.014 12.254 2.048 12.254 3.072 11.23 3.072 12.22 4.096 11.263 4.062 10.206 5.12 11.196 5.086 10.24 6.144 10.172 6.11 10.205 6.11 9.216 7.168 9.148 8.124 9.216 8.192 8.158 8.123 8.158 9.216 7.168 9.182 7.134 9.182 7.134 10.24 6.11 10.172 6.143 10.206 5.086 10.205 5.12 11.23 4.062 11.23 4.096 11.196 3.038 12.288 3.072 12.22 2.048 12.254 1.024 12.253 1.024 12.22 1.024 12.288-1.024 12.22-1.024 12.254-1.024 12.254-2.048 11.23-3.072 11.195-3.072 12.288-4.062 10.172-4.096 11.264-5.12 10.172-5.086 10.24-6.144 10.171-6.075 9.182-7.168 9.182-7.134 9.216-7.168 8.158-8.124 8.124-8.192 7.168-9.182 7.168-9.182 7.1-9.182 6.143-10.205 6.144-10.172 5.086-10.24 5.086-11.196 4.096-10.24 4.096-11.23 3.072-12.22 3.038-11.264 2.048-12.22 1.024-12.253 1.024-12.254v-33.655l-2.048-11.23-1.024-10.24-2.048-10.172-3.072-10.206-6.11-19.388-3.072-10.24-4.062-9.147-10.24-18.398-5.12-8.158-5.051-9.148-6.144-8.192-6.144-8.192-13.244-14.268-7.134-7.133-8.192-7.168-7.134-7.134-8.158-6.11-8.192-5.12-9.147-6.076-8.158-5.12-9.182-4.096-9.216-5.12-10.206-4.062-9.182-3.072-10.206-3.072-20.412-6.11z" fill="#0A7A63" p-id="6572"></path><path d="M1311.061 251.017l-3.584 0.921-0.921 0.888-0.888 11.673-0.887 5.393-0.922 5.36-1.775 11.673-0.887 11.673v12.561l-1.81 0.888-3.583 1.809-13.449 6.28-1.809 0.888v10.786l0.888 1.775v1.775l0.921 0.922 1.775 0.887 2.697 0.922h1.809l2.662-1.81h0.888l-11.64 34.987-0.887 1.81-5.428 8.976-11.639 18.808-5.359 5.427-4.506 5.393-15.257 17.92-7.168 7.168-3.618 3.584-3.584 4.506-2.697 2.696-7.168 4.472-6.28 5.393-5.393 5.393-3.584 5.393h-0.888v1.809l-1.809 1.775v0.887l4.506 0.888 4.471-0.888 5.393-0.887 5.36-0.888 11.673-5.393 6.28-3.584 7.202-3.618 0.888-1.775 2.696-1.775 6.28-3.618 0.888-0.887 1.81-3.584 3.583-8.977 8.09-11.674 6.246-8.055 4.506-4.506 0.922-0.922 1.775-0.853h0.887v16.145l-0.887 9.899-0.888 9.83v19.763l0.888 8.056 1.809 8.09 1.775 7.168 1.809 6.28 3.584 5.393 0.887 2.697 1.81 2.662 1.774 1.843 1.81 1.775h3.583l3.618-3.618 4.438-3.584 4.505-3.584 4.472-3.584 0.921-0.887 1.775-2.731 9.011-7.168 12.562-13.449 4.471-6.28 3.584-6.28v-0.888l0.887-0.922 0.922-2.662 1.775-5.393 7.168-16.145 5.393 1.775 4.506 1.809 4.505 2.662 3.584 2.73 4.472 3.585 2.696 4.471 3.584 4.506 2.73 5.393 0.888 1.775 0.888 1.809 1.775 0.887 2.73 0.888 6.281 1.809 4.437 0.887h15.258l10.786-0.887 9.865-0.888 8.055-0.921 7.202-0.888 7.168-1.775 5.427-2.73 4.438-1.775v-1.843l0.921-1.775-1.809-2.697-3.55-1.809-3.618-2.696-5.393-1.775-5.359-1.81-7.168-1.774-16.179-3.618-17.954-2.663H1408l-7.168-3.618-9.899-2.662-17.954-8.09-13.448-8.09-5.393-2.662-3.584-3.618-2.731-2.697-1.775-3.584 1.81-0.921 1.774-1.775 9.899-3.55 5.359-3.618 6.314-4.506 1.775-1.775 1.81-0.887 6.246-5.393 3.618-1.775 4.505-2.73 1.775-1.776 2.697-1.809 8.977-5.359 2.696-1.809v-0.887l0.888-0.922-0.888-1.775-0.921-2.696-1.775-1.775-1.775-2.731-2.73-1.775-1.776-0.887-3.618-0.922h-3.55l-2.73 0.922-2.697 3.584-4.437 3.584-5.427 6.28-8.056 7.168-3.618 3.618-1.775 0.888-1.809 1.809-11.674 6.246-16.145 9.011-7.168-2.73-8.09-5.36-4.437-4.505-3.618-3.584-1.809-2.696-0.887-1.81 0.887-1.774 0.888-2.731 5.393-10.718 1.775-4.471 0.921-3.618 1.775-2.697 5.393-14.336 0.922-4.506 1.775-4.505 1.809-2.663 1.775-0.921 0.887-0.888 14.405-5.393 3.55-1.775 2.73-0.921 4.472 0.921 1.775 0.888 1.809 1.809 1.809 1.775 0.887 1.809 0.888 0.887v0.888l0.887 2.73-0.887 1.775v2.663l-1.775 1.809-1.81 2.73-4.47 5.36-7.169 5.393-7.202 5.358-7.168 6.281-1.81 1.81-0.92 1.808 0.92 0.888h6.281l7.168-0.888 2.731-0.887h3.55l6.28-1.81 6.281-2.696 6.315-2.696 5.359-2.697 6.28-4.437 0.888-0.956 2.73-2.662 5.393-3.584 8.056-4.506 2.696-1.81 3.584-2.696v-2.696l-16.145-10.752-6.314-6.28-3.584-1.81-2.663-1.775-5.427-1.809-6.246-1.775-6.28-0.921-6.281-0.888-8.09 1.81-16.145 3.583h-0.888v-0.921l-1.809-4.438v-10.752l0.888-7.168v-4.505l0.921-3.584 0.888-1.843v-4.438l0.887-4.505 2.697-7.168-0.922-0.888-2.662-0.921-2.73-0.888h-3.55l-4.506-1.809z m-19.763 222.549l-0.887-0.888v-1.775l-0.888-4.505 0.888-2.663v-2.73l0.887-1.775 0.888-2.697 3.618-17.066 0.887-8.943v-7.202l0.888-6.28 0.921-5.36v-3.618l0.888-0.887h0.921l9.83 3.584 6.281 0.921 1.81 0.853 2.696 0.922 5.393 2.697 6.28 4.505 6.281 5.36 6.28 4.505 1.775 1.775-0.887 1.809-0.887 2.696-1.775 1.81-2.731 3.583-9.865 10.752-0.887 0.888-11.674 8.977-8.977 6.28-4.471 2.731-2.73 1.74-3.55 0.922h-6.315z m-592.247-220.74l-2.731 0.887-0.887 1.775-0.888 1.81-0.887 6.314v12.527l0.887 6.28v21.538l-0.887 6.28v2.732l-0.888 0.887-8.124 2.697-10.752 4.471-38.57 8.977-8.977 0.888h-3.618l-3.584 0.921-2.697 0.853-1.775 1.844-0.887 0.853-0.922 1.81-0.887 1.808v5.36l0.887 3.617 0.922 3.584 0.887 4.506 4.472 9.864 4.471 8.977 1.843 4.438 2.663 3.618 6.28 9.899 8.09 8.942 1.775 2.731 9.01 15.258 0.888 0.887h3.584l9.899-4.505 9.83-2.731 3.619-0.888 4.471-0.853 7.168-0.921 3.618 0.921 0.888 0.853 0.887 2.731 0.922 7.168 0.887 11.674v16.145l2.628 14.165 0.035-0.683v0.888-0.205l-0.888 17.237v24.235l-0.887 4.506-1.775 4.471-2.731 3.618-0.887 3.55 0.921 1.81 1.775 1.774 4.472 1.81h7.202l3.584-0.888 8.977-1.775h0.887l1.81-0.922 0.887-1.809v-0.887l-2.697-14.336v-2.73l-0.887-3.585-0.888-16.11v-22.46 4.437-1.741l0.888-16.18 2.696-34.098 0.888-5.36 0.921-2.73 1.775-0.888 2.697-0.887h2.696l9.899-1.775 12.527-0.922h13.448l15.292-0.921 0.888-0.853 0.887-3.619 0.888-3.55 0.921-5.427v-1.775l0.888-2.696 2.73-5.36 5.36-8.089 7.167-8.977 0.888-2.696 1.809-2.697 2.696-4.471 3.584-3.618 1.81-0.888 1.774-1.809 2.697-0.887 2.696-1.775 1.81-2.697 1.774-2.73-0.887-0.888v-1.775l-3.584-3.584-4.506-4.506-2.696-1.774-2.697-1.81-3.584-1.774-3.584-2.731-4.471-1.775-8.09-3.584-7.168-3.584-6.28-1.775-6.28-0.922-1.81 0.922h-10.786l-10.752 0.853-21.504 2.731-2.73-3.584-0.888-4.506v-11.707l0.887-7.168v-3.584l0.888-2.731 0.921-1.775 2.663-3.584 3.618-3.584v-1.809l0.887-0.922-0.887-1.74-1.81-1.844-3.583-0.853-3.584-1.809-8.977-3.618-13.483-3.55z m26.897 126.532v-3.584l-0.888-5.393v-30.515l0.888-5.36v-1.843l0.921-0.853 1.775-0.921 3.618-0.888 6.247-0.887 8.09-0.922h18.841l2.697 0.922 2.696 1.775 0.888 0.921 0.921 0.853 0.888 1.844 0.887 2.662v6.28l-0.887 5.394-1.81 9.898-0.887 3.55-1.809 3.618-2.697 3.584-1.774 2.663-2.697 0.921-3.584 1.81-6.28 0.887-7.169 0.887-7.202 0.922-7.168 1.775-3.584 0.887zM662.22 391.03l-1.775-2.73-1.81-2.663-0.887-2.696-1.809-3.584-0.887-7.168-0.888-4.506v-10.752l1.775-4.471 1.81-0.922 3.583-1.809 15.258-5.393 6.28-2.662 7.168-2.697 4.506 0.888 0.888 6.28 0.921 9.899v28.706l-3.584 1.809-7.168 1.775-22.46 5.359z m994.372-130.116l-2.662 0.854-0.922 1.843-1.775 2.662-0.887 4.506-1.81 5.359-1.808 16.179-0.922 8.943v11.673l-2.662 33.212-0.888 22.426-0.922 19.763-0.887 7.168-1.81 7.168-0.887 6.315-1.774 4.437-0.922 4.54-1.775 2.696-1.81 2.663-1.774 0.921-6.28 0.888h-1.81l-1.809-0.888-0.887-1.809v-1.775l-0.888-17.954-0.887-9.011v-44.851l0.887-17.954V330l2.663-8.09 0.921-2.696v-1.775l-0.921-1.81-0.888-1.774-1.775-0.922-2.696-1.775-22.426-6.28-2.73 0.887-2.663 1.775-0.887 0.922-0.922 1.775-0.887 2.73-0.888 3.585v7.168l0.888 9.864 0.887 16.145 0.922 20.65-1.81 2.697-17.953 9.899-6.281 3.584-2.662 0.853h-12.596l-5.393 0.922-0.887 0.887v1.81l-0.888 2.662 0.888 4.505 0.887 1.81 0.922 2.696 3.584 4.472 5.393 5.358 3.584 4.506 3.584 2.73 3.584 1.742h2.697l1.809-0.854 3.584-3.618 11.673-14.336 3.584-2.73 1.775-4.438 1.81-1.843h1.808l4.472 28.74v5.393l-0.888 3.584-1.809 3.584-1.775 2.73-2.73 1.742-4.438 2.73-6.28 1.775-8.124 3.584-6.246 1.81-13.483 3.583-9.899 3.584h-2.662l-8.09 2.697-12.56 2.696-5.394 0.888h-5.359l-0.887 0.921h-0.922l-0.887 1.775v3.619l1.809 4.437 6.246 12.595v0.888l0.922 0.887h2.696l3.584-0.887 6.28-3.584 6.281-3.584 7.168-2.663 8.09-3.652 8.055-2.663 9.9-1.809 11.639-2.73 11.673-1.741 12.561-1.81 19.798-3.583 11.639-2.697 7.168-0.887 8.09-0.888 10.752-0.921h12.56l12.562-1.81 12.56-0.887h10.787l10.786 0.888 3.584 1.809 9.865 2.73 13.448 2.663 5.393 1.809 10.786 3.584h1.775l1.81-0.888 1.774-0.921v-1.775l0.922-2.73-0.922-8.056-0.887-4.472-1.81-5.427-3.583-14.336-0.888-0.887-1.809-3.618-3.584-3.55-3.584-1.81-3.584-0.921-1.809-0.887-2.662 0.887-5.427 0.922-2.663 0.887-2.73 0.922h-5.36l-2.696 0.887-1.775 0.922-26.044 0.887-7.168 0.854-3.618 0.921H1661.1l-0.888-0.921 0.888-12.527v-4.506l0.887-0.887 0.888-0.888 2.73-1.843 2.663-0.853 6.28-6.315 9.899-8.056 11.673-10.752 14.336-14.37 0.888-1.809 2.696-1.775 0.922-0.887 5.359-2.73 3.584-2.663 2.697-2.73 0.887-1.776v-1.809l-0.887-1.775-1.775-1.809-1.81-2.662-4.47-5.428-3.585-4.437-4.506-1.843-1.774-0.888h-4.506l-1.81 0.888-0.887 0.922-0.887 1.809-1.81 2.696-5.392 8.056-3.55 4.471-2.73 3.618-3.55 5.36-4.506 5.392-12.561 13.449h-0.922l2.73-56.525 0.888-5.393 1.775-11.605 1.81-9.9 0.887-4.505 0.887-3.618 3.584-5.359 1.81-1.809 1.774-0.887v-0.888l-0.887-1.775-1.775-1.809-4.506-3.584-4.471-1.809-5.393-1.775-5.393-0.921z m226.168 0.854h-1.775l-0.922 0.921-0.887 2.663-0.922 4.54-5.359 11.639-5.393 11.673-6.28 11.674-6.281 10.752-8.056 12.561-8.123 12.561-10.752 17.954-8.977 11.674-8.977 11.673-8.943 13.483-1.81 6.246v2.731l0.888 0.853 1.775 0.922h4.506l2.696-0.922 2.697-0.887 3.618-1.775 7.168-4.506 9.864-7.168 7.168-6.28h2.697l1.809 2.662 3.584 6.28v0.888l2.696 2.731 4.472 5.393 0.887 1.775v2.697l-1.775 1.809-1.809 1.775-2.696 1.774-10.786 5.428h-15.224l-0.887 1.809-0.922 0.887v7.168l0.922 5.36 1.775 6.28 1.809 5.393 0.853 0.921 0.922 0.888 1.809 0.887 20.65-7.168h0.888l0.887 0.888v1.809l0.888 1.775v17.066l0.921 12.561 0.888 5.394 0.887 4.505 1.81 6.247 1.774 1.809 2.731 0.887 1.775-0.887 6.28-4.506 6.281-3.55 1.775-1.843 2.73-2.662 6.247-7.168 8.09-12.596 10.786-15.257 4.505-15.258 1.775-7.168v-1.775l-1.775-0.887-0.955 0.887-2.697 1.775-2.662 3.584-3.584 5.393-8.977 9.899-7.168 6.246-2.697 2.697-2.696 1.775-1.81 0.921-0.887 0.888-3.584-0.888h-0.887l-0.922-0.921-0.888-2.663-0.887-2.73 0.887-2.663v-2.696l1.81-2.663 0.887-2.73 4.471-4.438 5.394-4.505 3.584-3.618 8.977-9.9 2.73-3.549 1.741-3.584 1.843-2.73v-6.281l-1.843-2.697v-0.887h-0.887l-2.663-0.853-9.898 1.74-1.81-3.55 9.012-17.066 1.775-2.697 0.921-2.696v-10.718l-0.921-1.81-0.888-0.92-0.887-0.888-0.922-0.922-2.662-0.853h-6.28l-6.316 2.662-6.28 2.73-8.056 4.438-6.28 2.73-1.81 0.888h-4.47l-0.922-0.921-0.888-0.888v-6.246l0.888-3.618 1.809-3.584 1.775-3.618 2.696-3.584 2.731-3.584 4.437-3.584 3.618-2.731 4.472-3.55 2.696-0.887h1.81l2.662 0.887 3.618 1.81 10.752 8.055 4.506-0.888 3.584-0.887 3.584-2.731 4.505-3.55 2.697-3.618 2.662-3.584 0.922-3.584 0.887-3.584-0.887-3.584-1.81-2.73-3.617-2.663-0.854-0.922h-1.843l-14.336 2.731h-1.775l-1.809-0.887v-0.922l-0.887-1.775 0.887-2.73 2.697-4.438 3.584-5.427 5.393-5.36 0.921-2.73 1.775-1.775v-6.28l-0.921-1.81-0.854-2.696-1.843-1.775-4.437-3.584-4.506-3.584-4.505-2.73z m-832.854 12.595l-8.055 0.887-8.056 0.888-7.168 0.921-7.202 0.888-17.954 2.662-7.168 1.81-6.315 0.92-6.246 1.776-4.506 0.921-4.471 0.888-6.315 2.662-6.28 3.618-20.617 6.28-2.73 0.888-2.663 1.81-2.696 1.774-0.922 1.81-1.775 2.696-1.775 5.393-0.922 7.168-0.853 8.977-0.921 25.122-0.922 33.212 0.922 17.954-0.922 17.954 1.843 30.515 1.775 9.865 0.888 7.168 0.887 2.73 1.775 2.697 0.922 1.775 1.774 1.775 1.81 0.887 1.809 0.888 1.809-0.888 1.775-0.887 4.471-4.506 3.618-1.775 4.472-2.696h1.809l1.775-0.888 3.584-1.809 3.618-0.887h5.359l5.427-0.888 1.74-0.921 20.651-3.584 8.977-1.775 5.428-0.922 6.28-0.887 11.606-0.922 9.898-0.887 8.977 0.887 8.09 0.922h8.977l1.775-0.922 0.921-0.887 0.888-0.888v-10.752l-0.888-1.809-0.921-4.505-0.888-3.584-1.775-0.888-1.843-0.887-2.662-0.922h-26.01l-13.482 1.81-7.168 0.887-7.168 1.809-16.18 2.662-17.066 4.506-13.449 2.696-6.28 0.888h-1.81l-2.662-0.888-0.887-0.887-1.81-2.697-0.92-1.775v-1.843l-0.888-1.74v-2.731l-0.888-4.438 1.775-31.436 1.81-8.978v-3.618l0.92-1.775 0.888-2.696 2.663-26.01 3.618-18.841 1.775-7.168 1.809-5.428 0.887-4.471 0.888-0.887 0.921-0.922 4.438-3.584 6.314-3.584 8.09-5.359 8.055-3.618 4.506-1.81 4.471-1.774 8.977-2.697 0.922-0.887 2.697-1.81 9.864-1.774 10.752-0.888 20.65-1.843h2.731l1.741 0.922 2.73 0.921 1.776 1.775 4.505 3.584 2.663 2.731 1.809 2.662 1.775 3.584 0.921 3.619 1.81 3.55 0.853 3.618 0.921 7.168 0.888 4.471v3.618l0.887 1.775v8.09l0.922 7.168 4.471 77.175 1.81 28.74 0.887 11.606-1.775 2.73-1.809 0.922-0.887 0.887-4.506 1.775h-5.393l-7.168-0.887-6.28-0.888-1.81-0.887-0.887-0.922-4.472-3.584-3.584-0.887-0.921 0.887-0.888 0.888v0.921l0.888 1.775 0.921 2.731 0.888 1.74 2.696 2.732 6.28 6.246 9.865 6.315 9.9 6.28 8.942 5.36 6.28 3.583 6.281 2.73 6.28 1.776 5.394 0.921 2.696-0.921 2.697-0.922 0.887-1.775v-0.887l0.888-3.618-0.888-2.663-0.887-11.673-0.888-4.506-0.921-6.28-0.888-6.247-0.887-59.255-0.922-68.199-0.887-1.809v-1.775l-0.922-6.315-0.853-9.864v-14.37l0.853-1.741 1.81-6.315 0.92-0.887 0.888-1.81 1.81-4.47v-4.472l-0.922-1.81-17.067-8.089-8.055-1.775-5.394-0.921-5.393-0.888-12.527-0.887z m930.68 5.393l-6.28 1.775-8.09 2.73-8.056 3.55-8.977 3.618-21.572 13.449-5.36 4.506-1.808 0.853-0.888 0.921v0.888l0.888 9.899v13.414l0.921 38.605v10.786l-0.921 10.786-0.888 10.752v22.426l0.888 12.56 0.921 11.674 0.888 12.561 1.809 12.561 0.887 2.697 0.888 3.618 2.73 13.449 1.741 3.55 1.81 2.73 1.808 1.775h3.584l2.697-0.887 1.775-0.922 2.73-1.775 5.36-4.471 5.393-7.168 3.584-4.506 6.28-7.168 5.359-6.315 2.73-2.662 0.888-3.618 1.81-3.584v-0.888h0.853l3.618-4.505 1.809-4.472 1.775-2.73 0.887-3.55 0.922-3.584 0.887-2.73 1.81-0.888 0.887-0.854h0.887l3.584 0.854 13.483 5.393 4.471 4.505 3.618 5.393 2.663 5.36 1.809 5.392 0.887 1.81 0.922 1.774 0.887 0.922 1.775 1.775 3.584 0.887 5.428 0.888 8.055 0.921 8.977 0.888 12.561-0.888h3.584l4.472-0.921 6.28-2.663 3.618-1.809 2.697-1.775 3.584-1.809 2.696-2.696-0.921-0.888-0.888-1.809-2.73-2.696-6.247-3.584-8.977-3.584-11.64-4.472-34.133-9.898-22.425-9.865-8.977-4.505-6.28-3.55-3.585-2.731-0.887-1.775-0.922-0.922 0.922-1.774 1.775-1.775 12.595-7.168 1.775-1.81 4.471-4.47 8.09-8.125 1.809-0.853 1.775-2.73 5.393-7.169 4.471-4.505 0.922-0.888 4.471-5.359 1.775-2.73v-0.888l-0.853-2.662-2.73-4.506-1.776-2.662-1.809-2.73-1.775-0.888-0.887-0.888-1.81 0.888-2.73 0.887-2.662 2.73-2.697 3.585-7.168 6.246-16.145 14.336-9.898 7.202-11.674 5.393-0.887 0.888-8.056 2.73v-0.921l1.775-1.81 5.393-5.358 8.977-5.393 6.28-4.472 4.472-2.73 3.618-3.584 3.584-4.438 2.663-4.505 2.73-6.315 1.775-6.28 1.81-7.168 1.774-8.977 0.922-4.506 0.887-4.437 1.775-5.393 0.922-3.619 8.09-21.504v-0.955l-0.922-1.775-4.472-3.618-4.505-2.697-6.28-1.809-5.394-0.853-6.28-0.922z m-35.021 49.357v-3.619l1.809-2.696 2.73-3.584 4.438-4.472 1.809-2.73 2.697-4.438 3.584-2.73 3.584-1.775 3.618-0.888 2.662 0.888 1.81 0.887 0.887 0.922 0.921 1.809v14.336l-0.921 10.786-1.81 8.056-1.774 7.168-1.775 4.505-0.922 1.775-1.809 1.81-3.584 4.505-3.584 2.662-11.674 8.09h-1.775l-0.921 1.775-1.775-0.888-0.888-0.887-0.921-1.81v-2.662l0.921-1.809 0.888-1.809 0.922-1.775 2.662-2.696 6.28-6.28 8.978-8.09 6.28-7.168 1.775-2.731 0.922-1.74v-4.54l-0.922-1.776-0.853-0.887-1.81-0.887-2.73-0.922-5.359 0.922-4.471 1.774-8.09 4.506h-1.81z m-8.056 133.7l-0.921-0.888-0.854-0.887-0.921-8.09v-8.977l0.921-9.898 1.775-10.752v-0.888l0.888-0.921 2.73-1.741 6.247-0.922h1.809l1.81 0.922 5.358 2.662 12.561 5.393 3.584 0.888 1.81 1.809 1.808 1.775 0.854 1.809-0.854 1.775-0.921 1.809-2.697 4.505-5.393 6.247-3.584 3.584-3.584 3.618-3.584 2.662-4.471 2.73-4.506 1.776-3.584 0.921h-5.393z m257.57-176.81h-0.887l-1.809 1.808-2.697 2.697-2.696 3.584-7.168 9.898-8.09 15.224-7.168 10.786-4.505 8.09-2.697 6.246-0.887 2.73v3.585l1.809 2.662 3.584 1.81 1.809-0.888 2.662-1.775 4.506-3.618 4.505-4.506 2.663-1.775 3.618-3.584 11.64-8.09 1.809-1.774 1.809-2.731 2.662-2.662 1.81-0.922 1.774-1.775 2.73-2.73 1.776-1.741 4.471-3.619 2.73-3.55 1.776-2.73v-2.697l-0.888-1.775-1.809-2.696-2.696-2.697-4.472-4.471-7.202-4.506-2.662-1.775z m112.197 3.583l-8.09 2.73-26.965 8.944-8.943 2.73-8.056 1.775-6.314 0.922-4.438 0.853-1.843 0.922-0.887 0.922-0.888 0.853v3.618l0.888 1.775 1.809 6.28 0.887 0.888 1.775 7.168 0.922 1.843 0.887 1.775 1.81 0.922h1.774l5.393-0.922 7.168-0.922 20.651-0.853 7.168-4.505 6.28-2.697 9.012-3.584 12.56-7.168 2.697-1.81 0.888-1.808 0.887-1.775 0.888-1.775-0.888-2.73-0.887-2.697-0.888-4.438-1.843-4.505-1.775-0.888-1.809-1.843h-1.775l-2.696-0.853zM1047.21 307.541h-7.202l-3.55 0.922h-3.618l-4.472 1.775-5.393 0.921-6.28 0.888-8.09 2.696-10.752 2.697-11.674 4.471-7.168 1.81-4.471 1.774-2.73 0.888-1.81 0.922v8.09l0.922 3.583-0.922 3.584 6.28 4.472 7.169-1.775h9.967l3.55 0.887 0.921 0.888 0.887 1.809v0.887l0.922 1.81-0.922 4.505-0.887 0.887v0.888l-9.899 0.887-8.943 2.697-9.898 0.887h-2.697l-1.775 0.922h-0.887l-1.81 0.887-0.887 0.888v1.809l-0.921 5.359v0.921h0.921l0.888 3.584v3.584l0.887 0.922 0.922 0.887 1.775 1.775 2.73 0.922h5.36l2.662-0.922 3.618-0.887 10.752-2.697h0.921l0.888 0.922 0.922 0.887 0.853 1.775-0.853 5.393-0.922 2.731v2.628l-2.697 3.618-2.696 2.663-8.943 3.618-7.168 2.697-6.315 1.809-6.28 0.887h-2.697l-1.775 0.888-1.809 0.921-0.921 0.853v4.506l2.73 8.977v1.81l1.775 0.887 0.888 0.887h2.696l2.697-0.887 2.73-0.888 20.617-3.584 55.637-9.898h24.235l4.437-0.888 1.843-0.922 1.81-1.774 0.853-2.697 0.921-2.697v-8.055l-0.921-1.775-1.775-1.843-2.73-0.853h-2.663l-2.663-0.922-1.843-0.888-11.64-21.538v-1.809l1.81-1.775 1.775-2.73 3.584-2.663 0.921-8.977-0.921-1.809-0.888-1.775-2.696-0.921h-2.73l-17.887 0.921h-7.202l-0.887-7.168 0.887-3.618v-0.887h0.922l12.527-4.472 1.809-0.921h0.921l0.888-0.888 2.696-0.887 4.472-0.922 0.887-0.887 0.922-0.922v-0.888l1.775-1.774 0.887 0.887v-7.168 0.887l0.922-6.28-1.81-1.81-2.73-1.774-1.74-0.922z m-21.538 85.3l-1.81-0.922-0.887-0.888-1.81-2.73-0.887-4.438v-1.809l0.888-1.809v-1.809l1.809-1.775 2.697-1.775h5.358l2.731 1.775 0.888 2.697 1.809 3.584v2.73l1.775 2.663 1.775 0.887 0.921 1.81v0.887l-0.921 1.775h-5.36l-4.505 0.887h-2.662z m236.032-67.346l-1.81 0.888-3.584 2.73-11.673 11.64-15.258 19.763v2.697l0.888 1.775 0.921 0.921 2.697 1.775 1.775 0.888 7.168 1.809 8.09 1.775 8.976 1.809 5.394 0.921h1.774l0.922-0.921 0.922-0.888 0.853-1.809-1.775-8.977v-7.168l-0.922-6.28v-6.28l0.922-2.697v-2.697l0.922-4.506v-1.774l0.853-1.775-0.853-2.731-2.731-0.888z m1083.22 14.37h-11.673l-8.09 0.888-8.089 0.922-18.842 2.662-3.584 0.922-5.358 0.887-6.281 1.81-17.954 7.167-8.09 1.81-6.28 1.774-7.168 0.922h-8.09l-1.775 0.887-13.482 3.584h-2.731l-2.663 0.888-0.887 1.809-0.887 2.696 0.887 1.775 0.887 1.81 0.922 2.696 1.775 2.662 2.697 3.618 2.73 4.506v0.853h1.741l4.506 0.922 6.28-2.697 7.168-2.696 8.09-2.697 8.943-2.662 9.01-0.922h12.528l3.618 0.922 0.887 0.853 1.81 3.618 1.809 5.36 0.887 7.167 1.775 7.202v13.449l1.809 13.483v12.56l0.887 12.562v11.673l-0.887 4.506-0.887 1.775-2.731 1.775-3.55 0.921h-8.977l-6.315-0.921-6.246-0.888-8.09-1.775-8.09-2.73h-3.583l-4.472-0.854-2.73-1.809-5.36-1.775-3.583-0.921h-0.888v1.809l0.888 1.775 0.887 1.809 2.73 1.809 5.36 5.359 8.055 5.393 6.28 6.28 5.394 2.731 8.977 3.55 10.786 3.584 14.336 4.472 17.954 4.505 4.506 1.775h4.471l1.775-0.853 0.922-1.81 0.921-1.808-4.505-29.628-0.922-8.056v-3.584l0.922-59.22v-20.652l0.887-0.887 1.775-5.393 1.843-1.81 1.775-0.887 1.81-1.809h2.696l2.696-0.887h3.55l8.977 0.887 10.786 1.81h4.472l2.73-0.922 2.663-1.775v-0.888l0.922-0.921v-2.663l-0.922-6.28-0.888-2.73-0.887-3.585-3.618-6.28-5.36-6.28-3.617-0.888z m-148.991 5.394h-2.697l-2.662 1.775-1.81 2.696-2.696 3.584-4.471 5.393-2.73 4.506-2.663 3.584-0.888 2.696v0.888l-0.921 0.887-6.28 8.977-9.9 12.596-14.335 17.92-17.955 20.65-3.584 3.584-3.584 2.73-1.809 2.63-0.887 1.842-0.888 1.775v0.888l0.888 0.921v0.888l1.809 0.887h6.246l3.618-0.887 8.09-2.697 4.472-1.775 3.584-2.73 3.618-2.663 3.55-3.618 7.168-7.168 0.921-2.696v-3.55l0.888-2.73 1.809-3.585 2.73-4.471 1.741-2.731 2.73-3.55 1.776-1.843 1.809 0.921 0.887 0.922 0.888 1.775v1.81l0.921 7.167 0.888 8.977-0.888 5.393-0.921 26.01-0.888 18.841-0.887 3.584v2.731l0.887 1.775 0.888 1.775 0.921 1.843 1.775 0.853h9.865l1.809-0.853 1.809-0.921 0.853-0.922v-0.888l0.922-4.437v-6.315l-0.922-7.168v-17.954l0.922-17.954v-7.168l0.887-5.427v-1.775l0.922-4.471 1.775-16.145 1.809-11.674 1.775-7.168 1.809-3.618 3.584-4.472 3.584-3.618 1.809-2.662v-4.506l-2.697-3.584-3.584-2.696-2.696-1.81-2.697-1.774z" fill="#231916" p-id="6573"></path><path d="M2312.602 597.572h18.841l27.819 66.424h-17.92l-5.393-13.449h-28.706l-5.393 13.449h-17.067z m-0.888 41.302h19.73l-9.865-26.044z m-99.6-41.302h17.066l30.48 46.66v-46.66h15.258v66.424h-16.145l-31.402-47.582v47.582h-15.258z m-31.438 66.424h16.145v-66.424h-16.145z m-77.141 0v-66.424h16.11v25.122h30.516v-25.122h16.18v66.424h-16.18v-29.628h-30.515v29.628z m-70.93-60.11l2.697-1.842 2.663-1.775 2.73-0.888 2.697-0.887 6.246-1.775 3.619-0.922h8.977l3.584 0.922 4.437 0.853 3.618 0.922 3.618 1.775 3.55 1.775 0.922 0.921 1.809 1.81 0.887 0.887 0.888 1.775 2.696 2.73 1.81 3.55 0.887 2.731v3.55h-16.18l-1.774-4.437-1.775-3.619-2.731-1.809-3.55-0.887-3.584-0.888h-8.09l-3.618 0.888-3.584 1.809-0.887 1.775-1.775 0.887-1.81 3.618-1.808 4.506-0.888 4.437v10.787l0.888 4.505 1.809 3.584 2.696 3.584 2.663 2.697 2.73 1.775 4.438 0.921h7.236l3.584-0.921 3.584-1.775 2.697-1.81 1.775-3.583 1.775-4.472h16.179l-0.888 5.393-2.73 4.438-2.663 4.54-2.73 1.774-1.741 1.81-1.81 1.774-2.696 0.888-5.393 2.73h-2.696l-3.584 0.854-6.281 0.921-3.584-0.921h-4.506l-3.584-0.888-3.584-0.887-2.696-0.888-2.663-1.809-3.618-1.775-1.809-2.73-4.437-4.438-1.81-3.618-0.92-2.696-1.776-3.584v-3.584l-0.921-3.584v-8.056l0.921-4.54 0.888-3.55 0.887-3.618 1.81-2.696 1.774-3.584 1.81-2.697z m-104.106-6.314h55.638v11.674h-39.493v15.257h34.134v11.674h-34.134v27.819h-16.11z m-24.234 61.03l-2.697 1.81-1.775 1.775-6.28 1.809-7.168 1.775-7.168 0.921-8.09-0.921-3.618-0.888-3.584-0.887-6.28-1.81-1.81-1.774-2.662-1.81-2.73-2.662-2.663-2.73-1.81-3.584-1.808-2.663-0.854-3.618-0.921-4.471-0.888-3.584v-8.977l0.888-4.472 0.921-3.618 0.854-3.584 1.809-3.584 1.809-2.697 2.696-2.73 2.697-2.663 2.662-1.775 1.81-1.809 6.28-1.809 7.168-1.775 8.09-0.921 7.167 0.921 3.584 0.922 3.619 0.853 6.28 1.81 1.775 1.808 2.73 1.775 2.663 2.697 2.697 2.696 1.809 2.697 1.775 3.584 0.887 3.584 0.922 3.618 0.887 4.437v9.012l-0.887 3.584-0.922 4.471-0.887 3.618-1.775 2.663-1.81 3.584-2.696 2.73z m-9.865-10.785l1.775-2.663 1.809-4.505 1.81-4.472v-10.752l-1.81-4.506-1.81-4.505-0.887-1.775-0.887-0.922-1.775-1.775-1.809-1.809-3.584-1.775-3.618-0.921h-9.865l-3.584 0.921-1.775 0.888-1.809 0.887-1.775 1.81-1.843 0.887-2.662 3.584-1.81 4.505-0.887 4.506v10.752l0.888 4.472 1.809 4.505 1.775 1.81 0.887 0.853 1.843 1.809 1.775 0.921 3.584 2.663 3.584 0.921h9.865l3.618-0.921 1.775-0.888 1.809-1.775 1.81-0.921z m-158.857-50.245h16.146v26.931l30.515-26.93h20.65l-32.324 26.93 34.133 39.493h-20.65l-24.235-28.706-8.09 6.28v22.426h-16.145z m-78.984 0h17.067l31.402 46.66v-46.66h15.258v66.424h-16.145l-32.324-47.582v47.582h-15.258z m-55.637 0h18.841l26.966 66.424h-17.067l-5.393-13.449h-28.706l-5.393 13.449h-17.067z m-0.888 41.302h19.73l-9.865-26.044z m-41.301-34.134l1.809 1.81 0.921 2.696 0.854 2.696v5.393l-0.854 2.663-0.921 2.73-1.775 1.775-2.73 1.81-3.585 1.774 3.618 1.81 1.775 0.887 2.731 1.81 0.887 1.774 1.775 1.81 0.888 2.696 0.921 2.696v5.393l-0.921 2.663-0.888 2.73-1.775 2.663-2.73 2.73-2.663 2.663-4.505 1.775-4.472 0.921-5.393 0.888h-41.267v-66.424h44.851l2.73 0.922 2.663 0.887 4.472 1.81 1.809 1.774z m-43.042 30.55v17.066h24.2l3.618-0.921 1.775-0.888 1.81-1.809 0.887-2.696 0.887-2.697-0.887-2.696-0.888-1.775-1.809-1.81-1.775-0.887-3.618-0.887h-4.437z m0-26.044v14.336h24.2l3.618-1.74 1.775-0.923 0.922-0.921v-1.775l0.887-1.81-0.887-2.696v-1.775l-1.81-0.887-1.774-0.922-4.506-0.887h-4.505z m-110.422-11.674h16.18v54.75h39.492v11.674h-55.638z m-55.637 0h17.988l27.819 66.424h-17.988l-4.472-13.449h-28.706l-5.393 13.449h-17.067z m-0.887 41.302h19.763l-9.899-26.044z m-48.47-39.493l1.81 0.888 1.808 0.921 1.775 0.854 1.81 1.843 2.696 2.662 1.775 2.697 0.887 3.584v8.09l-2.662 4.505-1.81 2.662-1.808 1.81-2.663 0.887-2.73 1.81 4.505 1.774 1.81 1.81 0.887 1.808 1.809 4.437 0.887 2.731v13.449l1.775 2.73 1.81 1.775v0.888h-17.92l-1.81-3.584v-11.674l-0.921-2.696v-2.697l-0.888-1.775-1.809-0.921-0.887-1.775h-2.731l-2.628-0.888h-19.798v26.01h-16.145v-66.424h45.807z m-34.986 9.865V627.2h17.954l5.393-0.887h3.584l1.775-1.81 1.809-1.809 0.921-1.775v-5.393l-0.921-2.696-1.81-1.775-1.774-0.922-3.584-0.887h-4.506z m-95.13-11.674h17.067v46.66l0.887 2.731 0.888 1.775 0.921 0.888 0.888 1.809 2.696 1.775 3.584 0.921h8.943l3.618-0.921 2.663-1.775 2.73-2.731v-1.74l0.888-2.731 0.887-5.36v-41.3H1233v45.772l-0.922 4.472-0.888 4.505-1.809 2.697-1.775 2.73-2.696 2.663-2.73 1.775-3.55 0.921-3.585 1.775-3.618 0.888h-18.807l-4.506-0.888-3.618-1.775-2.662-0.921-3.584-1.775-1.81-2.697-2.73-2.73-0.888-2.663-1.775-4.505-0.887-4.438v-4.505z m-9.899 0h-62.805v11.674h23.347v54.75h16.145v-54.75h23.347z m-114.858 0h16.179v54.75h38.57v11.674h-54.75z m-78.063 0h16.145v41.302l0.887 5.359 0.922 2.73v1.775l0.887 0.888 1.775 1.809 2.73 1.775 3.55 0.921h9.012l3.584-0.921 2.662-1.775 1.81-2.731 0.921-1.74 0.853-2.731v-46.66h17.067v45.772l-0.887 4.472-1.81 4.505-0.887 2.697-2.73 2.73-1.741 2.663-3.619 1.775-2.662 0.921-3.584 1.775-4.506 0.888h-18.841l-3.584-0.888-3.618-1.775-3.55-0.921-2.73-1.775-2.697-2.697-1.775-2.73-1.775-2.663-0.922-4.505-0.887-4.438v-4.505z m-70.895 6.315l2.662-1.843 2.73-1.775 2.663-0.888 2.73-0.887 6.247-1.775 3.618-0.922h8.056l4.471 0.922 4.506 0.853 3.584 0.922 3.584 1.775 2.696 1.775 1.81 0.921 0.887 1.81 1.81 0.887 0.887 1.775 2.696 2.73 0.888 3.55 1.809 2.731v3.55h-16.18l-1.775-4.437-2.696-3.619-1.775-1.809-3.584-0.887-3.618-0.888h-8.056l-3.618 0.888-3.55 1.809-1.843 1.775-0.887 0.887-2.697 3.618-0.887 4.506-0.888 4.437-0.921 5.393 0.921 5.394 0.888 4.505 1.809 3.584 1.775 3.584 3.584 2.697 2.73 1.775 3.584 0.921h8.056l3.618-0.921 3.584-1.775 1.775-1.81 2.696-3.583 1.775-4.472h16.18l-1.81 5.393-1.774 4.438-3.619 4.54-1.774 1.774-1.81 1.81-2.696 1.774-1.775 0.888-5.393 2.73h-2.697l-3.584 0.854-6.28 0.921-4.472-0.921h-3.618l-3.55-0.888-3.618-0.887-2.696-0.888-3.584-1.809-2.697-1.775-2.696-2.73-3.584-4.438-1.775-3.618-1.81-2.696-0.92-3.584-0.888-3.584v-16.18l0.887-3.55 1.81-3.618 0.92-2.696 2.663-3.584 1.81-2.697z m-39.493 60.109h16.146v-66.424H856.95zM831.83 599.38l1.775 0.888 1.81 0.921 1.808 0.854 1.775 1.843 2.697 2.662 0.887 2.697 1.81 3.584v3.584l-0.922 4.505-1.775 4.506-1.81 2.662-1.774 1.81-2.73 0.887-2.663 1.81 4.505 1.774 1.775 1.81 0.888 1.808 1.809 4.437 0.887 2.731v13.449l0.888 2.73 2.73 1.775v0.888h-18.875l-0.888-3.584v-5.427l-0.887-6.247v-5.393l-0.922-1.775-1.809-0.921-0.853-1.775H819.2l-2.662-0.888h-19.764v26.01H780.63v-66.424h45.739z m-35.02 9.865V627.2h17.988l5.359-0.887h2.662l2.73-1.81 1.776-1.809 0.921-1.775v-5.393l-0.921-2.696-1.775-1.775-1.81-0.922-3.583-0.887h-4.506z m-48.47 8.977l-0.887-1.81-0.888-1.774-1.809-2.73-0.887-0.854-1.81-0.922-2.662-1.775-4.471-0.921h-9.011l-4.472 0.921-1.809 0.888-1.809 0.887-3.55 2.731-2.73 3.55-1.775 4.505-0.922 5.394v10.752l1.809 5.393 0.887 1.775 0.922 1.809 0.888 1.775 1.774 1.809 3.619 1.809 3.584 1.775 3.584 0.921h8.055l3.618-0.921h1.81l1.774-0.888 2.697-1.775 1.809-2.73 1.775-2.663 1.809-2.73 0.887-2.663h-17.954v-11.674h32.324v35.909h-10.786l-1.809-8.056-4.437 4.438-3.618 2.73-3.584 0.888-3.584 1.775h-16.145l-3.584-0.888-3.618-0.887-2.697-1.81-2.697-0.887-5.358-4.471-2.697-2.697-1.81-1.809-1.774-3.584-1.81-2.696-0.887-3.584-0.921-3.584-0.888-3.584v-8.056l0.888-3.618 0.921-3.618 0.888-3.584 1.809-2.697 1.775-2.662 1.809-2.697 2.697-2.73 2.696-2.663 2.662-1.775 6.315-3.618 3.55-0.853 3.618-0.922h15.224l6.314 1.775 3.584 0.922 2.73 0.887 4.438 2.663 4.506 3.618 2.696 3.584 0.888 1.809 0.887 2.662 1.81 4.506z m-108.544-20.65h17.92l27.819 66.423H667.58l-4.438-13.449h-28.774l-5.359 13.449h-17.067z m-0.921 41.3h19.729l-9.899-26.043z" fill="#0A7A63" p-id="6574"></path></svg>