<?xml version="1.0" encoding="UTF-8"?>
<svg width="24px" height="16px" viewBox="0 0 24 16" version="1.1" xmlns="http://www.w3.org/2000/svg" xmlns:xlink="http://www.w3.org/1999/xlink">
    <title>编组</title>
    <defs>
        <filter id="filter-1">
            <feColorMatrix in="SourceGraphic" type="matrix" values="0 0 0 0 0.223529 0 0 0 0 0.650980 0 0 0 0 0.972549 0 0 0 1.000000 0"></feColorMatrix>
        </filter>
    </defs>
    <g id="注册流程" stroke="none" stroke-width="1" fill="none" fill-rule="evenodd">
        <g id="编组" transform="translate(-28.000000, -272.000000)" filter="url(#filter-1)">
            <g transform="translate(28.000000, 272.000000)">
                <path d="M24,1.78474679 L24,3.09504839 L0,3.09504839 L0,1.78474679 C0,0.803136055 0.81,0 1.8,0 L22.2,0 C23.19,0 24,0.803136055 24,1.78474679 Z M0,4.67306201 L0,13.7708088 C0,14.7524195 0.81,15.5555556 1.8,15.5555556 L22.2,15.5555556 C23.19,15.5555556 24,14.7524195 24,13.7708088 L24,4.67306201 L0,4.67306201 Z M21.705,13.1208635 C21.561,13.2636432 21.363,13.3528806 21.144,13.3528806 L16.539,13.3528806 C16.1025,13.3528806 15.744,12.9974185 15.744,12.5646174 C15.744,12.3474732 15.834,12.1496638 15.978,12.006884 C16.122,11.8641043 16.32,11.7748669 16.539,11.7748669 L21.144,11.7748669 C21.582,11.7748669 21.939,12.130329 21.939,12.5646174 C21.939,12.7817616 21.849,12.9780837 21.705,13.1208635 L21.705,13.1208635 Z" id="形状" fill="#666666" fill-rule="nonzero"></path>
            </g>
        </g>
    </g>
</svg>