<?xml version="1.0" encoding="UTF-8"?>
<svg width="28px" height="25px" viewBox="0 0 28 25" version="1.1" xmlns="http://www.w3.org/2000/svg" xmlns:xlink="http://www.w3.org/1999/xlink">
    <title>编组</title>
    <defs>
        <filter id="filter-1">
            <feColorMatrix in="SourceGraphic" type="matrix" values="0 0 0 0 0.184314 0 0 0 0 0.709804 0 0 0 0 0.396078 0 0 0 1.000000 0"></feColorMatrix>
        </filter>
    </defs>
    <g id="注册流程" stroke="none" stroke-width="1" fill="none" fill-rule="evenodd">
        <g id="编组" transform="translate(-84.000000, -231.000000)" filter="url(#filter-1)">
            <g transform="translate(84.000000, 231.000000)">
                <path d="M25.5652215,24.5 L2.43484126,24.5 C1.09013706,24.5 0,23.4031107 0,22.0499937 L0,5.5124905 C0,4.15934178 1.09010569,3.06248417 2.43484126,3.06248417 L7.6087809,3.06248417 L9.13044297,0.612509496 C9.13044297,0.274143183 10.0117189,0 10.3478793,0 L17.6522148,0 C17.9883125,0 18.8695884,0.274174836 18.8695884,0.612509496 L20.3913446,3.06248417 L25.5652529,3.06248417 C26.909957,3.06248417 28,4.15934178 28,5.5124905 L28,22.0500253 C28,23.4031107 26.909957,24.5 25.5652529,24.5 L25.5652215,24.5 Z M14.0000627,5.5124905 C9.62982117,5.5124905 6.08699335,9.07742808 6.08699335,13.475019 C6.08699335,17.8726732 9.62982117,21.4375158 14.0000627,21.4375158 C18.3701475,21.4375158 21.9128498,17.8727682 21.913038,13.4754305 L21.913038,13.4747025 C21.9128498,9.07723816 18.3701475,5.5124905 14.0000627,5.5124905 L14.0000627,5.5124905 Z M14.0000627,18.9875411 C10.974494,18.9875411 8.52180323,16.5196194 8.52180323,13.4750506 C8.52180323,10.4306085 10.974494,7.96252849 14.0000627,7.96252849 C17.0256315,7.96252849 19.4782595,10.4306085 19.4782595,13.4750506 C19.4782595,16.5196194 17.0256001,18.9875411 14.0000627,18.9875411 L14.0000627,18.9875411 Z" id="形状" fill="#000000" fill-rule="nonzero"></path>
            </g>
        </g>
    </g>
</svg>