<?xml version="1.0" encoding="UTF-8"?>
<svg width="18px" height="15px" viewBox="0 0 18 15" version="1.1" xmlns="http://www.w3.org/2000/svg" xmlns:xlink="http://www.w3.org/1999/xlink">
    <title>编组备份</title>
    <defs>
        <filter id="filter-1">
            <feColorMatrix in="SourceGraphic" type="matrix" values="0 0 0 0 0.184314 0 0 0 0 0.709804 0 0 0 0 0.396078 0 0 0 1.000000 0"></feColorMatrix>
        </filter>
    </defs>
    <g id="注册流程" stroke="none" stroke-width="1" fill="none" fill-rule="evenodd">
        <g id="编组备份" transform="translate(-32.000000, -547.000000)" filter="url(#filter-1)">
            <g transform="translate(32.000000, 547.000000)">
                <path d="M17.3828571,9.00146271 C16.3542857,8.50414432 16.0457143,8.10628962 16.0457143,7.31058021 C16.0457143,6.56460265 16.3542857,6.16674793 17.3828571,5.61969771 C17.9485714,5.27157484 18,4.97318382 18,4.47586543 L18,1.64115065 C18,0.745977564 17.2285714,0 16.3028571,0 L1.69714285,0 C0.771428563,0 0,0.745977564 0,1.64115065 L0,4.47586543 C0,4.92345197 0.0514285814,5.32130667 0.617142864,5.61969771 C1.02857143,5.81862506 1.95428571,6.31594345 1.95428571,7.31058021 C1.95428571,8.40468064 1.28571429,8.75280351 0.668571423,8.95173086 L0.617142864,8.95173086 C0.0514285814,9.29985373 0,9.84690395 0,10.0955631 L0,12.9302779 C0,13.825451 0.771428563,14.5714286 1.69714285,14.5714286 L16.3028571,14.5714286 C17.2285714,14.5714286 18,13.825451 18,12.9302779 L18,10.0955631 C18,9.54851292 17.7942857,9.34958558 17.3828571,9.00146271 Z M11.7257143,8.00682595 C12.0342857,8.00682595 12.2914286,8.25548514 12.2914286,8.55387616 C12.2914286,8.85226719 12.0342857,9.10092638 11.7257143,9.10092638 L9.56571427,9.10092638 L9.56571427,11.1896636 C9.56571427,11.4880546 9.30857141,11.7367138 8.99999999,11.7367138 C8.69142857,11.7367138 8.43428571,11.4880546 8.43428571,11.1896636 L8.43428571,9.10092638 L6.27428571,9.10092638 C5.96571429,9.10092638 5.70857143,8.85226719 5.70857143,8.55387616 C5.70857143,8.25548514 5.96571429,8.00682595 6.27428571,8.00682595 L8.43428571,8.00682595 L8.43428571,6.71379815 L6.11999999,6.71379815 C5.81142857,6.71379815 5.55428571,6.46513895 5.55428571,6.16674793 C5.55428571,5.86835691 5.81142857,5.61969771 6.11999999,5.61969771 L7.81714286,5.61969771 L6.01714285,3.87908337 C5.81142857,3.68015602 5.81142857,3.33203315 6.01714285,3.1331058 C6.22285713,2.93417845 6.58285714,2.93417845 6.78857142,3.1331058 L8.99999999,5.27157484 L11.2114286,3.1331058 C11.4171428,2.93417845 11.7771428,2.93417845 11.9828571,3.1331058 C12.1885714,3.33203315 12.1885714,3.68015602 11.9828571,3.87908337 L10.1828571,5.61969771 L11.8285714,5.61969771 C12.1371428,5.61969771 12.3942857,5.86835691 12.3942857,6.16674793 C12.3942857,6.46513895 12.1371428,6.71379815 11.8285714,6.71379815 L9.51428571,6.71379815 L9.51428571,8.00682595 L11.7257143,8.00682595 L11.7257143,8.00682595 Z" id="形状" fill="#000000" fill-rule="nonzero"></path>
            </g>
        </g>
    </g>
</svg>