<?xml version="1.0" standalone="no"?><!DOCTYPE svg PUBLIC "-//W3C//DTD SVG 1.1//EN" "http://www.w3.org/Graphics/SVG/1.1/DTD/svg11.dtd"><svg t="1621921168959" class="icon" viewBox="0 0 1593 1024" version="1.1" xmlns="http://www.w3.org/2000/svg" p-id="6054" xmlns:xlink="http://www.w3.org/1999/xlink" width="311.1328125" height="200"><defs><style type="text/css">@font-face { font-weight: 400; font-style: normal; font-family: Circular-Loom; src: url("https://cdn.loom.com/assets/fonts/circular/CircularXXWeb-Book-cd7d2bcec649b1243839a15d5eb8f0a3.woff2") format("woff2"); }
@font-face { font-weight: 500; font-style: normal; font-family: Circular-Loom; src: url("https://cdn.loom.com/assets/fonts/circular/CircularXXWeb-Medium-d74eac43c78bd5852478998ce63dceb3.woff2") format("woff2"); }
@font-face { font-weight: 700; font-style: normal; font-family: Circular-Loom; src: url("https://cdn.loom.com/assets/fonts/circular/CircularXXWeb-Bold-83b8ceaf77f49c7cffa44107561909e4.woff2") format("woff2"); }
@font-face { font-weight: 900; font-style: normal; font-family: Circular-Loom; src: url("https://cdn.loom.com/assets/fonts/circular/CircularXXWeb-Black-bf067ecb8aa777ceb6df7d72226febca.woff2") format("woff2"); }
</style></defs><path d="M709.924978 149.589333a687.047111 687.047111 0 0 1 200.704 0c46.791111 9.244444 93.582222 16.64 137.557333 28.643556a97.763556 97.763556 0 0 1 69.233778 64.256c19.029333 52.992 38.968889 105.528889 59.875555 157.582222 3.754667 8.817778 14.990222 21.731556 21.532445 20.821333 37.091556-6.200889 72.419556 18.005333 79.530667 54.528 2.360889 9.386667 2.360889 19.228444 0 28.643556l-53.333334 14.336c3.299556 18.346667 5.489778 36.864 6.542222 55.466667v256.028444a72.504889 72.504889 0 0 1-15.928888 42.524445 443.164444 443.164444 0 0 1-149.674667 2.759111c-34.616889-21.703111-13.084444-58.225778-24.32-87.808H586.902756c-8.903111 31.431111-14.051556 84.110222-24.32 87.808-50.773333 8.817778-102.684444 8.817778-153.457778 0a82.090667 82.090667 0 0 1-16.839111-48.981334c-2.816-36.977778-2.816-72.106667-2.816-108.145777 0-67.015111 0-134.030222 2.816-201.500445l-49.607111-12.942222a52.508444 52.508444 0 0 1 0-22.641778c14.051556-36.977778 32.768-65.621333 80.952888-61.468444 5.603556 0 16.355556-11.093333 19.626667-19.427556A1234.488889 1234.488889 0 0 0 490.077867 273.92C508.054756 210.602667 564.061867 165.034667 630.394311 159.744c25.742222-4.608 52.423111-7.850667 78.136889-12.003556l1.422222 1.848889zM503.133867 435.2a1495.608889 1495.608889 0 0 0 611.953777 0c-17.322667-51.285333-34.616889-97.052444-46.791111-143.274667a77.454222 77.454222 0 0 0-77.653333-61.44c-96.853333-4.181333-194.161778-7.395556-290.986667-8.334222a418.702222 418.702222 0 0 0-93.582222 14.336c-14.051556 2.844444-26.368 11.178667-34.133333 23.096889C545.743644 315.505778 526.060089 373.276444 503.162311 435.2z m39.793777 218.168889a231.054222 231.054222 0 0 0 50.062223-2.787556 46.734222 46.734222 0 0 0 30.407111-22.641777c2.332444-6.940444-8.419556-24.035556-17.777778-28.216889a1101.198222 1101.198222 0 0 0-116.963556-46.193778c-19.626667-6.485333-42.097778-5.091556-46.791111 22.186667-9.358222 40.192 0 62.378667 30.435556 68.835555 23.836444 4.636444 46.762667 5.575111 72.96 7.879111l-2.332445 0.910222z m539.392 0c24.661333-1.763556 49.180444-4.835556 73.472-9.272889 35.072-7.850667 27.591111-36.039111 26.652445-60.529778-0.938667-24.490667-14.023111-36.067556-33.223111-30.520889a1022.008889 1022.008889 0 0 0-140.344889 52.707556c-20.565333 9.671111-13.084444 36.494222 10.296889 41.585778 20.935111 3.100444 42.012444 4.949333 63.146666 5.546666v0.455111z" fill="#E1E5F0" p-id="6055"></path><path d="M0.122311 824.888889h28.444445v170.666667h170.666666v28.444444H0.122311v-199.111111zM199.233422 0v28.444444L28.566756 28.416V199.111111H0.122311V0h199.111111zM1593.0112 199.111111h-28.444444V28.444444h-170.666667V0h199.111111v199.111111z m-199.111111 824.888889v-28.444444l170.666667 0.028444V824.888889h28.444444v199.111111h-199.111111z" fill="#E1E5F0" p-id="6056"></path></svg>