<?xml version="1.0" standalone="no"?><!DOCTYPE svg PUBLIC "-//W3C//DTD SVG 1.1//EN" "http://www.w3.org/Graphics/SVG/1.1/DTD/svg11.dtd"><svg t="1585225919189" class="icon" viewBox="0 0 1365 1024" version="1.1" xmlns="http://www.w3.org/2000/svg" p-id="5310" xmlns:xlink="http://www.w3.org/1999/xlink" width="266.6015625" height="200"><defs><style type="text/css"></style></defs><path d="M378.733714 713.045333a58.514286 58.514286 0 1 1-116.053333-15.11619 58.514286 58.514286 0 0 1 116.053333 15.11619" fill="#FE8431" p-id="5311"></path><path d="M1150.780952 211.968c26.38019 0 48.128 19.992381 50.907429 45.641143l0.292571 5.558857v260.681143a51.2 51.2 0 0 1-102.107428 5.607619l-0.292572-5.607619V263.168c0-28.281905 22.918095-51.2 51.2-51.2z" fill="#219E61" p-id="5312"></path><path d="M1169.261714 147.553524A193.682286 193.682286 0 0 1 1362.651429 331.580952l0.243809 9.654858v344.112761a193.633524 193.633524 0 0 1-193.633524 193.633524 51.2 51.2 0 0 1-5.607619-102.058666l5.607619-0.341334c47.981714 0 87.28381-37.059048 90.940953-84.114285l0.292571-7.119239V341.23581c0-47.981714-37.059048-87.332571-84.114286-90.989715l-7.119238-0.292571H1150.780952a51.2 51.2 0 0 1-5.558857-102.058667l5.558857-0.341333h18.480762zM961.389714 332.458667a51.2 51.2 0 0 1 5.558857 102.107428l-5.558857 0.292572H280.380952a51.2 51.2 0 0 1-5.558857-102.107429l5.558857-0.292571h681.008762z" fill="#219E61" p-id="5313"></path><path d="M985.136762 46.32381a216.84419 216.84419 0 0 1 216.84419 216.84419 51.2 51.2 0 0 1-102.107428 5.607619l-0.292572-5.558857c0-60.611048-47.055238-110.201905-106.642285-114.249143l-7.801905-0.243809H263.216762c-60.611048 0-110.201905 47.055238-114.249143 106.642285l-0.243809 7.801905v500.199619c0 60.611048 47.055238 110.201905 106.642285 114.200381l7.801905 0.292571h721.968762c60.562286 0 110.153143-47.104 114.200381-106.642285l0.243809-7.801905v-239.567238a51.2 51.2 0 0 1 102.107429-5.558857l0.292571 5.558857v239.518476a216.84419 216.84419 0 0 1-206.652952 216.649143l-10.24 0.243809H263.216762a216.84419 216.84419 0 0 1-216.600381-206.652952l-0.24381-10.24V263.216762A216.892952 216.892952 0 0 1 252.976762 46.567619l10.24-0.243809h721.92z" fill="#219E61" p-id="5314"></path></svg>