<?xml version="1.0" standalone="no"?><!DOCTYPE svg PUBLIC "-//W3C//DTD SVG 1.1//EN" "http://www.w3.org/Graphics/SVG/1.1/DTD/svg11.dtd"><svg t="1586402064542" class="icon" viewBox="0 0 1024 1024" version="1.1" xmlns="http://www.w3.org/2000/svg" p-id="5183" xmlns:xlink="http://www.w3.org/1999/xlink" width="200" height="200"><defs><style type="text/css"></style></defs><path d="M662.741333 500.565333a51.2 51.2 0 1 1-102.4 0 51.2 51.2 0 0 1 102.4 0" fill="#FE8431" p-id="5184"></path><path d="M626.858667 42.496a181.077333 181.077333 0 0 1 180.906666 172.074667l0.213334 9.045333-0.042667 505.002667h121.472c21.973333 0 40.106667 16.554667 42.538667 37.845333l0.298666 4.992v107.776a124.970667 124.970667 0 0 1-249.728 7.338667l-0.213333-7.338667V223.573333c0-50.432-39.082667-91.733333-88.618667-95.232l-6.826666-0.213333H244.949333c-50.432 0-91.733333 39.082667-95.232 88.618667l-0.213333 6.826666v593.066667c0 53.888 41.856 98.005333 94.805333 101.589333l6.997334 0.256h313.301333a42.837333 42.837333 0 0 1 4.992 85.333334l-4.992 0.341333H251.306667A187.477333 187.477333 0 0 1 64 825.728l-0.213333-9.088v-593.066667A181.077333 181.077333 0 0 1 235.946667 42.666667L244.906667 42.496h381.909333z m259.712 771.797333h-78.634667v64.938667c0 20.138667 15.189333 36.736 34.773333 39.04l4.565334 0.256a39.296 39.296 0 0 0 39.04-34.730667l0.256-4.565333v-64.938667z" fill="#219E61" p-id="5185"></path><path d="M611.541333 299.861333a42.837333 42.837333 0 0 1 4.992 85.333334l-4.992 0.298666h-358.4a42.837333 42.837333 0 0 1-4.992-85.333333l4.992-0.298667h358.4zM470.058667 457.728a42.837333 42.837333 0 0 1 4.992 85.333333l-4.992 0.341334H253.141333a42.837333 42.837333 0 0 1-4.992-85.376l4.992-0.298667h216.917334z" fill="#219E61" p-id="5186"></path></svg>