<?xml version="1.0" encoding="UTF-8"?>
<svg width="25px" height="24px" viewBox="0 0 25 24" version="1.1" xmlns="http://www.w3.org/2000/svg" xmlns:xlink="http://www.w3.org/1999/xlink">
    <!-- Generator: Sketch 61 (89581) - https://sketch.com -->
    <title>编组 13</title>
    <desc>Created with Sketch.</desc>
    <g id="规范" stroke="none" stroke-width="1" fill="none" fill-rule="evenodd">
        <g id="画板" transform="translate(-41.000000, -2544.000000)">
            <g id="编组-13" transform="translate(42.811490, 2545.831930)">
                <path d="M18.50292,9 C18.50292,11.7069 16.30872,13.9017 13.60152,13.9017 C10.89462,13.9017 8.70012,11.7069 8.70012,9 C8.70012,6.2934 10.89462,4.0986 13.60152,4.0986 C16.30872,4.0986 18.50292,6.2934 18.50292,9 Z" id="Stroke-9" stroke="#219E61" stroke-width="2.1" stroke-linecap="round" stroke-linejoin="round"></path>
                <line x1="18.17625" y1="14.20401" x2="21.57675" y2="17.60481" id="Stroke-11" stroke="#219E61" stroke-width="2.1" stroke-linecap="round" stroke-linejoin="round"></line>
                <path d="M3.79266,14.00304 C3.79266,13.34004 4.32996,12.80304 4.99266,12.80304 C5.65536,12.80304 6.19266,13.34004 6.19266,14.00304 C6.19266,14.66574 5.65536,15.20304 4.99266,15.20304 C4.32996,15.20304 3.79266,14.66574 3.79266,14.00304" id="Fill-13" fill="#FE8431"></path>
                <path d="M17.0697,20.4 L3.2013,20.4 C1.4406,20.4 0,18.9594 0,17.1984 L0,3.2013 C0,1.4406 1.4406,-1.82964754e-13 3.2013,-1.82964754e-13 L17.7987,-1.82964754e-13 C19.5594,-1.82964754e-13 21,1.4406 21,3.2013" id="Stroke-15" stroke="#219E61" stroke-width="2.1" stroke-linecap="round" stroke-linejoin="round"></path>
                <line x1="4.99266" y1="10.43262" x2="4.99266" y2="4.58262" id="Stroke-17" stroke="#219E61" stroke-width="1.8" stroke-linecap="round" stroke-linejoin="round"></line>
            </g>
        </g>
    </g>
</svg>