<?xml version="1.0" encoding="UTF-8"?>
<svg width="24px" height="22px" viewBox="0 0 24 22" version="1.1" xmlns="http://www.w3.org/2000/svg" xmlns:xlink="http://www.w3.org/1999/xlink">
    <!-- Generator: Sketch 61 (89581) - https://sketch.com -->
    <title>编组 11</title>
    <desc>Created with Sketch.</desc>
    <g id="规范" stroke="none" stroke-width="1" fill="none" fill-rule="evenodd">
        <g id="画板" transform="translate(-141.000000, -2546.000000)">
            <g id="编组-11" transform="translate(142.228130, 2547.505510)">
                <line x1="5.4" y1="6.12642" x2="12.3669" y2="6.12642" id="Stroke-25" stroke="#219E61" stroke-width="2.1" stroke-linecap="round" stroke-linejoin="round"></line>
                <line x1="5.1" y1="10.92642" x2="16.6668" y2="10.92642" id="Stroke-27" stroke="#219E61" stroke-width="1.8" stroke-linecap="round" stroke-linejoin="round"></line>
                <path d="M21.6,15.5307 L21.6,3.4884 C21.6,1.5699 20.1087,-1.4033219e-13 18.2859,-1.4033219e-13 L3.3141,-1.4033219e-13 C1.4916,-1.4033219e-13 1.24344979e-14,1.5699 1.24344979e-14,3.4884 L1.24344979e-14,12.9642 C1.24344979e-14,14.883 1.4916,16.4526 3.3141,16.4526 L17.7207,16.4526 L20.7798,19.512" id="Stroke-29" stroke="#219E61" stroke-width="1.995" stroke-linecap="round" stroke-linejoin="round"></path>
                <path d="M17.33994,6.12642 C17.33994,6.78912 16.80294,7.32642 16.13994,7.32642 C15.47724,7.32642 14.93994,6.78912 14.93994,6.12642 C14.93994,5.46372 15.47724,4.92642 16.13994,4.92642 C16.80294,4.92642 17.33994,5.46372 17.33994,6.12642" id="Fill-31" fill="#FE8431"></path>
            </g>
        </g>
    </g>
</svg>