<?xml version="1.0" encoding="UTF-8"?>
<svg width="27px" height="25px" viewBox="0 0 27 25" version="1.1" xmlns="http://www.w3.org/2000/svg" xmlns:xlink="http://www.w3.org/1999/xlink">
    <!-- Generator: Sketch 61 (89581) - https://sketch.com -->
    <title>编组 12</title>
    <desc>Created with Sketch.</desc>
    <g id="规范" stroke="none" stroke-width="1" fill="none" fill-rule="evenodd">
        <g id="画板" transform="translate(-91.000000, -2543.000000)">
            <g id="编组-12" transform="translate(92.736710, 2545.061350)">
                <path d="M19.2831,7.4778 C19.2831,11.6076 15.9354,14.9553 11.8053,14.9553 C7.6758,14.9553 4.3278,11.6076 4.3278,7.4778 C4.3278,3.3477 7.6758,-1.91846539e-13 11.8053,-1.91846539e-13 C15.9354,-1.91846539e-13 19.2831,3.3477 19.2831,7.4778 Z" id="Stroke-33" stroke="#1CA564" stroke-width="2.5227"></path>
                <polyline id="Stroke-35" stroke="#1CA564" stroke-width="2.0682" stroke-linecap="round" stroke-linejoin="round" points="19.16913 11.58522 24.16533 17.44482 19.86453 17.79582 18.66453 21.94122 13.22973 15.45252"></polyline>
                <polyline id="Stroke-37" stroke="#1CA564" stroke-width="2.0682" stroke-linecap="round" stroke-linejoin="round" points="4.9962 11.58522 -2.39808173e-14 17.44482 4.3011 17.79582 5.5008 21.94122 8.3349 18.55782"></polyline>
                <path d="M13.00536,7.4778 C13.00536,8.1405 12.46836,8.6778 11.80536,8.6778 C11.14266,8.6778 10.60536,8.1405 10.60536,7.4778 C10.60536,6.8148 11.14266,6.2778 11.80536,6.2778 C12.46836,6.2778 13.00536,6.8148 13.00536,7.4778" id="Fill-39" fill="#FE8431"></path>
            </g>
        </g>
    </g>
</svg>