<?xml version="1.0" encoding="UTF-8"?>
<svg width="21px" height="24px" viewBox="0 0 21 24" version="1.1" xmlns="http://www.w3.org/2000/svg" xmlns:xlink="http://www.w3.org/1999/xlink">
    <!-- Generator: Sketch 61 (89581) - https://sketch.com -->
    <title>编组 10</title>
    <desc>Created with Sketch.</desc>
    <g id="规范" stroke="none" stroke-width="1" fill="none" fill-rule="evenodd">
        <g id="画板" transform="translate(-193.000000, -2544.000000)">
            <g id="编组-10" transform="translate(194.261116, 2545.321300)">
                <path d="M14.1000036,5.1 C14.1000036,7.9167 11.8167036,10.2 9.00000358,10.2 C6.18330358,10.2 3.90000358,7.9167 3.90000358,5.1 C3.90000358,2.2833 6.18330358,-9.05941988e-14 9.00000358,-9.05941988e-14 C11.8167036,-9.05941988e-14 14.1000036,2.2833 14.1000036,5.1 Z" id="Stroke-19" stroke="#219E61" stroke-width="2.1" stroke-linecap="round" stroke-linejoin="round"></path>
                <path d="M17.4966936,16.3239 C16.2681936,12.8154 12.9279936,10.299 9.00009358,10.299 C4.01529358,10.299 -0.0224064192,14.3514 -5.32907052e-15,19.3413 C2.70909358,20.6715 5.75469358,21.4212 8.97639358,21.4212 C12.2169936,21.4212 15.2790936,20.6619 18.0000936,19.317" id="Stroke-21" stroke="#219E61" stroke-width="1.8" stroke-linecap="round" stroke-linejoin="round"></path>
                <path d="M14.3326236,16.3245 C14.3326236,16.9875 13.7953236,17.5245 13.1326236,17.5245 C12.4699236,17.5245 11.9326236,16.9875 11.9326236,16.3245 C11.9326236,15.6618 12.4699236,15.1245 13.1326236,15.1245 C13.7953236,15.1245 14.3326236,15.6618 14.3326236,16.3245" id="Fill-23" fill="#FE8431"></path>
            </g>
        </g>
    </g>
</svg>