<?xml version="1.0" standalone="no"?><!DOCTYPE svg PUBLIC "-//W3C//DTD SVG 1.1//EN" "http://www.w3.org/Graphics/SVG/1.1/DTD/svg11.dtd"><svg t="1616563738357" class="icon" viewBox="0 0 1024 1024" version="1.1" xmlns="http://www.w3.org/2000/svg" p-id="14422" xmlns:xlink="http://www.w3.org/1999/xlink" width="200" height="200"><defs><style type="text/css">@font-face { font-weight: 400; font-style: normal; font-family: Circular-Loom; src: url("https://cdn.loom.com/assets/fonts/circular/CircularXXWeb-Book-cd7d2bcec649b1243839a15d5eb8f0a3.woff2") format("woff2"); }
@font-face { font-weight: 500; font-style: normal; font-family: Circular-Loom; src: url("https://cdn.loom.com/assets/fonts/circular/CircularXXWeb-Medium-d74eac43c78bd5852478998ce63dceb3.woff2") format("woff2"); }
@font-face { font-weight: 700; font-style: normal; font-family: Circular-Loom; src: url("https://cdn.loom.com/assets/fonts/circular/CircularXXWeb-Bold-83b8ceaf77f49c7cffa44107561909e4.woff2") format("woff2"); }
@font-face { font-weight: 900; font-style: normal; font-family: Circular-Loom; src: url("https://cdn.loom.com/assets/fonts/circular/CircularXXWeb-Black-bf067ecb8aa777ceb6df7d72226febca.woff2") format("woff2"); }
</style></defs><path d="M722.01616 692a150.08 150.08 0 0 1 143.104 104.992h36.864V363.968l-106.944-69.184a44.992 44.992 0 0 1 48.896-75.584L992.00016 315.008v496.992a75.008 75.008 0 0 1-75.008 75.008h-51.84a150.08 150.08 0 0 1-286.272 0h-118.72a150.08 150.08 0 0 1-286.304 0h-66.88A75.008 75.008 0 0 1 32.00016 812V136.992A104.992 104.992 0 0 1 136.99216 32h487.52a104.992 104.992 0 0 1 104.96 104.992v360h82.528a44.992 44.992 0 0 1 0 90.016h-97.504a75.008 75.008 0 0 1-75.008-75.008V136.992a15.008 15.008 0 0 0-14.976-15.008H136.96016a15.008 15.008 0 0 0-15.008 15.04v659.968h51.872a150.08 150.08 0 0 1 286.272 0h118.72a150.08 150.08 0 0 1 143.168-104.992zM226.94416 256.992a44.992 44.992 0 1 1 90.016 0v285.024a44.992 44.992 0 0 1-89.984 0V256.96z m225.024-44.992c24.864 0 44.992 20.16 44.992 44.992v285.024a44.992 44.992 0 0 1-89.984 0V256.96c0-24.832 20.16-44.992 44.992-44.992zM316.99216 902.016a60 60 0 1 0 0-120 60 60 0 0 0 0 120z m404.992 0a60 60 0 1 0 0-120 60 60 0 0 0 0 120z" p-id="14423" fill="#219E61"></path></svg>