<?xml version="1.0" encoding="UTF-8"?>
<svg width="22px" height="18px" viewBox="0 0 22 18" version="1.1" xmlns="http://www.w3.org/2000/svg" xmlns:xlink="http://www.w3.org/1999/xlink">
    <title>2</title>
    <defs>
        <filter id="filter-1">
            <feColorMatrix in="SourceGraphic" type="matrix" values="0 0 0 0 0.341176 0 0 0 0 0.419608 0 0 0 0 0.584314 0 0 0 1.000000 0"></feColorMatrix>
        </filter>
    </defs>
    <g id="注册流程" stroke="none" stroke-width="1" fill="none" fill-rule="evenodd" opacity="0.8">
        <g id="2" transform="translate(-68.000000, -288.000000)" filter="url(#filter-1)">
            <g transform="translate(68.000000, 288.000000)">
                <path d="M4.01109936,13.3737182 C4.8047862,13.7576422 5.65000008,13.8540601 6.52036201,13.7825186 C6.62728507,13.7737798 6.71158079,13.7586617 6.74247356,13.9052402 C6.83995877,14.3670267 7.09088212,14.5774275 7.56204117,14.6321323 C7.95461996,14.6776614 8.34775566,14.6545619 8.74062758,14.6567174 C8.90156906,14.6575913 8.97806831,14.5777479 8.98278722,14.4171582 C8.98826819,14.2314299 8.98733026,14.0452938 8.98381308,13.8594199 C8.98014933,13.6653606 8.90763625,13.5978681 8.70762449,13.5965864 C8.4822009,13.5950716 8.25671867,13.5975185 8.03126578,13.595159 C7.95631998,13.5944017 7.87721217,13.6037521 7.8034974,13.5448819 C7.83635396,13.4884294 7.88893621,13.4852542 7.93040992,13.4643686 C8.42891525,13.2128372 8.78221859,12.8535567 8.78330305,12.2607467 C8.78734783,10.0723803 8.78585303,7.88398482 8.78412374,5.69558932 C8.78377201,5.27181653 8.60333935,4.93467423 8.26759274,4.67387979 C8.01124705,4.47457725 7.71202075,4.37746022 7.4047342,4.2971508 C6.66465543,4.10373238 5.91320439,4.11413152 5.16160679,4.19353795 C4.75891601,4.23612497 4.36604411,4.34160207 4.01622866,4.55144942 C3.55875741,4.82587638 3.27556369,5.20350837 3.27795194,5.77132545 C3.28687737,7.91675525 3.28321362,10.0622724 3.28034123,12.2077605 C3.27966705,12.7519538 3.52771802,13.1398684 4.01109936,13.3737182 Z M5.36179436,5.88737651 C5.36179436,5.81134909 5.36144263,5.7337778 5.37589248,5.65973117 C5.40634562,5.50348172 5.49708953,5.39113009 5.65290176,5.34117335 C5.90133374,5.26162129 6.15351742,5.25803837 6.40373731,5.3275117 C6.59255266,5.37997352 6.67107427,5.4821008 6.68060003,5.68073336 C6.68819132,5.83768194 6.6845862,5.99515482 6.6845862,6.15239468 C6.6848793,7.09123142 6.68470344,8.03009727 6.68470344,8.96893401 C6.68464481,10.0126361 6.6849379,11.0563092 6.6845862,12.1000113 C6.68441034,12.4974221 6.58068209,12.6165026 6.18106887,12.6633425 C5.96924514,12.6881897 5.75941449,12.6775867 5.56895778,12.5630795 C5.44491765,12.4884794 5.37990796,12.3765647 5.3666305,12.2350838 C5.36088573,12.1735627 5.3614133,12.1113135 5.3614133,12.0494137 C5.36120816,9.99544989 5.36114953,7.94139865 5.36179436,5.88737651 Z" id="形状" fill="#000000" fill-rule="nonzero"></path>
                <path d="M0.172919056,3.72776075 C0.758270053,3.72653731 1.34359175,3.7247313 1.92897205,3.72912981 C2.05579663,3.73009108 2.10286858,3.68441637 2.1192822,3.55869438 C2.18950908,3.02213303 2.44324616,2.61697385 2.97888732,2.42667227 C3.14662873,2.36707378 3.31961666,2.32789489 3.49530109,2.30106682 C5.27436249,2.02943628 7.06494273,1.88189647 8.86287977,1.81932677 C9.51450078,1.79663505 10.1670597,1.8116949 10.8192377,1.79305216 C11.3268291,1.77863316 11.8355636,1.80138315 12.3437706,1.81154924 C12.6599674,1.81787029 12.9763694,1.82302619 13.2926541,1.83243495 C14.3475228,1.86380719 15.3989036,1.9395142 16.448262,2.04595257 C17.1780236,2.11997007 17.9067007,2.2060471 18.6296038,2.3316817 C19.3545,2.45769498 19.7348858,2.84957119 19.8350382,3.57273473 C19.8523605,3.6977576 19.9078444,3.7293816 20.0226811,3.72869289 C20.6080321,3.72548866 21.1933538,3.72441089 21.7787341,3.7293816 C21.9152897,3.73052803 21.9566168,3.67742535 21.9441894,3.54969345 C21.9126224,3.226941 21.8773038,2.90509158 21.7969357,2.58982537 C21.5502623,1.62296629 20.977456,0.993249474 19.9689851,0.766885844 C19.0264619,0.555348994 18.0738266,0.422635991 17.1157397,0.317887099 C16.4153468,0.241306219 15.7130487,0.187737474 15.010223,0.13725642 C14.1829469,0.0778035559 13.3549966,0.0337600822 12.5263722,0.00803893767 C12.0087567,-0.00806954542 11.4901154,0.00500948802 10.971943,0.00500948802 C10.1040138,0.00305781239 9.2359381,-0.00591399737 8.36900544,0.0554031521 C7.80493353,0.0952811325 7.23916166,0.111680935 6.67523629,0.153102761 C5.81015019,0.216691969 4.94600199,0.293039828 4.08563479,0.404575832 C3.30100477,0.506295275 2.51951092,0.622899795 1.75378586,0.832484969 C1.05078432,1.02491301 0.59284411,1.47522255 0.313284843,2.12433947 C0.112393755,2.59075752 0.0494650898,3.08738262 0.00980860089,3.58791107 C-1.02492078e-05,3.71124444 0.074437284,3.72799377 0.172919056,3.72776075 Z" id="路径" fill="#000000" fill-rule="nonzero"></path>
                <path d="M21.7900478,14.2567141 C21.2097968,14.2659481 20.6294285,14.2754734 20.0492947,14.27358 C19.9125926,14.273143 19.8736103,14.3156135 19.8537967,14.4465497 C19.7911025,14.8606806 19.6408885,15.2291661 19.2447338,15.4473444 C19.0277222,15.5668327 18.7950884,15.6395976 18.5521374,15.6773492 C17.2154526,15.8849827 15.870854,16.0236381 14.5209211,16.1049379 C13.7841251,16.1492727 13.0458635,16.1794506 12.307983,16.1888594 C11.4209144,16.2002198 10.5336112,16.19486 9.64610296,16.1790719 C8.46605105,16.1580697 7.28893016,16.1039475 6.11368509,15.9988782 C5.2157131,15.9185979 4.32026177,15.8163832 3.43032073,15.6733002 C3.12661,15.6244795 2.8329233,15.534907 2.58765682,15.3307399 C2.29490805,15.0870443 2.19035908,14.75532 2.13622343,14.4001467 C2.12338564,14.3159631 2.10210655,14.2707836 2.0048558,14.2748034 C1.59715302,14.2918732 1.19018297,14.2383627 0.833333114,14.2586367 C0.575932259,14.2586367 0.369677432,14.2595979 0.163364003,14.2582289 C0.0649994652,14.257588 0.02546021,14.3029423 0.0321429067,14.3998554 C0.0645305015,14.8725945 0.12930572,15.3399156 0.303143622,15.7839332 C0.572737446,16.4726368 1.03856208,16.9528039 1.77500637,17.156068 C2.4473496,17.3416798 3.13261856,17.4540314 3.82146334,17.5476238 C5.18039449,17.7322743 6.54759107,17.8303526 7.91554967,17.9182939 C8.87299174,17.9798441 9.83228037,17.9889906 10.7907483,17.997642 C11.7829521,18.0066139 12.7757128,17.9914958 13.7667735,17.9260131 C14.3167179,17.8896598 14.8678641,17.8695315 15.4173982,17.8282844 C16.2584501,17.7650739 17.0984468,17.6877356 17.9351315,17.5795495 C18.7154529,17.4786456 19.4913779,17.3588952 20.2515047,17.1477661 C20.9386202,16.9568819 21.3810554,16.5055529 21.6588267,15.8768556 C21.8620626,15.4171082 21.9227931,14.9238912 21.9671392,14.4285186 C21.9793322,14.2914362 21.9151724,14.2546751 21.7900478,14.2567141 Z" id="路径" fill="#000000" fill-rule="nonzero"></path>
                <path d="M17.4821154,8.8815753 C17.9839327,7.49592452 18.4862484,6.11039028 18.9865416,4.72415691 C19.0698994,4.49327823 18.993576,4.38611162 18.7484854,4.38509208 C18.2352371,4.38308217 17.7219888,4.38334434 17.2086526,4.38523774 C17.0119529,4.38593684 16.9690137,4.41783342 16.9093091,4.60621248 C16.7204938,5.2017315 16.5320595,5.79739615 16.3472596,6.39419688 C16.2206988,6.80314287 16.1005276,7.2140405 15.9673134,7.65799988 C15.9457119,7.58395325 15.9346913,7.54792033 15.9245501,7.51165438 C15.65352,6.53754208 15.3438007,5.57508151 15.0382142,4.61142665 C14.9783631,4.42272716 14.9296791,4.38637382 14.7399551,4.38555821 C14.2171224,4.38325701 13.6942311,4.38252876 13.1713399,4.38579123 C12.9474697,4.38718945 12.8680395,4.50667776 12.9432198,4.71320436 C13.0150001,4.91043872 13.0870442,5.10752744 13.15859,5.30484918 C13.644492,6.64572825 14.1183183,7.99115149 14.6220115,9.3254182 C14.8270353,9.86830062 14.9532443,10.4062019 14.9287118,10.9923996 C14.8971742,11.7443137 14.9200947,12.4985873 14.921736,13.2518414 C14.9222636,13.5110046 14.9872733,13.5733121 15.2435604,13.5734869 C15.7280848,13.5737272 16.2126385,13.5737272 16.6971044,13.5734869 C16.9574655,13.5733121 16.9990272,13.5324729 16.9990858,13.2758148 C16.9993789,12.3128008 16.9994668,11.3497576 16.9988513,10.3867145 C16.9987927,10.2909082 17.0038633,10.1972576 17.0375406,10.1054421 C17.1869925,9.69798167 17.3343341,9.28970568 17.4821154,8.8815753 Z" id="路径" fill="#000000" fill-rule="nonzero"></path>
                <path d="M11.779259,4.38450953 C11.3090086,4.38413085 10.8388168,4.38423633 10.3685664,4.38450953 C10.0801262,4.38468431 10.0239095,4.44058338 10.0238215,4.72768158 C10.0235871,6.14400548 10.0237629,7.56032939 10.0237629,8.97665329 C10.0238215,10.4073088 10.0234112,11.8379352 10.0241439,13.2685907 C10.0242905,13.5105094 10.089095,13.5731082 10.3323391,13.5734286 C10.8169222,13.573953 11.3015638,13.5737454 11.7862348,13.5734869 C12.0686372,13.5734286 12.124209,13.5193938 12.1243556,13.2407431 C12.1248245,12.3489793 12.12459,11.4571864 12.12459,10.5654517 C12.1245021,8.61979048 12.1247366,6.67410014 12.1242676,4.72843894 C12.124209,4.4419816 12.0656475,4.38468428 11.779259,4.38450953 Z" id="路径" fill="#000000" fill-rule="nonzero"></path>
                <path d="M21.6893678,4.38465516 C21.204902,4.38378129 20.7204069,4.38407892 20.2359411,4.3845095 C19.9759023,4.38477167 19.923408,4.43650528 19.9233201,4.69327989 C19.9230856,6.12346934 19.9232321,7.55365876 19.9232321,8.9838482 C19.9232321,10.4188148 19.9230856,11.8537232 19.923408,13.2886899 C19.9234666,13.5223941 19.9741437,13.5728169 20.211731,13.5732538 C20.7057518,13.5741568 21.1998607,13.5738446 21.6939695,13.5734286 C21.9388256,13.5731956 21.9995267,13.5144127 21.9995267,13.2686489 C22.0001422,10.4082992 22.0001422,7.54789115 21.9996147,4.6875414 C21.9995267,4.44710836 21.9351033,4.38515035 21.6893678,4.38465516 Z" id="路径" fill="#000000" fill-rule="nonzero"></path>
                <path d="M0.228227096,13.5716808 C0.770287158,13.5749725 1.31234722,13.5729334 1.85443658,13.5728169 C1.98814903,13.5727586 2.05796556,13.5011297 2.07221025,13.3737765 C2.07859985,13.3171783 2.07698779,13.2595023 2.07698779,13.2023798 C2.07722226,12.25361 2.07716365,11.3048693 2.07716365,10.3561286 C2.07716365,9.38356021 2.07763262,8.41099176 2.07678262,7.43839421 C2.07663606,7.20233053 2.02721932,7.15487892 1.78837174,7.15461675 C1.28948538,7.15412156 0.790569715,7.15415068 0.291683356,7.15461675 C0.0432513854,7.15487892 0.000546646954,7.19787374 0.000546646954,7.44783209 C0.000356117032,8.58253411 0.000400083272,9.71720699 0.000488015753,10.8518799 C0.000488015753,11.6718691 -3.95791296e-05,12.4918875 0.00101561063,13.311935 C0.00125007815,13.4997606 0.0596943296,13.5706322 0.228227096,13.5716808 Z" id="路径" fill="#000000" fill-rule="nonzero"></path>
                <path d="M0.00177767304,6.23552968 C0.00356559528,6.39000227 0.0778079337,6.46882609 0.230249515,6.46972911 C0.762754495,6.47296246 1.29523017,6.47302073 1.82773515,6.46972911 C1.99931617,6.46865133 2.07440853,6.39335213 2.07543439,6.22224675 C2.07857057,5.69302597 2.07857057,5.16380519 2.07543439,4.63458442 C2.07446716,4.46260514 2.00031273,4.38745159 1.82873171,4.38637382 C1.30100427,4.38302396 0.773306135,4.38279091 0.245637326,4.38678162 C0.0691322058,4.38809244 0.00280356152,4.46015827 0.00122083416,4.63368139 C-0.00109465432,4.89587405 0.00060533544,5.15812498 0.000693239278,5.42034675 C0.000781114473,5.69203556 -0.00150507273,5.96381176 0.00177767304,6.23552968 Z" id="路径" fill="#000000" fill-rule="nonzero"></path>
            </g>
        </g>
    </g>
</svg>