<?xml version="1.0" encoding="UTF-8"?>
<svg width="74px" height="12px" viewBox="0 0 74 12" version="1.1" xmlns="http://www.w3.org/2000/svg" xmlns:xlink="http://www.w3.org/1999/xlink">
    <title>6</title>
    <defs>
        <filter id="filter-1">
            <feColorMatrix in="SourceGraphic" type="matrix" values="0 0 0 0 0.341176 0 0 0 0 0.419608 0 0 0 0 0.584314 0 0 0 1.000000 0"></feColorMatrix>
        </filter>
    </defs>
    <g id="注册流程" stroke="none" stroke-width="1" fill="none" fill-rule="evenodd" opacity="0.8">
        <g id="6" transform="translate(-112.000000, -376.000000)" filter="url(#filter-1)">
            <g transform="translate(112.000000, 376.000000)">
                <path d="M52.5553514,7.2607168 C52.78566,8.23893183 52.5142248,8.59311314 51.5683145,8.63527758 C51.2968793,8.64371047 50.8198115,8.71117358 50.7951356,8.82923401 C50.7046572,9.30990864 50.7457837,9.80744905 50.7704597,10.3049895 C50.7704597,10.3640197 50.9843177,10.4483486 51.1076973,10.4567814 C51.3380059,10.4736472 51.5765398,10.4399157 51.8068484,10.4567814 C52.1687619,10.4736472 52.6293791,10.3134223 52.6376044,10.9711876 C52.6458297,11.4771609 52.3497187,11.8988053 51.8397496,11.9494027 C51.395583,11.9915671 50.9431911,11.9747013 50.4990245,11.9747013 C49.2323272,11.9747013 47.9656299,11.9578356 46.7071579,11.9831342 C46.2383153,11.9915671 46.0244573,11.8397751 46.0244573,11.3506676 C46.0326827,7.80042164 46.0326827,4.25017569 46.0573586,0.699929726 C46.0573586,0.489107519 46.2958925,0.118060436 46.4357227,0.109627547 C46.7811856,0.0843288826 47.2500281,-0.151791989 47.4721114,0.421644413 C47.5296886,0.565003514 47.7353213,0.708362614 47.8833768,0.733661279 C48.1877132,0.77582572 48.5002748,0.742094167 48.8128365,0.708362614 C48.9526667,0.691496838 49.1418488,0.640899508 49.2158766,0.531271961 C49.6764938,-0.109627547 50.1206604,-0.0758959944 50.6964319,0.497540408 C50.9102899,0.708362614 51.3626818,0.691496838 51.71637,0.733661279 C52.0782835,0.77582572 52.5800273,0.497540408 52.6622804,1.1468728 C52.7280828,1.64441321 52.3085921,2.07449051 51.7739472,2.11665495 C50.6388547,2.21784961 50.5895029,2.27687983 50.671756,3.4490513 C50.6964319,3.76106817 50.8033609,3.92972593 51.1323732,3.91286015 C51.4202589,3.89599438 51.71637,3.92129304 52.0042558,3.91286015 C52.3003668,3.90442727 52.6129285,3.86226283 52.6458297,4.30077301 C52.678731,4.72241743 52.6211538,5.12719606 52.1605366,5.26212228 C51.8479749,5.35488405 51.5107373,5.39704849 51.1899503,5.41391427 C50.8527127,5.42234715 50.7211078,5.55727337 50.6882066,5.91145467 C50.5812776,7.20168658 50.5895029,7.22698524 51.8562002,7.22698524 C52.0947341,7.21855235 52.3085921,7.24385102 52.5553514,7.2607168 L52.5553514,7.2607168 Z M49.2652284,10.4483486 L49.2652284,9.92550949 C49.2487778,8.46661982 49.5695648,8.61841181 47.9574046,8.64371047 C47.7928984,8.64371047 47.4967874,8.8376669 47.4967874,8.94729445 C47.4967874,9.44483486 47.5872657,9.93394238 47.6448429,10.4314828 C47.6448429,10.4399157 47.7188707,10.4483486 47.7517719,10.4483486 L49.2652284,10.4483486 L49.2652284,10.4483486 Z M48.3604446,5.44764582 C47.488562,5.44764582 47.488562,5.44764582 47.4803367,6.27406887 C47.4721114,7.23541813 47.488562,7.27758257 48.1877132,7.25228391 C49.5119876,7.19325369 49.1912007,7.39564301 49.281679,6.07167955 C49.3392562,5.22839072 48.7881606,5.45607871 48.3604446,5.44764582 L48.3604446,5.44764582 Z M49.2241019,2.10822207 C48.7388088,2.10822207 48.2946422,2.0829234 47.8587009,2.12508784 C47.727096,2.14195362 47.5296886,2.32747716 47.5050127,2.46240337 C47.4556608,2.79128602 47.4392102,3.14546732 47.5050127,3.47434996 C47.5379139,3.64300773 47.7764478,3.88756149 47.9245033,3.88756149 C49.495537,3.8791286 49.2570031,4.01405481 49.2652284,2.5888967 C49.2652284,2.47083626 49.2487778,2.36120871 49.2241019,2.10822207 Z M72.5181722,11.848208 L72.5181722,11.1061138 C72.5181722,8.68587491 72.5263975,6.27406887 72.5099469,3.85382994 C72.5099469,3.67673928 72.4112432,3.49964863 72.3536661,3.33099086 C72.1973852,3.42375264 72.0164285,3.49121574 71.8930489,3.61770907 C70.9224626,4.60435699 69.9765523,5.59943781 69.005966,6.57765285 C68.7180802,6.86437105 68.3972933,6.78847505 68.1258581,6.51862263 C67.1470465,5.5319747 66.1764603,4.53689389 65.1976487,3.55024596 C65.0824944,3.43218552 64.9015376,3.38158819 64.6383278,3.23822909 L64.6383278,4.14054814 C64.6383278,6.51862263 64.6136519,8.89669712 64.6547784,11.2663387 C64.6630037,12.0084329 64.2435131,11.924104 63.7828958,11.9409698 C63.2811521,11.9578356 63.1084206,11.7807449 63.116646,11.2410401 C63.1330966,8.52565004 63.1084206,5.81026001 63.09197,3.09486999 C63.09197,2.49613493 63.0426182,1.88896697 63.116646,1.30709768 C63.1495472,1.03724526 63.4045317,0.657765285 63.626615,0.58186929 C63.9309514,0.480674631 64.4080192,0.514406184 64.6547784,0.708362614 C65.2634512,1.18903725 65.7898708,1.77933942 66.3409664,2.33591005 C66.9496392,2.943078 67.5583119,3.55867885 68.1587593,4.18271258 C68.4384198,4.47786367 68.6522778,4.528461 68.9730648,4.19114547 C69.9518763,3.14546732 70.9635891,2.12508784 71.9917526,1.13000703 C72.2878636,0.843288826 72.6826784,0.607167955 73.0692678,0.505973296 C73.5956875,0.362614195 73.9822769,0.716795502 73.9905022,1.28179902 C73.9987275,4.41883345 74.0069528,7.55586788 73.9905022,10.6844694 C73.9740516,11.3759663 73.4640826,11.7807449 72.5181722,11.848208 L72.5181722,11.848208 Z M13.8552804,11.3591005 C13.3946632,10.035137 13.5920706,9.60505973 14.6613605,9.056922 C16.3310979,8.20520028 18.0666378,7.87631764 19.8515294,8.45818693 C20.723412,8.74490513 21.5130415,9.29304287 22.3355723,9.73155306 C22.5247543,9.83274772 22.6974858,9.96767393 22.8866679,10.0520028 C23.7338745,10.4567814 24.2356183,10.1531975 24.2602942,9.20871398 C24.2767448,8.6943078 24.2685195,8.17146873 24.2602942,7.64862966 C24.2520689,6.96556571 24.1204639,6.81377372 23.4295381,6.79690794 C22.5741062,6.77160928 21.7186742,6.77160928 20.8632422,6.77160928 C18.6999864,6.77160928 16.5449559,6.76317639 14.3817001,6.78847505 C13.9539841,6.79690794 13.8306045,6.6113844 13.8306045,6.22347154 C13.8306045,5.1018974 13.8388298,3.98875615 13.8306045,2.86718201 C13.8306045,2.43710471 13.97866,2.2262825 14.4310519,2.31904427 C14.5626568,2.34434294 14.7024871,2.32747716 14.834092,2.31061138 C15.237132,2.26844694 15.4098635,2.43710471 15.4098635,2.85031623 C15.4016382,3.4490513 15.4427647,4.04778637 15.3934129,4.64652143 C15.3522863,5.17779339 15.5743696,5.30428672 16.0267615,5.29585383 C16.6847861,5.27898805 17.351036,5.28742094 18.0090606,5.28742094 C19.8597548,5.28742094 21.7104489,5.32958538 23.5529177,5.27898805 C24.9183188,5.23682361 25.995834,6.13070977 25.9218063,7.66549543 C25.888905,8.38229093 25.9300316,9.09908644 25.9053556,9.82431483 C25.8477785,11.6711174 24.0875627,12.3120169 22.7715135,11.7976107 C21.9736587,11.4855938 21.2416064,10.9711876 20.509554,10.4989459 C18.6588599,9.30990864 16.8657429,9.68095573 15.0726259,10.642305 C14.7107124,10.8784259 14.3076723,11.1061138 13.8552804,11.3591005 L13.8552804,11.3591005 Z M6.03301315,4.08995081 C7.70275054,4.08995081 9.38071323,4.07308503 11.0504506,4.0983837 C11.9387838,4.10681658 12.1197406,4.04778637 12.0621634,5.11033029 C12.0045863,6.24033732 11.4699413,6.86437105 10.3595248,6.93183415 C10.1045403,6.94869993 9.62747245,7.09205903 9.62747245,7.13422347 C9.6850496,7.64862966 10.1209909,7.43780745 10.4088766,7.471539 C10.7543396,7.51370344 11.1162531,7.43780745 11.4534907,7.49683767 C11.6837993,7.53056922 11.889432,7.70765987 12.10329,7.81728742 C11.9141079,8.07870696 11.7496017,8.54251581 11.5357437,8.56781448 C10.6638612,8.6943078 9.76730267,8.71960647 8.87896948,8.73647224 C6.78151612,8.76177091 4.68406275,8.76177091 2.59483469,8.76177091 C1.87923295,8.76177091 1.16363122,8.75333802 0.44802948,8.70274069 C-0.168868569,8.66057625 0.110791879,8.14617006 0.0696653428,7.82572031 C0.0203134989,7.42937456 0.316424562,7.45467323 0.579634397,7.46310611 C0.990899763,7.471539 1.40216513,7.48840478 1.80520519,7.45467323 C1.9285848,7.44624034 2.03551379,7.2607168 2.14244279,7.15108925 C2.02728849,7.08362614 1.91213418,6.96556571 1.78052927,6.94869993 C0.374001714,6.74631061 -0.234671028,5.87772312 0.102566572,4.43569923 C0.135467801,4.28390724 0.505606631,4.11524947 0.719464621,4.11524947 C2.4879057,4.08995081 4.26457208,4.0983837 6.03301315,4.0983837 L6.03301315,4.08995081 L6.03301315,4.08995081 Z M3.85330671,6.96556571 C3.82863079,7.01616304 3.79572956,7.05832748 3.77105364,7.10892481 C3.90265855,7.21855235 4.03426347,7.42937456 4.1740937,7.42937456 C5.33386203,7.46310611 6.50185567,7.46310611 7.66984931,7.43780745 C7.79322892,7.43780745 7.90838322,7.19325369 8.13046652,6.95713282 C6.55943282,6.96556571 5.21048242,6.96556571 3.85330671,6.96556571 Z M1.84633172,5.3886156 L1.84633172,5.56570625 L10.2608211,5.56570625 L10.2608211,5.3886156 L1.84633172,5.3886156 Z M54.1757369,7.3281799 C54.1757369,6.13070977 54.2415394,4.92480675 54.1592863,3.7357695 C54.0605826,2.31904427 55.5493632,0.455375966 56.988792,0.480674631 C58.461122,0.514406184 59.9416773,0.413211525 61.4222326,0.396345748 C61.9980042,0.396345748 62.0967078,0.657765285 61.8828499,1.21433591 C61.5044857,2.21784961 60.6572791,2.03232607 59.9005508,2.05762474 C59.0862454,2.09135629 58.2637146,2.04919185 57.4576345,2.09978918 C56.4952736,2.1588194 55.7878971,2.89248067 55.7632212,3.90442727 C55.7138694,5.92832045 55.4671101,5.58257203 57.2520018,5.6078707 C58.4940232,5.62473647 59.74427,5.6078707 60.9862914,5.62473647 C61.1754734,5.62473647 61.4469086,5.71749824 61.512711,5.85242446 C61.5867388,5.99578356 61.5209363,6.27406887 61.4469086,6.45115952 C61.2083747,7.02459592 60.7395321,7.27758257 60.14731,7.28601546 C58.9052886,7.29444835 57.6550419,7.30288124 56.4130205,7.27758257 C55.944178,7.26914968 55.6891934,7.35347857 55.7138694,7.91848208 C55.7549959,8.97259311 55.7467706,10.035137 55.73032,11.0892481 C55.7220947,11.3506676 55.6398416,11.7891778 55.5082367,11.8229093 C55.1298725,11.924104 54.7103819,11.8988053 54.3073418,11.848208 C54.2415394,11.8397751 54.1675116,11.5024596 54.1592863,11.3169361 C54.151061,9.97610682 54.151061,8.64371047 54.151061,7.30288124 C54.1675116,7.3281799 54.1757369,7.3281799 54.1757369,7.3281799 L54.1757369,7.3281799 Z M0.102566572,2.43710471 L4.5195566,2.43710471 C4.67583744,2.43710471 4.84034359,2.46240337 4.98017381,2.41180604 C5.0788775,2.37807449 5.1940318,2.2262825 5.1940318,2.12508784 C5.1940318,2.03232607 5.06242689,1.88896697 4.97194851,1.86366831 C4.79099174,1.81307098 4.58535906,1.82993675 4.39617699,1.82993675 L0.143693109,1.82993675 C0.110791879,1.69501054 0.0778906501,1.62754743 0.0696653428,1.55165144 C0.00386288425,0.531271961 0.00386288425,0.539704849 1.00735038,0.539704849 C2.24937178,0.539704849 3.4996185,0.539704849 4.7416399,0.522839072 C4.90614605,0.522839072 5.11177873,0.396345748 5.22693303,0.269852424 C5.46546695,4.78783679e-15 6.56765813,-0.0337315531 6.83086796,0.210822207 C7.00359941,0.371047084 7.25858394,0.514406184 7.47244193,0.522839072 C8.79671641,0.548137737 10.1209909,0.522839072 11.4452654,0.548137737 C11.6673487,0.556570625 11.889432,0.742094167 12.1115153,0.843288826 C11.9634597,1.12157414 11.8729813,1.51791989 11.6426727,1.6528461 C11.3465617,1.82993675 10.9352963,1.82993675 10.5733828,1.83836964 C9.54521938,1.85523542 8.50883065,1.82993675 7.48066724,1.85523542 C7.28325986,1.86366831 6.92957165,2.0154603 6.91312103,2.13352073 C6.8719945,2.59732959 7.27503456,2.43710471 7.50534316,2.4455376 C8.82961764,2.46240337 10.1538921,2.4455376 11.4781666,2.47083626 C11.6920246,2.47083626 11.8976573,2.63106114 12.10329,2.71539002 C11.9634597,2.99367533 11.8812067,3.39845397 11.6591234,3.51651441 C11.3136605,3.69360506 10.8777192,3.72733661 10.4746791,3.7357695 C7.63694808,3.75263528 4.79099174,3.74420239 1.95326072,3.74420239 C1.55022066,3.74420239 1.13895529,3.70203795 0.735915236,3.74420239 C0.119017187,3.8116655 0.00386288425,3.48278285 0.0532147282,2.96837667 C0.0614400355,2.80815179 0.0778906501,2.67322558 0.102566572,2.43710471 L0.102566572,2.43710471 Z M6.11526622,9.1243851 L11.3054351,9.1243851 C11.9799103,9.1243851 12.1361912,9.29304287 12.0950646,9.97610682 C11.996361,11.5193254 11.5275184,11.9662684 10.0305125,11.9662684 L1.92035949,11.9662684 C0.480930709,11.9662684 -0.316924101,10.869993 0.119017187,9.44483486 C0.168369031,9.28460998 0.497381323,9.10751933 0.703014006,9.10751933 C2.51258162,9.08222066 4.32214923,9.09065355 6.12349153,9.09065355 C6.11526622,9.10751933 6.11526622,9.11595221 6.11526622,9.1243851 Z M10.1703427,10.6170063 L10.1703427,10.4820801 L1.85455703,10.4820801 L1.85455703,10.6170063 L10.1703427,10.6170063 L10.1703427,10.6170063 Z M44.330044,6.28250176 C43.499288,6.19817287 42.7919116,6.12227688 42.0763098,6.05481377 C40.9905693,5.962052 40.7355847,4.8826423 40.6533317,4.0224877 C40.6286557,3.76950105 40.6533317,3.50808152 40.6533317,3.24666198 C40.6533317,2.77442024 40.8425137,2.5130007 41.3524828,2.5130007 C42.0598592,2.52143359 42.1009858,2.53829937 42.1009858,3.28882642 L42.1009858,3.76950105 C42.1009858,4.56219255 42.2490413,4.70555165 43.0468961,4.70555165 C44.3711706,4.69711876 44.3711706,4.69711876 44.3629453,3.33942375 C44.3629453,2.11665495 44.3629453,2.12508784 43.1538251,2.11665495 C42.6849826,2.11665495 42.2161401,2.10822207 41.7555228,2.09135629 C41.1962019,2.07449051 40.982344,1.66127899 40.8671897,1.19747013 C40.7931619,0.919184821 40.8342884,0.699929726 41.2291032,0.708362614 C42.1750135,0.725228391 43.1209239,0.708362614 44.0668342,0.699929726 C44.4122971,0.699929726 44.7659853,0.708362614 45.1114482,0.683063949 C45.6214173,0.640899508 45.7530222,0.927617709 45.7530222,1.37456079 C45.7447969,2.70695713 45.7447969,4.03935348 45.7283463,5.37174982 C45.7036704,7.12579058 45.7036704,8.87983134 45.6214173,10.6254392 C45.5885161,11.392832 44.9058155,11.772312 44.0503836,11.9409698 C43.9599052,11.9578356 43.8529762,11.9494027 43.7624978,11.9494027 C43.0304455,11.9578356 42.668532,11.392832 43.0222202,10.718201 C43.1126986,10.5411103 43.4746121,10.4399157 43.7213713,10.4230499 C44.116186,10.3977512 44.3218187,10.1700632 44.330044,9.8411806 C44.3464946,8.65214336 44.330044,7.46310611 44.330044,6.28250176 L44.330044,6.28250176 Z M37.1658014,10.5073788 C37.7086716,10.5073788 38.1939648,10.490513 38.6710326,10.5158117 C38.86844,10.5242446 39.1481004,10.5917077 39.2221282,10.7350668 C39.296156,10.8615601 39.164551,11.1314125 39.082298,11.3169361 C38.8931159,11.772312 38.5394277,11.9578356 38.0705852,11.9578356 C35.8744281,11.9578356 33.6700457,11.9494027 31.4738887,11.9662684 C30.8898919,11.9747013 30.8981172,11.544624 30.865216,11.173577 C30.8240894,10.7519325 30.9968209,10.5073788 31.4656634,10.5158117 C32.4362496,10.5326774 33.4068359,10.5073788 34.3856475,10.5073788 C34.8873912,10.5073788 35.2328541,10.2796908 35.5207399,9.84961349 C36.112962,8.95572734 36.219891,7.92691497 36.4090731,6.90653549 C36.6229311,5.76809557 36.8532397,4.63808855 37.1246748,3.51651441 C37.264505,2.943078 37.7909247,2.85031623 38.2762178,2.83345046 C38.3749215,2.83345046 38.5805542,3.12860155 38.5723289,3.27196065 C38.4983011,4.01405481 38.3831468,4.75614898 38.2597672,5.48981026 C38.1446129,6.16444132 38.0294586,6.84750527 37.8731778,7.51370344 C37.6675451,8.39915671 37.4125606,9.27617709 37.1904773,10.1616304 C37.1740267,10.2290935 37.182252,10.3134223 37.1658014,10.5073788 L37.1658014,10.5073788 Z M28.9240434,2.07449051 C28.6197071,2.07449051 28.3318213,2.10822207 28.0603862,2.06605762 C27.8136269,2.02389318 27.5833183,1.90583275 27.3447844,1.81307098 C27.5175159,1.48418833 27.6162196,1.01194659 27.8876547,0.851721715 C28.2824695,0.615600843 28.7595373,0.624033732 29.1132255,0.168657765 C29.2859569,-0.0590302178 29.8781791,0.0590302178 30.3552469,0.00843288826 C30.3799228,0.295151089 30.412824,0.522839072 30.4210494,0.750527056 C30.4457253,1.80463809 30.4786265,2.86718201 30.4704012,3.92129304 C30.4621759,5.97891778 30.3881481,8.02810963 30.4210494,10.0857344 C30.4375,11.0723823 29.5573921,11.8229093 28.7101854,11.9325369 C28.4634262,11.9662684 28.2002164,11.9831342 27.9534572,11.9409698 C27.7395992,11.9072382 27.3941363,11.8144765 27.3694603,11.6879831 C27.3036579,11.3506676 27.3283338,10.9796205 27.4105869,10.6507379 C27.4352628,10.5495432 27.7807257,10.5073788 27.9781331,10.490513 C28.8746916,10.4230499 28.8911422,10.4314828 28.9075928,9.53759663 C28.9240434,8.62684469 28.9158181,7.70765987 28.9158181,6.68728039 C28.5210034,6.68728039 28.1590898,6.67884751 27.8054016,6.68728039 C27.3118832,6.69571328 27.2378554,6.45115952 27.4188122,6.037948 C27.6162196,5.58257203 27.9534572,5.31271961 28.4469756,5.30428672 C28.8417904,5.30428672 28.940494,5.12719606 28.9322687,4.75614898 C28.9158181,3.89599438 28.9240434,3.04427266 28.9240434,2.07449051 L28.9240434,2.07449051 Z M18.8644926,0.295151089 L23.0100475,0.295151089 C24.2931954,0.286718201 25.35426,0.986647927 25.2802323,2.5888967 C25.2555564,3.12860155 25.2555564,3.66830639 25.2802323,4.19957836 C25.3049082,4.63808855 25.0828249,4.75614898 24.7126861,4.74771609 C24.5564052,4.74771609 24.4001244,4.72241743 24.2520689,4.7392832 C23.8983807,4.78144765 23.7503251,4.62122277 23.7420998,4.26704146 C23.7338745,3.82853127 23.7174239,3.39002108 23.7009733,2.95151089 C23.6598467,1.99859452 23.4871153,1.81307098 22.5329796,1.80463809 C20.4684275,1.78777231 18.4121007,1.7962052 16.3475485,1.7962052 C15.9362832,1.7962052 15.5332431,1.81307098 15.1219777,1.80463809 C14.5626568,1.78777231 14.1678421,1.47575545 13.9622094,0.96978215 C13.7565767,0.463808855 13.8881816,0.286718201 14.4310519,0.286718201 L18.8644926,0.286718201 L18.8644926,0.295151089 Z M34.3527463,0 C34.9285178,0.177090654 35.6112183,-0.303583978 35.8497522,0.58186929 C36.7792119,0.58186929 37.7168969,0.565003514 38.6463567,0.590302178 C38.8519894,0.598735067 39.1810017,0.699929726 39.2221282,0.82642305 C39.2797053,1.02037948 39.189227,1.35769501 39.0411714,1.49262122 C38.7697363,1.73717498 38.4160481,2.0154603 38.0870358,2.02389318 C35.8744281,2.09135629 33.6535951,2.09135629 31.4327622,2.11665495 C31.0214968,2.12508784 30.8487653,1.86366831 30.8898919,1.51791989 C30.9310184,1.15530569 30.7500616,0.590302178 31.4080862,0.573436402 C32.1483639,0.565003514 32.8804162,0.565003514 33.6206939,0.598735067 C34.0072833,0.624033732 34.3691969,0.640899508 34.3527463,0 L34.3527463,0 Z" id="形状" fill="#F33E32" fill-rule="nonzero"></path>
                <path d="M33.9414809,8.63527758 C33.9826074,9.29304287 33.9003544,9.86647927 33.2094285,10.1531975 C32.9379934,10.2712579 32.7159101,10.2796908 32.6418823,9.90864371 C32.5020521,9.21714687 32.337546,8.52565004 32.2141664,7.82572031 C31.9838577,6.51862263 31.7782251,5.21152495 31.5643671,3.90442727 C31.5643671,3.88756149 31.5479165,3.86226283 31.5479165,3.84539705 C31.5725924,3.49964863 31.2600307,3.06957133 31.7453238,2.85031623 C32.0907867,2.69009136 32.7981632,3.018974 32.954444,3.44061841 C33.1354008,3.92972593 33.2916816,4.44413212 33.38216,4.9585383 C33.596018,6.1813071 33.7605241,7.41250878 33.9414809,8.63527758 L33.9414809,8.63527758 Z M40.126912,11.772312 C40.4559243,10.9880534 40.7767113,10.2037948 41.1139489,9.42796908 C41.4100599,8.73647224 41.7308469,8.05340829 42.0351833,7.36191145 C42.323069,6.71257906 42.9728683,6.30780042 43.6637941,6.40056219 C44.1326367,6.45959241 43.9845811,6.82220661 43.8776521,7.07519325 C43.4088096,8.16303584 42.9317418,9.25931131 42.4053221,10.3302881 C42.1750135,10.8109628 41.920029,11.3253689 41.5252142,11.6458187 C41.2126526,11.9072382 40.6862329,11.8903725 40.2585169,12 C40.2173904,11.924104 40.1680385,11.848208 40.126912,11.772312 L40.126912,11.772312 Z" id="形状" fill="#F33E32" fill-rule="nonzero"></path>
            </g>
        </g>
    </g>
</svg>