<?xml version="1.0" encoding="UTF-8"?>
<svg width="22px" height="22px" viewBox="0 0 22 22" version="1.1" xmlns="http://www.w3.org/2000/svg" xmlns:xlink="http://www.w3.org/1999/xlink">
    <title>7</title>
    <defs>
        <filter id="filter-1">
            <feColorMatrix in="SourceGraphic" type="matrix" values="0 0 0 0 0.341176 0 0 0 0 0.419608 0 0 0 0 0.584314 0 0 0 1.000000 0"></feColorMatrix>
        </filter>
    </defs>
    <g id="注册流程" stroke="none" stroke-width="1" fill="none" fill-rule="evenodd">
        <g id="7" transform="translate(-26.000000, -456.000000)" filter="url(#filter-1)">
            <g transform="translate(26.000000, 456.000000)">
                <path d="M11.0423958,18.5275869 C7.99470168,18.6930156 5.31409681,16.8475196 4.14666775,14.329567 C2.86185554,11.5645456 3.10515886,8.83175062 4.93847065,6.3954381 C6.68641283,4.07084362 9.11517745,3.14916983 11.9921323,3.49506605 C13.4199386,3.66693994 14.6791399,4.25775648 15.7782733,5.19446924 C16.3737261,5.70364565 16.3609207,5.93137857 15.6993064,6.31164956 C15.125196,6.64250682 14.5489513,6.96906724 13.9791094,7.30636976 C12.4019063,8.23663723 10.8140321,9.15186574 9.25390301,10.1122112 C8.41941535,10.6256844 8.25081042,11.4463823 8.71820888,12.2993065 C9.22402364,13.2209803 10.2015054,13.4336743 11.2387458,12.8299672 C14.3205877,11.0403302 17.3938926,9.22706058 20.4842715,7.45031416 C20.996489,7.15598011 21.0519793,6.85734921 20.8257498,6.35891489 C20.02541,4.60580111 18.8473098,3.16635722 17.2701068,2.08784852 C13.7806251,-0.292605 10.0606456,-0.67502441 6.24889372,1.13394836 C2.44781309,2.93862431 0.381869198,6.1054009 0.0382566296,10.2819366 C-0.245597225,13.7430473 1.06269162,16.6734973 3.54481222,19.0861771 C7.00441454,22.4484603 12.7882037,22.9769725 16.764292,20.2742554 C17.7993982,19.5695725 17.7993982,19.5695725 17.1569921,18.4953606 C16.4633642,17.3330634 15.7740048,17.118221 14.5702937,17.6982954 C13.4284756,18.2482918 12.2482411,18.6049302 11.0423958,18.5275869 Z" id="路径" fill="#000000" fill-rule="nonzero"></path>
                <path d="M21.9991985,13.7753531 C21.935846,12.9778489 21.443104,12.3307782 21.0184073,11.6610396 C20.8799702,11.4426017 20.6570631,11.5270918 20.4576199,11.6260071 C19.6786182,12.0175466 18.901963,12.4132076 18.1182685,12.7944435 C17.7850811,12.9572415 17.7264213,13.1530113 17.9188253,13.4394534 C18.3669859,14.1009491 18.8104537,14.7645056 19.2374968,15.436305 C19.4228617,15.7268686 19.6481152,15.7948728 19.9695707,15.6155889 C20.4388488,15.3559364 20.9245516,15.1127697 21.377405,14.8325098 C21.7786378,14.583161 22.0156232,14.2328361 21.9991985,13.7753531 Z" id="路径" fill="#000000" fill-rule="nonzero"></path>
            </g>
        </g>
    </g>
</svg>