<?xml version="1.0" encoding="UTF-8"?>
<svg width="21px" height="22px" viewBox="0 0 21 22" version="1.1" xmlns="http://www.w3.org/2000/svg" xmlns:xlink="http://www.w3.org/1999/xlink">
    <title>4</title>
    <defs>
        <filter id="filter-1">
            <feColorMatrix in="SourceGraphic" type="matrix" values="0 0 0 0 0.341176 0 0 0 0 0.419608 0 0 0 0 0.584314 0 0 0 1.000000 0"></feColorMatrix>
        </filter>
    </defs>
    <g id="注册流程" stroke="none" stroke-width="1" fill="none" fill-rule="evenodd" opacity="0.8">
        <g id="4" transform="translate(-152.000000, -286.000000)" filter="url(#filter-1)">
            <g transform="translate(152.000000, 286.000000)">
                <path d="M19.4753456,8.62712809 C19.1553282,9.24000614 18.8261674,9.84359817 18.5335801,10.4750483 C17.8844019,11.867953 17.2535104,13.2608576 16.6043322,14.6537623 C16.5586154,14.7559087 16.4671819,14.8394829 16.4123218,14.9416293 C16.1928812,15.3873588 16.0648743,16.1209552 15.7448569,16.2231016 C14.9585284,16.4645384 14.0899097,16.4552524 13.248721,16.4366803 C13.0749973,16.4366803 12.8647001,15.9816648 12.7549799,15.7030838 C11.8497877,13.37229 10.9720257,11.0229241 10.0759769,8.68284427 C9.79253293,7.94924781 9.48165887,7.22493738 9.18907151,6.50062695 L8.91477087,6.55634314 L8.91477087,9.08214361 C8.91477087,11.4593676 8.89648416,13.8458776 8.93305758,16.2231016 C8.94220094,16.8916958 8.686187,17.1052745 8.08272559,17.0217003 C7.6164145,16.9659841 7.05866986,17.0402723 6.72036573,16.7988355 C6.37291825,16.5481127 6.06204419,15.9909508 6.05290084,15.5637934 C5.99804071,12.165106 5.99804071,8.76641855 6.02547077,5.37701718 C6.03461413,4.07697282 6.87580276,3.46409476 8.11929901,3.76124776 C8.80505061,3.92839632 9.46337216,4.22554931 10.1582671,4.30912359 C11.4017634,4.45770009 11.7126374,5.33058702 11.959508,6.35205045 C12.1058017,6.93707041 12.3892457,7.48494625 12.6086862,8.04210812 C13.2030042,9.60216136 13.7881789,11.1715006 14.382497,12.7315539 C14.4465005,12.8894164 14.5653641,13.0287069 14.7573746,13.3444319 C15.1322521,12.5922634 15.4614129,11.9886714 15.7540002,11.3572212 C16.4031784,9.96431657 17.0340699,8.56212587 17.6649614,7.15993516 C17.8569718,6.73277773 18.1221291,6.56562917 18.5792968,6.7234917 C19.0273212,6.88135423 19.484489,6.9927866 19.9325133,7.15064913 C20.6548384,7.40137197 20.9839991,7.8563875 20.9931425,8.65498618 C21.0022858,10.8464895 21.0022858,13.0472789 20.9931425,15.2387823 C20.9839991,18.3310307 18.789594,20.6525384 16.0191575,20.9032613 C13.7150321,21.107554 11.4109067,21.3675628 9.10678132,21.5997136 C7.77185153,21.7297181 6.44606509,21.8968666 5.1111353,21.9897269 C2.82529661,22.1383034 0.822901927,20.6618245 0.182867095,18.433177 C-0.0182867095,17.7460107 0.0182867095,16.9845561 0.0182867095,16.2509597 C0.00914335474,12.3693986 -0.036573419,8.48783762 0.0640034832,4.60627659 C0.109720257,2.98122114 1.0697725,1.73689296 2.41384565,0.84543397 C4.12365299,-0.296747864 5.89746381,-0.129599303 7.76270817,0.455420661 C11.4657668,1.60688853 15.1962556,2.65621005 18.9084576,3.76124776 C19.1370415,3.82624997 19.3016219,4.10483091 19.4936323,4.2812655 C19.2559051,4.39269787 18.9907478,4.64342072 18.789594,4.59699056 C17.8386851,4.40198391 16.8969196,4.132689 15.955154,3.8633941 C13.093284,3.04622336 10.2497007,2.18262246 7.37868728,1.40259584 C5.44943943,0.882578094 3.26417764,2.62835195 3.32818113,4.73628103 C3.41047132,7.34565579 3.30989442,9.95503054 3.30075106,12.5644053 C3.30075106,13.8830217 3.32818113,15.2016382 3.35561119,16.5109685 C3.39218461,17.9224453 4.69968434,19.333922 6.0803309,19.2874919 C8.00957875,19.2132036 9.92968325,19.0089109 11.8497877,18.8324763 C13.0201372,18.73033 14.1904866,18.4888932 15.360836,18.4888932 C17.6923914,18.4796072 19.667356,16.7895495 19.7587896,14.4958998 C19.8045064,13.2051415 19.8227931,11.9143831 19.8227931,10.6143388 C19.8227931,9.97360261 19.7496462,9.33286645 19.7039295,8.6921303 C19.6307826,8.68284427 19.5484924,8.65498618 19.4753456,8.62712809 L19.4753456,8.62712809 Z" id="路径" fill="#EC6B01" fill-rule="nonzero"></path>
            </g>
        </g>
    </g>
</svg>