<?xml version="1.0" encoding="UTF-8"?>
<svg width="22px" height="22px" viewBox="0 0 22 22" version="1.1" xmlns="http://www.w3.org/2000/svg" xmlns:xlink="http://www.w3.org/1999/xlink">
    <title>3</title>
    <defs>
        <filter id="filter-1">
            <feColorMatrix in="SourceGraphic" type="matrix" values="0 0 0 0 0.341176 0 0 0 0 0.419608 0 0 0 0 0.584314 0 0 0 1.000000 0"></feColorMatrix>
        </filter>
    </defs>
    <g id="注册流程" stroke="none" stroke-width="1" fill="none" fill-rule="evenodd" opacity="0.8">
        <g id="3" transform="translate(-110.000000, -286.000000)" filter="url(#filter-1)">
            <g transform="translate(110.000000, 286.000000)">
                <path d="M9.92132789,0.0531434753 C9.16485602,0.13694509 8.1367375,0.356024152 7.5031143,0.568638035 C6.69482592,0.839274712 5.14295821,1.64480144 4.48995513,2.13451718 C3.79802807,2.6564769 2.36260383,4.11924077 1.92934877,4.75078092 C0.998293839,6.10396435 0.396943047,7.60535552 0.0866187666,9.39031371 C-0.0427172292,10.1120388 -0.0233373514,12.0387396 0.118891177,12.8378012 C0.539171575,15.1641146 1.56729009,17.110129 3.26138635,18.7984371 C4.16665621,19.7006139 4.96196993,20.2741313 6.07409525,20.821788 C7.4513799,21.5049676 8.6346195,21.8335452 10.1670252,21.9624393 C13.1026649,22.2202275 16.245078,21.1376808 18.4241637,19.1271784 C20.0083038,17.6643327 21.0428275,15.9631761 21.6765328,13.772222 C21.6765328,13.772222 22.0059906,12.5427769 21.999917,11.2397599 C21.9936729,9.93674285 21.9480974,9.46134867 21.8187614,8.85550551 C21.5085192,7.41852046 20.9523334,6.09749917 20.1246651,4.84096586 C19.5621562,3.98388149 18.281853,2.68225569 17.3572854,2.02493672 C16.6136239,1.50297701 15.2816685,0.826426205 14.4604875,0.562172855 C12.9733289,0.085387475 11.3050999,-0.101529441 9.92132789,0.0531434753 L9.92132789,0.0531434753 Z M12.6629225,2.24409762 C13.2642733,2.34713106 14.3505314,2.72734818 15.0618384,3.08178649 C15.8894245,3.48770059 16.6524658,4.06121795 17.3896399,4.82165222 C18.5341198,6.00084907 19.1936923,7.14788378 19.6721123,8.81041305 C19.840208,9.40324407 19.943759,9.47411535 19.943759,11.0012854 C19.943759,12.4511189 19.8338029,12.6186403 19.6979795,13.0955894 C19.1807176,14.8998612 18.4371383,16.1693249 17.195677,17.3743006 C15.9477283,18.5857414 14.4604876,19.3783378 12.7729608,19.7326943 C12.1457428,19.8615884 9.93438467,19.8680535 9.25543228,19.7391594 C7.54195617,19.4104181 5.79612551,18.443917 4.54177164,17.1293608 C3.31320285,15.8469669 2.48553459,14.2425423 2.19459019,12.5863963 C2.06525419,11.8388924 2.06525419,10.2600829 2.19459019,9.45463803 C2.39504046,8.23673201 3.0675055,6.70956202 3.86930657,5.65271226 C5.35646523,3.68730233 7.72302654,2.34058405 10.050746,2.14728384 C10.5161913,2.10873836 12.2426421,2.17314448 12.6629225,2.24409762 Z M6.07409525,7.5409494 C5.62794765,7.68915716 5.22704713,7.95979384 4.82614658,8.39156861 C4.44462592,8.79748272 4.20541591,9.26150147 4.121327,9.75768236 C4.08905459,9.96383109 4.08905459,9.96383109 4.27004287,9.91227345 C4.37351167,9.8801113 4.58044926,9.80924 4.73565245,9.75121721 C5.38225032,9.51920783 6.61073697,9.37100007 6.53962272,9.53213817 C6.52024284,9.57723065 6.40388151,9.84140217 6.27454552,10.1249692 C6.15169684,10.402071 5.99000633,10.8853216 5.91240473,11.2010508 L5.7701762,11.7681848 L5.56972593,11.6393725 C5.31754126,11.4910829 4.86498845,11.4781526 4.65156354,11.6200589 C4.45111326,11.7488711 4.27653021,12.1871111 4.32826461,12.4319689 C4.35413181,12.528619 4.46408793,12.7154541 4.58044928,12.837883 L4.79379209,13.0570439 L4.63218368,13.2053335 C4.24417569,13.5725385 4.21190328,13.9849177 4.54809476,14.3459031 C4.88436835,14.7002595 5.40163023,14.6938762 5.69906195,14.3265894 L5.86715768,14.1074285 L6.07409527,14.3202061 C6.46202115,14.7325853 7.06985926,14.6681792 7.35431634,14.1719165 C7.52889942,13.8691176 7.45778514,13.5468415 7.14746086,13.250426 L6.90176353,13.0248818 L7.08923914,12.9153013 C7.496627,12.6833738 7.56125394,12.0389033 7.19919526,11.7038605 C6.97287779,11.4975481 6.70771847,11.4461541 6.38441955,11.5555709 C6.25516566,11.6006634 6.12582967,11.6264422 6.11285503,11.6071285 C6.0223609,11.5234088 6.49437569,10.4472454 6.88230155,9.85441434 C7.07634661,9.5450685 7.17332806,9.45488356 7.28968941,9.45488356 C7.58712113,9.45488356 8.66048672,9.76414757 9.17126128,9.99615694 C9.44931315,10.125051 9.68860526,10.2281663 9.70149779,10.2281663 C9.75971951,10.2281663 9.72087767,9.85441436 9.63687086,9.54506853 C9.42993327,8.77178577 8.7833354,7.99211972 8.06562328,7.66992538 C7.74881168,7.5281828 7.58063381,7.4959388 7.01163757,7.47662516 C6.57197724,7.46361294 6.24219097,7.48939176 6.07409525,7.5409494 Z M6.07409525,12.8249527 C6.15818416,12.8893588 6.17756404,12.9602301 6.14520952,13.0827409 C6.09996245,13.2760411 5.90599952,13.3597609 5.7184418,13.2567275 C5.56323861,13.1729258 5.55034608,13.0182529 5.69906193,12.8571148 C5.82191058,12.7218374 5.91240473,12.7089889 6.07409525,12.8249527 Z M14.2470627,7.5795767 C13.4129892,7.84383005 12.6629225,8.61064765 12.4172252,9.44833653 C12.3202437,9.78984451 12.2750788,10.2280844 12.3461109,10.2280844 C12.3654908,10.2280844 12.5531306,10.1442828 12.7664734,10.0347024 C13.4129892,9.70612472 14.2018156,9.51274265 15.0295659,9.47411535 C15.8571521,9.43548805 16.3486288,9.49342901 17.2731964,9.75768236 C17.6030648,9.85433248 17.8874398,9.91873861 17.9004966,9.89942494 C17.9585541,9.84140215 17.803433,9.30659392 17.6353372,8.96508594 C17.4413743,8.5719385 17.0339864,8.12093191 16.6590352,7.88245736 C15.9928933,7.46361294 14.9971293,7.341184 14.2470627,7.5795767 L14.2470627,7.5795767 Z" id="形状" fill="#000000" fill-rule="nonzero"></path>
            </g>
        </g>
    </g>
</svg>