<?xml version="1.0" encoding="UTF-8"?>
<svg width="24px" height="22px" viewBox="0 0 24 22" version="1.1" xmlns="http://www.w3.org/2000/svg" xmlns:xlink="http://www.w3.org/1999/xlink">
    <title>编组</title>
    <defs>
        <filter id="filter-1">
            <feColorMatrix in="SourceGraphic" type="matrix" values="0 0 0 0 0.341176 0 0 0 0 0.419608 0 0 0 0 0.584314 0 0 0 1.000000 0"></feColorMatrix>
        </filter>
    </defs>
    <g id="注册流程" stroke="none" stroke-width="1" fill="none" fill-rule="evenodd" opacity="0.8">
        <g id="编组" transform="translate(-24.000000, -286.000000)" filter="url(#filter-1)">
            <g transform="translate(24.000000, 286.000000)">
                <path d="M12.7374809,10.2443617 L8.21974539,6.83642012 C7.63413226,6.33770483 7.1321472,6.58707324 7.1321472,7.41826539 L7.1321472,14.8991024 C7.1321472,15.6471645 7.63413226,15.8965329 8.21974539,15.3977961 L12.7374809,11.989876 C13.2394443,11.6573992 13.3231157,11.0755539 13.0721232,10.6599471 C12.9884735,10.4106002 12.9048021,10.3274702 12.7374809,10.2443617 L12.7374809,10.2443617 Z" id="路径" fill="#000000" fill-rule="nonzero"></path>
                <path d="M22.9442,8.74819435 C18.2591216,4.25969217 12.1518678,1.59985578 8.47071625,0.186818365 C6.88115467,-0.395026902 5.12425028,0.436165243 4.53861549,1.93233264 C4.45496576,2.09857107 4.45496576,2.26480949 4.37129435,2.43104792 L4.37129435,2.76352478 C7.80143173,3.84410687 13.3230941,5.922098 17.5898371,9.24690964 C18.5101142,9.91186336 18.761085,11.2417923 18.0918005,12.156136 C17.9244794,12.4054613 17.7571582,12.5717213 17.5061657,12.6548297 C13.4904152,15.4809261 9.05635105,17.7251772 4.37129435,19.221323 L4.45494408,19.4706914 C4.70595829,21.1330973 6.29551987,22.2136578 7.96875286,21.9642894 C8.21972372,21.9642894 8.38706652,21.881181 8.63803738,21.7980725 C13.8250575,19.7200599 18.6774353,16.8108551 22.9441566,13.1535666 C24.1990976,12.073006 24.3664188,10.1612318 23.2788206,8.91443278 C23.1114994,8.91443278 23.027828,8.83132433 22.9441566,8.74819435 L22.9442,8.74819435 Z" id="路径" fill="#000000" fill-rule="nonzero"></path>
                <path d="M4.45498743,2.76352478 L4.3713377,2.76352478 C2.69808304,2.26480949 0.941200326,3.09602317 0.690207794,4.50906058 C-0.230069265,8.8313028 -0.230069265,13.236675 0.690207794,17.5589387 C1.02487173,18.9719762 2.86544751,19.8862983 4.4550091,19.304453 L4.53865883,19.304453 C3.53473204,13.8185203 3.53473204,8.24945753 4.4550091,2.76352478 L4.45498743,2.76352478 Z" id="路径" fill="#000000" fill-rule="nonzero"></path>
            </g>
        </g>
    </g>
</svg>