<?xml version="1.0" encoding="UTF-8"?>
<svg width="69px" height="20px" viewBox="0 0 69 20" version="1.1" xmlns="http://www.w3.org/2000/svg" xmlns:xlink="http://www.w3.org/1999/xlink">
    <title>5</title>
    <defs>
        <filter id="filter-1">
            <feColorMatrix in="SourceGraphic" type="matrix" values="0 0 0 0 0.341176 0 0 0 0 0.419608 0 0 0 0 0.584314 0 0 0 1.000000 0"></feColorMatrix>
        </filter>
    </defs>
    <g id="注册流程" stroke="none" stroke-width="1" fill="none" fill-rule="evenodd" opacity="0.8">
        <g id="5" transform="translate(-24.000000, -372.000000)" filter="url(#filter-1)">
            <g transform="translate(24.000000, 372.000000)">
                <path d="M46.0310287,16.2068293 C45.4104553,16.0117073 44.789882,15.8165854 44.3166948,15.6760976 C42.9979764,15.8087805 41.7490725,16.0195122 40.5001686,16.0273171 C38.5376054,16.0429268 36.8232715,14.5521951 36.6215852,12.5853659 C36.474199,11.2117073 36.4431703,9.78341463 36.6681282,8.43317073 C36.8077572,7.61365854 37.3817875,6.71609756 38.0178752,6.15414634 C39.6856661,4.67121951 41.6947723,4.7102439 43.6185497,5.54536585 C45.4259696,6.33365854 46.1163575,7.91804878 46.0077572,9.86146341 C45.9301855,11.3365854 46.2404722,12.8663415 45.3251265,14.2087805 C45.2397976,14.3258537 45.3639123,14.6458537 45.4647555,14.8253659 C45.6819562,15.2 45.9456998,15.5356098 46.1939292,15.8946341 C46.1318718,16.0039024 46.0775717,16.1053659 46.0310287,16.2068293 L46.0310287,16.2068293 Z M44.4252951,13.1629268 C44.8053963,11.5004878 44.882968,9.86926829 44.5494098,8.2302439 C44.5261383,8.10536585 44.4485666,7.9804878 44.3787521,7.86341463 C43.4944351,6.33365854 40.9268128,5.75609756 39.2590219,6.72390244 C38.3514334,7.24682927 37.8161889,8.02731707 37.7929174,9.11219512 C37.777403,9.89268293 37.8161889,10.6731707 37.7696459,11.4536585 C37.684317,12.8039024 38.1342327,13.9278049 39.3676223,14.4819512 C40.7173693,15.0907317 42.1291737,15.0595122 43.5332209,14.2790244 C42.9359191,13.4282927 42.4084317,12.6712195 41.86543,11.9063415 C43.2539629,11.3443902 43.7193929,12.3746341 44.4252951,13.1629268 L44.4252951,13.1629268 Z M35.1399663,16.1756098 C34.5038786,15.9882927 33.8600337,15.7931707 32.944688,15.52 C31.7190556,16.2068293 30.0590219,16.3082927 28.4067454,15.7931707 C26.7544688,15.2702439 25.7925801,14.0526829 25.6219224,12.2887805 C25.5521079,11.5160976 25.6296796,10.7278049 25.5753794,9.95512195 C25.3271501,6.50536585 27.9180438,4.50731707 31.4940978,5.13170732 C33.6505902,5.50634146 34.9770658,6.98926829 35.0236088,9.1902439 C35.0623946,10.8526829 35.3804384,12.5931707 34.4030354,14.1541463 C34.3099494,14.302439 34.4418212,14.6536585 34.5581788,14.8643902 C34.7598651,15.2390244 35.0313659,15.5746341 35.2795953,15.9258537 C35.2330523,16.0039024 35.1865093,16.0897561 35.1399663,16.1756098 L35.1399663,16.1756098 Z M33.3790894,13.155122 C33.5187184,13.1395122 33.6505902,13.1160976 33.7902192,13.1004878 C33.7902192,11.8985366 33.7979764,10.6965854 33.7902192,9.49463415 C33.7747049,7.93365854 33.0688027,6.87219512 31.7733558,6.45853659 C30.0900506,5.92 28.2283305,6.31804878 27.4448567,7.48878049 C27.1268128,7.96487805 26.9251265,8.58926829 26.8630691,9.16682927 C26.762226,10.0331707 26.8397976,10.9229268 26.8320405,11.804878 C26.8242833,13.1395122 27.4526138,14.1229268 28.6627319,14.56 C29.9659359,15.0282927 31.3079258,15.0517073 32.572344,14.2478049 C31.9905565,13.3814634 31.4785835,12.6321951 30.9821248,11.8907317 C32.4016863,11.2663415 32.7430017,12.4760976 33.3790894,13.155122 L33.3790894,13.155122 Z M63.701855,10.1190244 L63.701855,7.50439024 C64.6172007,7.30926829 64.9895447,7.60585366 64.9042159,8.47219512 C64.8576728,8.97170732 64.8964587,9.48682927 64.8964587,10.0956098 L68.4182125,10.0956098 L68.4182125,11.1336585 L64.8499157,11.1336585 L64.8499157,16.0273171 C62.7865093,16.3785366 62.4374368,16.2458537 62.3598651,15.1141463 C62.7554806,15.0829268 63.143339,15.0439024 63.6242833,15.004878 L63.6242833,11.1414634 C62.5770658,11.1414634 61.5453626,11.1102439 60.5136594,11.1492683 C59.7456998,11.1804878 59.381113,10.9385366 59.474199,10.0956098 C59.6293423,8.64390244 59.7301855,7.19219512 59.8698145,5.58439024 L67.9450253,5.58439024 L67.9450253,6.50536585 L61.149747,6.50536585 C61.0489039,7.62926829 60.9325464,8.58926829 60.8937605,9.55707317 C60.8860034,9.73658537 61.2118044,10.0721951 61.4057336,10.0878049 C62.1349073,10.1580488 62.8718381,10.1190244 63.701855,10.1190244 Z M48.5521079,16.0273171 L48.5521079,10.7278049 C51.158516,10.7278049 53.7106239,10.7121951 56.2627319,10.7590244 C56.4954469,10.7668293 56.9143339,11.1882927 56.9220911,11.4302439 C56.9841484,12.9443902 56.9531197,14.4585366 56.9531197,16.0273171 L48.5521079,16.0273171 Z M49.8010118,12.8507317 L55.6887015,12.8507317 C55.6576728,12.4604878 55.6421585,12.1482927 55.6111298,11.804878 L49.8010118,11.804878 L49.8010118,12.8507317 Z M49.7544688,14.0058537 C49.7854975,14.3960976 49.8010118,14.684878 49.8242833,14.9892683 L55.6731872,14.9892683 C55.6576728,14.622439 55.6421585,14.3180488 55.618887,14.0058537 L49.7544688,14.0058537 Z M49.8863406,8.96390244 C49.66914,8.37073171 49.529511,7.99609756 49.3743676,7.56682927 C50.0725126,7.3795122 50.6387858,7.34829268 50.8559865,8.20682927 C51.0033727,8.79219512 51.3834739,8.99512195 51.9807757,8.94829268 C52.5160202,8.90146341 53.0745363,9.01073171 53.5942664,8.90926829 C53.9510961,8.83902439 54.4320405,8.58926829 54.5406408,8.29268293 C54.8354132,7.53560976 55.2775717,7.30926829 56.084317,7.58243902 C55.944688,7.9804878 55.805059,8.37073171 55.618887,8.90146341 L57.9925801,8.90146341 C58.0313659,9.30731707 58.0546374,9.58829268 58.0856661,9.94731707 L47.4273187,9.94731707 L47.4273187,8.97170732 C48.2107926,8.96390244 48.9709949,8.96390244 49.8863406,8.96390244 Z M48.0013491,7.0204878 L48.0013491,5.93560976 L51.9264755,5.93560976 L51.9264755,4.94439024 C52.4694772,5.1004878 53.2141653,5.12390244 53.2994941,5.37365854 C53.5322091,6.03707317 53.9666105,5.92780488 54.4165261,5.93560976 C55.386172,5.94341463 56.363575,5.93560976 57.3720067,5.93560976 C57.5116358,6.51317073 57.7365936,7.0204878 56.8677909,7.0204878 L48.0013491,7.0204878 Z" id="形状" fill="#000000" fill-rule="nonzero"></path>
                <path d="M58.9777403,15.7853659 C59.4819562,14.6068293 59.846543,13.7404878 60.2111298,12.8819512 C60.6067454,11.9609756 60.6067454,11.9609756 61.8711636,12.1560976 C61.4057336,13.2487805 61.010118,14.3492683 60.4593592,15.3560976 C60.3042159,15.6214634 59.6526138,15.6058537 58.9777403,15.7853659 L58.9777403,15.7853659 Z M66.2462057,12.1560976 C67.1072513,11.9219512 67.650253,12.0780488 67.9372681,12.9443902 C68.2320405,13.8341463 68.6431703,14.6770732 69,15.5356098 C68.0070826,15.8868293 67.5183811,15.4965854 67.2313659,14.5990244 C66.9753794,13.7717073 66.5952782,12.9912195 66.2462057,12.1560976 L66.2462057,12.1560976 Z" id="形状" fill="#000000" fill-rule="nonzero"></path>
                <path d="M15.3516189,0.035 C15.3516189,0.035 15.3316189,0.045 15.3116189,0.065 C15.3316189,0.055 15.3516189,0.035 15.3516189,0.035 Z" id="路径" fill="#FFDC00" fill-rule="nonzero"></path>
                <path d="M15.6539629,1.97853659 L15.3359191,0.0273170732 C15.3359191,0.0273170732 15.1264755,2.00195122 12.8148398,4.11707317 C11.7521079,5.09268293 9.87487352,6.16195122 9.87487352,6.16195122 L14.2887015,13.8497561 C14.2887015,13.8497561 14.7075885,15.1219512 14.1490725,16.3160976 C13.4974705,17.7131707 12.1865093,18.5717073 9.66543002,18.6419512 C7.42360877,18.7043902 5.87993255,17.3697561 5.60067454,15.5434146 C5.32141653,13.7326829 6.49274874,12.3356098 7.84249578,11.804878 C9.106914,11.3131707 11.2091062,11.5239024 11.2091062,11.5239024 L6.30657673,3.20390244 L6.37639123,2.36097561 C6.37639123,2.36097561 7.95109612,2.56390244 10.7204047,2.0097561 C11.9848229,1.75219512 13.0475548,1.33073171 13.8387858,0.940487805 C12.6286678,0.409756098 11.2866779,0.113170732 9.88263069,0.113170732 C4.42934233,0.113170732 -8.46612269e-15,4.56195122 -8.46612269e-15,10.0565854 C-8.46612269e-15,15.5434146 4.42158516,20 9.88263069,20 C15.3359191,20 19.7652614,15.5512195 19.7652614,10.0565854 C19.749747,6.72390244 18.1362563,3.78926829 15.6539629,1.97853659 L15.6539629,1.97853659 Z" id="路径" fill="#FFDC00" fill-rule="nonzero"></path>
            </g>
        </g>
    </g>
</svg>