<svg xmlns="http://www.w3.org/2000/svg" viewBox="0 0 70.8 78.95"><defs><style>.cls-1{fill:#219e61;}.cls-2{opacity:0.7;}.cls-3{fill:#fe8431;}</style></defs><title>资源 1</title><g id="图层_2" data-name="图层 2"><g id="iconset"><path class="cls-1" d="M67.3,79a3.52,3.52,0,0,1-2.56-1.11l-3.69-4a6,6,0,0,0-8.77,0l-3.69,4a3.5,3.5,0,0,1-5.11,0l-3.7-4a6,6,0,0,0-8.77,0l-3.69,4a3.5,3.5,0,0,1-5.11,0l-3.69-4a6,6,0,0,0-8.77,0l-3.69,4A3.5,3.5,0,0,1,0,75.45V15.13A15.15,15.15,0,0,1,15.13,0H55.66A15.15,15.15,0,0,1,70.8,15.13V75.45a3.49,3.49,0,0,1-2.22,3.25A3.35,3.35,0,0,1,67.3,79ZM35.4,65a13.06,13.06,0,0,1,9.5,4.12L46,70.33l1.14-1.22a13,13,0,0,1,16.63-2v-52A8.15,8.15,0,0,0,55.66,7H15.13A8.14,8.14,0,0,0,7,15.13v52a13,13,0,0,1,16.63,2l1.14,1.22,1.13-1.22A13,13,0,0,1,35.4,65Z"/><path class="cls-1" d="M54.94,31.24H15.85a3.5,3.5,0,1,1,0-7H54.94a3.5,3.5,0,0,1,0,7Z"/><path class="cls-1" d="M42.75,44.06H15.85a3.33,3.33,0,0,1,0-6.65h26.9a3.33,3.33,0,0,1,0,6.65Z"/><g class="cls-2"><circle class="cls-3" cx="53.74" cy="40.73" r="4"/></g></g></g></svg>