<?xml version="1.0" encoding="UTF-8"?>
<svg width="16px" height="13px" viewBox="0 0 16 13" version="1.1" xmlns="http://www.w3.org/2000/svg" xmlns:xlink="http://www.w3.org/1999/xlink">
    <title>套餐-etc</title>
    <defs>
        <filter id="filter-1">
            <feColorMatrix in="SourceGraphic" type="matrix" values="0 0 0 0 0.184314 0 0 0 0 0.709804 0 0 0 0 0.396078 0 0 0 1.000000 0"></feColorMatrix>
        </filter>
    </defs>
    <g id="注册流程" stroke="none" stroke-width="1" fill="none" fill-rule="evenodd">
        <g id="套餐-etc" transform="translate(-32.000000, -228.000000)" filter="url(#filter-1)">
            <g transform="translate(32.000000, 228.000000)">
                <path d="M13.9608294,12.2354417 L2.03917056,12.2354417 C0.914781786,12.2354417 -3.0440949e-15,11.3206599 -3.0440949e-15,10.1962712 L-3.0440949e-15,2.03917056 C-3.0440949e-15,0.914781786 0.914781786,0 2.03917056,0 L13.9608294,0 C15.0852181,0 16,0.914781786 16,2.03917056 L16,10.196062 C16.0002091,11.3206599 15.0854273,12.2354417 13.9608294,12.2354417 Z M2.03917056,0.941139551 C1.43377872,0.941139551 0.941139551,1.43377872 0.941139551,2.03917056 L0.941139551,10.196062 C0.941139551,10.8014538 1.43377872,11.294093 2.03917056,11.294093 L13.9608294,11.294093 C14.5662212,11.294093 15.0588604,10.8014538 15.0588604,10.196062 L15.0588604,2.03917056 C15.0588604,1.43377872 14.5662212,0.941139551 13.9608294,0.941139551 L2.03917056,0.941139551 Z" id="形状" fill="#108EE9" fill-rule="nonzero"></path>
                <path d="M9.49025961,3.72564912 L6.66663177,3.72564912 C6.40786546,3.72564912 6.1959574,3.93734799 6.1959574,4.19632349 C6.1959574,4.4550898 6.40765627,4.66699786 6.66663177,4.66699786 L7.60777132,4.66699786 L7.60777132,7.96109088 C7.60777132,8.21985719 7.81947019,8.43176525 8.07844569,8.43176525 C8.33742119,8.43176525 8.54912006,8.22006638 8.54912006,7.96109088 L8.54912006,4.66678867 L9.49025961,4.66678867 C9.74902592,4.66678867 9.96093398,4.4550898 9.96093398,4.1961143 C9.96093398,3.93734799 9.74902592,3.72564912 9.49025961,3.72564912 L9.49025961,3.72564912 Z M5.17658131,6.58839523 C5.43534762,6.58839523 5.64725568,6.37669636 5.64725568,6.11772086 C5.64725568,5.85895455 5.43555681,5.64704649 5.17658131,5.64704649 L2.82341865,5.64704649 L2.82341865,4.58813376 L5.17637212,4.58813376 C5.43513843,4.58813376 5.64704649,4.37643488 5.64704649,4.11745939 C5.64704649,3.85869308 5.43534762,3.64678502 5.17637212,3.64678502 L2.35295347,3.64678502 C2.09418716,3.64678502 1.8822791,3.85848389 1.8822791,4.11745939 C1.8822791,4.13084746 1.88520774,4.14360796 1.88625369,4.15657766 C1.88520774,4.16975654 1.8822791,4.18230785 1.8822791,4.19569593 L1.8822791,7.96046332 C1.8822791,7.98723946 1.88583531,8.01317885 1.89022827,8.03890905 C1.88583531,8.06463924 1.8822791,8.09057863 1.8822791,8.11735477 C1.8822791,8.37612108 2.09397797,8.58802914 2.35295347,8.58802914 L5.17658131,8.58802914 C5.43534762,8.58802914 5.64725568,8.37633027 5.64725568,8.11735477 C5.64725568,7.85858846 5.43555681,7.6466804 5.17658131,7.6466804 L2.82341865,7.6466804 L2.82341865,6.58776767 L5.17658131,6.58776767 L5.17658131,6.58839523 Z M13.8039379,7.49020732 L11.4509844,7.49020732 L11.4509844,4.58834294 L13.8039379,4.58834294 C14.0627042,4.58834294 14.2746123,4.37664407 14.2746123,4.11766857 C14.2746123,3.85890227 14.0629134,3.6469942 13.8039379,3.6469942 L10.9805193,3.6469942 C10.721753,3.6469942 10.5098449,3.85869308 10.5098449,4.11766857 C10.5098449,4.13105665 10.5127735,4.14381715 10.5138195,4.15678684 C10.5127735,4.16996573 10.5098449,4.18251704 10.5098449,4.19590511 L10.5098449,7.96067251 C10.5098449,8.21943881 10.7215438,8.43134688 10.9805193,8.43134688 L13.8041471,8.43134688 C14.0629134,8.43134688 14.2748215,8.219648 14.2748215,7.96067251 C14.2746123,7.70211539 14.0629134,7.49020732 13.8039379,7.49020732 Z" id="形状" fill="#108EE9" fill-rule="nonzero"></path>
            </g>
        </g>
    </g>
</svg>