<?xml version="1.0" encoding="UTF-8"?>
<svg width="16px" height="17px" viewBox="0 0 16 17" version="1.1" xmlns="http://www.w3.org/2000/svg" xmlns:xlink="http://www.w3.org/1999/xlink">
    <title>套餐-折扣</title>
    <defs>
        <filter id="filter-1">
            <feColorMatrix in="SourceGraphic" type="matrix" values="0 0 0 0 0.184314 0 0 0 0 0.709804 0 0 0 0 0.396078 0 0 0 1.000000 0"></feColorMatrix>
        </filter>
    </defs>
    <g id="注册流程" stroke="none" stroke-width="1" fill="none" fill-rule="evenodd">
        <g id="套餐-折扣" transform="translate(-212.000000, -262.000000)" filter="url(#filter-1)">
            <g transform="translate(212.000000, 262.000000)">
                <path d="M15.9987547,9.02488694 C15.9698226,7.97368724 15.32753,7.48955674 14.9629855,6.68717312 C15.0536394,6.08345659 15.2812386,5.58389564 15.2696658,4.96089105 C15.2407337,3.20181926 13.7189051,2.22777183 11.9328301,2.08504013 C11.3522592,1.24408037 10.4804385,0 9.08976885,0 C8.84095278,0 8.57477744,0.0405049424 8.28931404,0.129230054 C7.82061399,0.277748177 7.07802338,1.01069475 6.64211305,1.04927089 C6.6286114,1.0511997 6.61510975,1.0511997 6.5996793,1.0511997 C6.37015129,1.0511997 6.0885455,0.900752768 5.87444795,0.858319018 C5.604415,0.804312428 5.3498125,0.77923794 5.10678285,0.77923794 C3.27634521,0.77923794 2.23864716,2.25091752 2.11713233,4.11800248 C1.10257996,4.76801037 -0.452038302,5.87514546 0.124674926,7.72101355 C0.313697991,8.32473007 0.855692697,8.83200626 1.0832919,9.36821454 C0.998424399,9.96421584 0.774682812,10.4136278 0.776611619,11.0173443 C0.780469232,12.8323515 2.32158585,13.7311755 4.11344735,13.8931953 C4.72102149,14.8286665 5.56776767,16.0090963 6.93143406,16.0090963 C7.17639252,16.0090963 7.43678144,15.9705202 7.71645842,15.8875815 C8.35682228,15.6947008 8.7348684,15.2067127 9.36558822,14.9289645 C9.96158952,15.0157608 10.4245031,15.2356448 11.0359349,15.2356448 L11.0899415,15.2356448 C12.8605861,15.1970686 13.7671253,13.715745 13.9272163,11.9373852 C14.8935485,11.2333707 16.0431173,10.5930069 15.9987547,9.02488694 L15.9987547,9.02488694 Z M13.7613389,11.140788 C13.6629697,11.210225 13.5646006,11.2815909 13.4681603,11.3510279 C13.3119269,11.4667563 13.2116289,11.6422777 13.1942697,11.8370872 C13.1229038,12.6201828 12.771861,14.4486916 11.0455789,14.4853389 L11.005074,14.4853389 C10.7234682,14.4853389 10.4669369,14.4197595 10.1699007,14.344536 C9.95773191,14.2905295 9.71663106,14.2288076 9.45045572,14.1902315 C9.41766601,14.1844451 9.38487629,14.1825163 9.35208658,14.1825163 C9.25757504,14.1825163 9.16499232,14.2018043 9.07819601,14.2403805 C8.73679721,14.3908274 8.46483546,14.5856369 8.22759222,14.7573007 C7.98070495,14.9347509 7.76853621,15.0871267 7.52550655,15.1604213 C7.32298184,15.2221431 7.12624355,15.253004 6.9430069,15.253004 C5.96124425,15.253004 5.28037546,14.3310344 4.72102149,13.466929 C4.6091507,13.2933363 4.42205644,13.1795367 4.21567411,13.1621775 C3.40943288,13.0888828 1.53270388,12.7301248 1.52884626,10.9884122 C1.52884626,10.7164505 1.59249689,10.4676344 1.66772035,10.182171 C1.72365575,9.96807345 1.78537757,9.72697261 1.82588251,9.45501085 C1.84324177,9.33349602 1.82781132,9.20812358 1.77959115,9.09625279 C1.6522899,8.79535893 1.46519564,8.52918359 1.2838878,8.27072349 C1.10065116,8.00647696 0.925129741,7.75766088 0.85376389,7.52620407 C0.483432988,6.34577432 1.26267093,5.55496353 2.54725625,4.72943423 C2.72856408,4.61370582 2.84236368,4.41889634 2.85586533,4.20479879 C2.94073283,2.91249824 3.58495429,1.53147259 5.14150137,1.53147259 C5.34016847,1.53147259 5.55040841,1.55268946 5.76643477,1.59705202 C5.80115329,1.60476724 5.88023437,1.63177054 5.94388499,1.65491622 C6.13097925,1.72049565 6.36243606,1.80343434 6.61703856,1.80343434 C6.65175708,1.80343434 6.68454679,1.80150554 6.7154077,1.79957673 C7.13202997,1.7629294 7.52164894,1.49289645 7.93441359,1.20550424 C8.12343665,1.07434538 8.37996796,0.894966347 8.49183875,0.860247825 C8.69629227,0.796597201 8.89495937,0.763807486 9.08012482,0.763807486 C10.0329554,0.763807486 10.6906785,1.60090963 11.3368288,2.53445211 C11.4525572,2.7022583 11.6357938,2.80834268 11.8383185,2.82377313 C13.1171174,2.92599989 14.4923567,3.55286209 14.5174311,5.00718241 C14.5212888,5.30036104 14.4537805,5.57618041 14.3727706,5.89443353 C14.3168352,6.11624631 14.258971,6.34577432 14.2203949,6.60423442 C14.2011068,6.73346448 14.2203949,6.86462334 14.2744015,6.98420936 C14.4152044,7.29474725 14.5868682,7.55706498 14.7392439,7.7904506 C15.0208497,8.22250332 15.2233744,8.53304121 15.2388049,9.03838858 C15.267737,10.0201512 14.6948814,10.4772784 13.7613389,11.140788 L13.7613389,11.140788 Z M10.3801406,8.88794166 C9.47553021,8.88794166 8.73872602,9.62281704 8.73872602,10.5274274 C8.73872602,11.4320378 9.4736014,12.1669132 10.3801406,12.1669132 C11.284751,12.1669132 12.0196301,11.430109 12.0196301,10.5274274 C12.0215552,9.62474585 11.284751,8.88794166 10.3801406,8.88794166 Z M10.3801406,11.4455394 C9.87479321,11.4455394 9.46395737,11.0347036 9.46395737,10.5293562 C9.46395737,10.0240089 9.87479321,9.61317301 10.3801406,9.61317301 C10.885488,9.61317301 11.2963238,10.0240089 11.2963238,10.5293562 C11.2963238,11.0347036 10.885488,11.4455394 10.3801406,11.4455394 Z M5.98824755,7.3641843 C6.89285793,7.3641843 7.62773331,6.62930891 7.62773331,5.72469853 C7.62773331,4.82008815 6.89285793,4.08521277 5.98824755,4.08521277 C5.08363716,4.08521277 4.34683297,4.82008815 4.34683297,5.72469853 C4.34683297,6.62930891 5.08363716,7.3641843 5.98824755,7.3641843 L5.98824755,7.3641843 Z M5.98824755,4.80851531 C6.49359492,4.80851531 6.90443077,5.21935115 6.90443077,5.72469853 C6.90443077,6.23004591 6.49359492,6.64088175 5.98824755,6.64088175 C5.48290017,6.64088175 5.07206432,6.23004591 5.07206432,5.72469853 C5.07206432,5.21935115 5.48290017,4.80851531 5.98824755,4.80851531 Z M11.3696185,4.85094906 C11.2288156,4.71014616 10.9992876,4.71014616 10.8584847,4.85094906 L4.90232933,10.8051756 C4.76152643,10.9459785 4.76152643,11.1755065 4.90232933,11.3163094 C4.97369518,11.3876752 5.0662779,11.4223938 5.15886063,11.4223938 C5.25144335,11.4223938 5.34402608,11.3876752 5.41539193,11.3163094 L11.3696185,5.36208286 C11.5104214,5.22127996 11.5104214,4.99175195 11.3696185,4.85094906 Z" id="形状" fill="#000000" fill-rule="nonzero"></path>
            </g>
        </g>
    </g>
</svg>