<?xml version="1.0" encoding="UTF-8"?>
<svg width="24px" height="24px" viewBox="0 0 24 24" version="1.1" xmlns="http://www.w3.org/2000/svg" xmlns:xlink="http://www.w3.org/1999/xlink">
    <title>违章查询</title>
    <defs>
        <filter id="filter-1">
            <feColorMatrix in="SourceGraphic" type="matrix" values="0 0 0 0 0.392157 0 0 0 0 0.403922 0 0 0 0 0.941176 0 0 0 1.000000 0"></feColorMatrix>
        </filter>
    </defs>
    <g id="注册流程" stroke="none" stroke-width="1" fill="none" fill-rule="evenodd">
        <g id="违章查询" transform="translate(-17.000000, -501.000000)" filter="url(#filter-1)">
            <g transform="translate(17.000000, 501.000000)">
                <path d="M7.65263302,13.1357449 C8.63206688,14.115174 10.0596239,14.4976753 11.3975476,14.1391618 C12.7354714,13.7806484 13.7804954,12.735588 14.1389621,11.3976517 C14.4974289,10.0597154 14.1148777,8.63217177 13.1354145,7.6527721 C12.1559806,6.67334304 10.7284236,6.2908417 9.39049983,6.64935515 C8.05257604,7.0078686 7.00755212,8.05292899 6.64908537,9.39086529 C6.29061861,10.7288016 6.67316978,12.1563452 7.65263302,13.1357449 Z" id="路径" fill="#000000" fill-rule="nonzero"></path>
                <path d="M12,0 C5.37257143,0 0,5.37257143 0,12 C0,18.6274286 5.37257143,24 12,24 C18.6274286,24 24,18.6274286 24,12 C24,5.37257143 18.6274286,0 12,0 Z M18.8167347,18.6771429 L18.6771429,18.8167347 C18.3901224,19.1037551 17.9250612,19.1037551 17.6380408,18.8167347 L13.5955102,14.7742041 C11.4746939,16.3261224 8.47297959,16.144898 6.55812245,14.2300408 C4.44293878,12.1148571 4.44293878,8.67330612 6.55812245,6.55812245 C8.67330612,4.44293878 12.1148571,4.44293878 14.2300408,6.55812245 C16.144898,8.47297959 16.3261224,11.4746939 14.7742041,13.5955102 L18.8167347,17.6380408 C19.1037551,17.9250612 19.1037551,18.3901224 18.8167347,18.6771429 L18.8167347,18.6771429 Z" id="形状" fill="#000000" fill-rule="nonzero"></path>
            </g>
        </g>
    </g>
</svg>