<?xml version="1.0" encoding="UTF-8"?>
<svg width="137px" height="67px" viewBox="0 0 137 67" version="1.1" xmlns="http://www.w3.org/2000/svg" xmlns:xlink="http://www.w3.org/1999/xlink">
    <title>资质监测</title>
    <defs>
        <rect id="path-1" x="0" y="0" width="137" height="67" rx="6"></rect>
        <linearGradient x1="15.7925536%" y1="0%" x2="49.4664115%" y2="92.8958669%" id="linearGradient-3">
            <stop stop-color="#FFCF02" offset="0%"></stop>
            <stop stop-color="#FF7A00" offset="100%"></stop>
        </linearGradient>
        <rect id="path-4" x="0" y="0" width="61" height="61" rx="30.5"></rect>
        <linearGradient x1="14.7199983%" y1="0%" x2="50%" y2="94.3678743%" id="linearGradient-6">
            <stop stop-color="#FFF7D2" offset="0%"></stop>
            <stop stop-color="#FFA54D" offset="100%"></stop>
        </linearGradient>
        <rect id="path-7" x="0" y="0" width="61" height="61" rx="30.5"></rect>
    </defs>
    <g id="注册流程" stroke="none" stroke-width="1" fill="none" fill-rule="evenodd">
        <g id="2.1.3-临时交互" transform="translate(-30.000000, -298.000000)">
            <g id="资质监测" transform="translate(30.000000, 298.000000)">
                <mask id="mask-2" fill="white">
                    <use xlink:href="#path-1"></use>
                </mask>
                <use id="蒙版" fill="#FFF2E1" xlink:href="#path-1"></use>
                <g opacity="0.106654576" mask="url(#mask-2)">
                    <g transform="translate(100.000000, 6.000000)">
                        <g id="形状-Clipped" transform="translate(8.000000, 10.000000)">
                            <path d="M45.1146259,9.88963655 L25.8373275,0.445816637 C25.7629731,0.409975556 25.6864083,0.378942287 25.6081019,0.352906999 C24.2228867,-0.117635666 22.6951154,-0.117635666 21.3099001,0.352906999 C21.2318977,0.379281299 21.1550907,0.410451054 21.0806746,0.445816637 L1.21904914,9.88963655 C0.47458936,10.2438922 0,10.9964606 0,11.8224577 L0,26.5450463 C0,34.6638543 3.55105226,41.932089 10.0832312,47.0720925 L20.9960973,54.8270541 C21.7173542,55.3394517 22.579585,55.6143771 23.463484,55.6137941 C24.3277865,55.6137941 25.192388,55.351844 25.9287785,54.8270541 L36.9259231,47.0094534 C43.3741224,41.9323887 46,34.6650531 46,26.545346 L46,11.8224577 C46.0005959,10.9961609 45.8593846,10.2438922 45.1146259,9.88963655 Z" id="形状" fill="url(#linearGradient-3)" fill-rule="nonzero"></path>
                        </g>
                        <g id="形状-Clipped">
                            <mask id="mask-5" fill="white">
                                <use xlink:href="#path-4"></use>
                            </mask>
                            <g id="path-1"></g>
                            <path d="M45.8961064,25.8421561 L32.475335,19.3681213 C32.4235699,19.3435511 32.3702657,19.3222768 32.3157493,19.3044288 C31.3513684,18.9818571 30.2877407,18.9818571 29.3233598,19.3044288 C29.2690548,19.3225092 29.2155822,19.3438771 29.163774,19.3681213 L15.3361967,25.8421561 C14.817907,26.0850095 14.4875,26.6009187 14.4875,27.1671656 L14.4875,37.2599621 C14.4875,42.8256596 16.9597271,47.8082625 21.5074017,51.3318963 L29.1048916,56.6481658 C29.6070276,56.9994304 30.2073089,57.1879004 30.8226755,57.1875006 C31.4243992,57.1875006 32.0263309,57.0079257 32.5390029,56.6481658 L40.1951671,51.2889552 C44.6843754,47.808468 46.5125013,42.8264814 46.5125013,37.2601675 L46.5125013,27.1671656 C46.5129148,26.6007133 46.4146042,26.0850095 45.8961064,25.8421561 Z" id="形状" fill="url(#linearGradient-6)" fill-rule="nonzero" opacity="0.491466704" mask="url(#mask-5)"></path>
                        </g>
                        <g id="路径-2-Clipped">
                            <mask id="mask-8" fill="white">
                                <use xlink:href="#path-7"></use>
                            </mask>
                            <g id="path-1"></g>
                            <path d="M32.7071246,41.9681693 C33.2997879,42.5284732 34.241134,42.477162 34.7693846,41.8557591 L42.2333771,33.0755561 C42.7425165,32.4766344 42.6697336,31.5783734 42.0708118,31.0692341 C41.4718902,30.5600947 40.5736292,30.6328777 40.0644898,31.2317993 L33.572374,38.8687436 L28.5065914,34.0795527 C27.9289876,33.5334862 27.016079,33.5663157 26.4791913,34.152461 L20.444202,40.7411402 C19.9132463,41.3208092 19.9527363,42.2211484 20.5324053,42.7521041 C21.1120744,43.2830597 22.0124136,43.2435697 22.5433692,42.6639007 L27.6016924,37.1414936 L32.7071246,41.9681693 Z" id="路径-2" fill="#FFFFFF" fill-rule="nonzero" mask="url(#mask-8)"></path>
                        </g>
                    </g>
                </g>
            </g>
        </g>
    </g>
</svg>