<?xml version="1.0" encoding="UTF-8"?>
<svg width="16px" height="17px" viewBox="0 0 16 17" version="1.1" xmlns="http://www.w3.org/2000/svg" xmlns:xlink="http://www.w3.org/1999/xlink">
    <title>套餐-设备质保</title>
    <defs>
        <filter id="filter-1">
            <feColorMatrix in="SourceGraphic" type="matrix" values="0 0 0 0 0.184314 0 0 0 0 0.709804 0 0 0 0 0.396078 0 0 0 1.000000 0"></feColorMatrix>
        </filter>
    </defs>
    <g id="注册流程" stroke="none" stroke-width="1" fill="none" fill-rule="evenodd">
        <g id="套餐-设备质保" transform="translate(-212.000000, -225.000000)" filter="url(#filter-1)">
            <g transform="translate(212.000000, 225.000000)">
                <path d="M1.19100224e-15,4.17033165 C0.0220981637,3.7665409 0.0342767072,3.36122784 0.0655251476,2.95895942 C0.115019762,2.44964157 0.526949174,2.05159827 1.03766429,2.01959104 C1.48944897,1.98911194 1.94352531,1.98302267 2.3937713,1.9357817 C4.16611084,1.74969037 5.8711431,1.15509188 7.37486109,0.198718717 C7.68415353,0.00445130484 8.00339834,-0.0572598634 8.35233653,0.0577815398 C8.44375745,0.0897829547 8.53365605,0.136254574 8.6159267,0.188815466 C9.96154526,1.04012411 11.4662632,1.60883203 13.0385713,1.8603533 C13.6389211,1.95938582 14.2453602,2.00435149 14.854844,2.01348539 C15.4963455,2.02338865 15.9153594,2.44014364 15.9603087,3.07706183 C16.0212669,3.922734 16.0121166,4.76459219 15.9321213,5.6079727 C15.6502469,8.53278743 14.6697105,11.1817843 12.7475303,13.4544577 C11.5849111,14.8340087 10.1225191,15.9297501 8.47194488,16.6580694 C8.17005691,16.7983174 7.82102325,16.7949617 7.52188754,16.6489355 C6.02626182,15.9834348 4.68366569,15.0171383 3.57770907,13.8102218 C2.12409186,12.2285825 1.15270569,10.3848591 0.576745703,8.33315098 C0.202669995,6.9768627 0.00875576387,5.57723387 1.19100224e-15,4.17033165 L1.19100224e-15,4.17033165 Z M1.11918196,3.07629248 C1.10775639,3.27666554 1.09099453,3.47170229 1.08642757,3.66901434 C1.05570939,4.64514279 1.12052265,5.62193591 1.27994201,6.58544814 C1.53515125,8.12670503 2.02425727,9.59025822 2.80442066,10.9554991 C4.00282863,13.0544482 5.6827474,14.6490353 7.90587178,15.6676461 C7.9678481,15.6981197 8.04045453,15.6981197 8.10243085,15.6676461 C10.1183399,14.7496065 11.7083601,13.3447199 12.8823946,11.4895708 C14.4571589,9.00131761 15.0407468,6.26317507 14.9112188,3.35515494 C14.9074048,3.2622117 14.893704,3.17002144 14.886829,3.07401719 L14.7908411,3.0664056 C14.1209803,3.058756 13.452671,3.00017702 12.7916939,2.89117535 C11.1231098,2.61426497 9.5264168,2.00769025 8.094852,1.1068714 C8.03314083,1.06648905 7.98819153,1.06419739 7.91962174,1.10457974 C7.65297057,1.26457044 7.38631939,1.42762215 7.10899562,1.57237331 C5.53125194,2.41327333 3.79350568,2.91099394 2.0098198,3.0328655 C1.71954815,3.05114968 1.42853988,3.0633446 1.11998404,3.07706183 L1.11918196,3.07629248 Z M6.94591118,9.70682194 C6.98552418,9.66262561 7.00991401,9.62759593 7.0373321,9.59862279 L10.7796152,5.89976667 C10.9167548,5.76187413 11.0698869,5.68035646 11.2687212,5.70775818 C11.4759529,5.73825365 11.6222427,5.85177274 11.6953795,6.04299551 C11.7696451,6.22383115 11.7321919,6.43133115 11.5993916,6.57479191 C11.5712042,6.60677696 11.5384334,6.6380254 11.5072013,6.66773515 L7.38247268,10.7467288 C7.08000611,11.0438591 6.79659307,11.0438591 6.49260418,10.7436842 C5.81226056,10.0732506 5.13267339,9.4020498 4.45384397,8.73008311 C4.23215846,8.50915058 4.21616594,8.19830308 4.40966401,7.98496577 C4.50847937,7.87615766 4.64766837,7.81274034 4.79461617,7.80957382 C4.94156396,7.80640729 5.08335561,7.86376986 5.1867664,7.96822027 C5.51437576,8.28515704 5.83514289,8.60666077 6.15738322,8.92588921 L6.94592755,9.70680557 L6.94591118,9.70682194 Z" id="形状" fill="#000000" fill-rule="nonzero"></path>
            </g>
        </g>
    </g>
</svg>