<?xml version="1.0" encoding="UTF-8"?>
<svg width="22px" height="22px" viewBox="0 0 22 22" version="1.1" xmlns="http://www.w3.org/2000/svg" xmlns:xlink="http://www.w3.org/1999/xlink">
    <title>编组</title>
    <defs>
        <filter id="filter-1">
            <feColorMatrix in="SourceGraphic" type="matrix" values="0 0 0 0 1.000000 0 0 0 0 1.000000 0 0 0 0 1.000000 0 0 0 1.000000 0"></feColorMatrix>
        </filter>
    </defs>
    <g id="注册流程" stroke="none" stroke-width="1" fill="none" fill-rule="evenodd">
        <g id="2.2.3-滑动-已经过期" transform="translate(-49.000000, -279.000000)">
            <g id="编组" transform="translate(40.000000, 270.000000)" filter="url(#filter-1)">
                <g transform="translate(9.000000, 9.000000)">
                    <path d="M19.37925,5.770875 C19.1699204,5.41770164 18.8711142,5.12600985 18.513,4.92525 L18.513,0 L16.2195,0 L16.2195,4.92525 C15.862,5.126 15.560875,5.42025 15.35325,5.770875 L8.105625,5.770875 L8.105625,0 L5.770875,0 L5.770875,5.770875 L0,5.770875 L0,8.105625 L5.770875,8.105625 L5.770875,15.382125 C5.42880475,15.5828352 5.14383523,15.8678047 4.943125,16.209875 L0,16.209875 L0,18.508875 L4.9225,18.508875 C5.12325,18.866375 5.4175,19.166125 5.770875,19.372375 L5.770875,22 L8.105625,22 L8.105625,19.37375 C8.459,19.16475 8.751875,18.866375 8.954,18.508875 L15.07,18.508875 C15.9827757,18.5092397 16.8583114,18.1469908 17.5039992,17.5018187 C18.149687,16.8566467 18.5126354,15.9814007 18.513,15.068625 L18.513,8.95125 C18.8705,8.7505 19.17025,8.459 19.37925,8.107 L22,8.107 L22,5.770875 L19.37925,5.770875 Z M6.9575,18.513 C6.54436699,18.513 6.16261634,18.2925962 5.95604983,17.9348125 C5.74948332,17.5770288 5.74948332,17.1362212 5.95604983,16.7784375 C6.16261634,16.4206538 6.54436699,16.20025 6.9575,16.20025 C7.59614826,16.20025 8.11387495,16.7179767 8.11387495,17.356625 C8.11387495,17.9952733 7.59614826,18.513 6.9575,18.513 L6.9575,18.513 Z M8.932,16.209875 C8.73124102,15.8678424 8.44628257,15.582884 8.10425,15.382125 L8.10425,8.105625 L15.351875,8.105625 C15.560875,8.457625 15.860625,8.7505 16.218125,8.95125 L16.2195,16.21125 L8.932,16.21125 L8.932,16.209875 Z M17.364875,8.113875 C16.9522332,8.113875 16.5709365,7.89373326 16.3646156,7.53637501 C16.1582947,7.17901676 16.1582947,6.73873324 16.3646156,6.38137499 C16.5709365,6.02401674 16.9522332,5.803875 17.364875,5.803875 C18.0027639,5.803875 18.519875,6.32098613 18.519875,6.958875 C18.519875,7.59676387 18.0027639,8.113875 17.364875,8.113875 L17.364875,8.113875 Z" id="形状" fill="#FFFAFA" fill-rule="nonzero"></path>
                </g>
            </g>
        </g>
    </g>
</svg>
