<svg xmlns="http://www.w3.org/2000/svg" fill="none" version="1.1" width="28" height="24.5" viewBox="0 0 28 24.5"><g><g><path d="M2.43484,24.5L25.5653,24.5C26.91,24.5,28,23.4031,28,22.05L28,5.51249C28,4.15934,26.91,3.06248,25.5653,3.06248L20.3913,3.06248L18.8696,0.612509C18.8696,0.274175,17.9883,0,17.6522,0L10.3479,0C10.0117,0,9.13044,0.274143,9.13044,0.612509L7.60878,3.06248L2.43484,3.06248C1.09011,3.06248,0,4.15934,0,5.51249L0,22.05C0,23.4031,1.09014,24.5,2.43484,24.5ZM14,5.51251C9.62974,5.51251,6.08691,9.07745,6.08691,13.475C6.08691,17.8727,9.62974,21.4375,14,21.4375C18.3701,21.4375,21.9128,17.8728,21.913,13.4755L21.913,13.4747C21.9128,9.07726,18.3701,5.51251,14,5.51251ZM14.0002,18.9875C10.9747,18.9875,8.52197,16.5196,8.52197,13.475C8.52197,10.4306,10.9747,7.96252,14.0002,7.96252C17.0258,7.96252,19.4784,10.4306,19.4784,13.475C19.4784,16.5196,17.0258,18.9875,14.0002,18.9875Z" fill-rule="evenodd" fill="#000000" fill-opacity="1"/></g></g></svg>
