<?xml version="1.0" encoding="UTF-8"?>
<svg width="24px" height="22px" viewBox="0 0 24 22" version="1.1" xmlns="http://www.w3.org/2000/svg" xmlns:xlink="http://www.w3.org/1999/xlink">
    <title>编组</title>
    <g id="注册流程" stroke="none" stroke-width="1" fill="none" fill-rule="evenodd">
        <g id="2.1.2办理方式" transform="translate(-28.000000, -171.000000)" fill="#09BB07" fill-rule="nonzero">
            <g id="编组" transform="translate(28.000000, 171.000000)">
                <path d="M8.73318154,13.2971781 C8.62290337,13.3532569 8.50998145,13.3800217 8.37290015,13.3800217 C8.06633753,13.3800217 7.81627805,13.2143345 7.67641237,12.9658037 L7.6199936,12.8563651 L5.42326149,8.10063218 C5.39637398,8.04455343 5.39637398,7.99116532 5.39637398,7.93508657 C5.39637398,7.71332061 5.56309905,7.54763339 5.78627101,7.54763339 C5.86966167,7.54763339 5.95299608,7.57436992 6.03638673,7.63044867 L8.62290337,9.45527388 C8.81651594,9.56471241 9.03971603,9.64758434 9.28969113,9.64758434 C9.42952868,9.64758434 9.56672249,9.62081948 9.70656004,9.56471241 L21.8356117,4.20262088 C19.6657952,1.65913799 16.0788719,0 12.0161859,0 C5.39637398,0 0,4.45112338 0,9.94955992 C0,12.9338558 1.61327876,15.6428843 4.14346099,17.4677095 C4.33696107,17.6066318 4.47679862,17.8551627 4.47679862,18.1035519 C4.47679862,18.1863955 4.44988299,18.2692391 4.42037985,18.3520827 C4.22685165,19.0974769 3.89075777,20.3158019 3.89075777,20.3693033 C3.86381401,20.4520053 3.83414212,20.5616138 3.83414212,20.6737713 C3.83414212,20.8955373 4.00089531,21.0612245 4.2240954,21.0612245 C4.30742981,21.0612245 4.39082047,21.034488 4.44726736,20.9783809 L7.06069963,19.4581936 C7.25434033,19.3485851 7.4775123,19.2657698 7.70071238,19.2657698 C7.81084993,19.2657698 7.95071561,19.2925064 8.06099377,19.3218486 C9.28431925,19.6799595 10.6207073,19.874989 11.9838703,19.874989 C18.6037104,19.874989 24,15.4238656 24,9.92542906 C24,8.26629107 23.4999373,6.69260238 22.6368651,5.30876007 L8.81651594,13.241071 L8.73318154,13.2971498 L8.73318154,13.2971781 Z" id="路径"></path>
            </g>
        </g>
    </g>
</svg>