<?xml version="1.0" standalone="no"?><!DOCTYPE svg PUBLIC "-//W3C//DTD SVG 1.1//EN" "http://www.w3.org/Graphics/SVG/1.1/DTD/svg11.dtd"><svg t="1621913605600" class="icon" viewBox="0 0 1536 1024" version="1.1" xmlns="http://www.w3.org/2000/svg" p-id="5907" xmlns:xlink="http://www.w3.org/1999/xlink" width="300" height="200"><defs><style type="text/css">@font-face { font-weight: 400; font-style: normal; font-family: Circular-Loom; src: url("https://cdn.loom.com/assets/fonts/circular/CircularXXWeb-Book-cd7d2bcec649b1243839a15d5eb8f0a3.woff2") format("woff2"); }
@font-face { font-weight: 500; font-style: normal; font-family: Circular-Loom; src: url("https://cdn.loom.com/assets/fonts/circular/CircularXXWeb-Medium-d74eac43c78bd5852478998ce63dceb3.woff2") format("woff2"); }
@font-face { font-weight: 700; font-style: normal; font-family: Circular-Loom; src: url("https://cdn.loom.com/assets/fonts/circular/CircularXXWeb-Bold-83b8ceaf77f49c7cffa44107561909e4.woff2") format("woff2"); }
@font-face { font-weight: 900; font-style: normal; font-family: Circular-Loom; src: url("https://cdn.loom.com/assets/fonts/circular/CircularXXWeb-Black-bf067ecb8aa777ceb6df7d72226febca.woff2") format("woff2"); }
</style></defs><path d="M354.5088 883.1488L467.456 389.2224h-3.9424a35.584 35.584 0 0 0-13.568 3.9424c-1.9968 9.8816-7.8336 37.5296-11.7248 49.408-5.8368 25.6512-5.8368 29.6448-7.7312 43.4688l-1.9968 1.9456h-48.64l-1.9456-1.9456 11.6736-47.4112c9.728-43.52 11.6736-59.2896 15.5648-81.0496l1.9456-1.9456c21.4016-3.9424 27.2384-3.9424 52.5824-7.8848l1.9456 1.9456-3.9424 13.824c3.9424-1.9456 7.8336-5.9392 11.7248-7.8848 1.9456-1.9968 3.84-1.9968 7.7312-3.9424l58.368-250.88c11.7248-55.3984 66.2016-98.816 118.7328-98.816H300.032c-54.4768 0-107.008 43.4176-118.6816 98.7648L2.3552 883.0976c-11.6736 55.3472 21.4016 98.816 73.9328 98.816h352.1536c-54.4768 0-87.552-45.4144-73.9328-98.816zM319.488 472.2176c-17.5104 9.8816-42.8032 15.7696-70.0416 15.7696-21.4016 0-58.368-3.9424-70.0416-25.6512a40.1408 40.1408 0 0 1-7.7824-25.7024l3.8912-35.584 1.9456-9.8816 29.184-128.4096 1.9456-7.8848s9.728 1.9456 64.2048 0v1.9456c-5.8368 15.872-33.0752 128.4608-33.0752 128.4608l-5.8368 33.5872v5.888c1.9456 15.872 11.6736 25.7024 29.184 25.7024 11.6736 0 19.456-3.9424 29.184-9.8816 13.6192-11.8272 17.5104-29.6448 23.3472-55.296 0 0 27.2384-124.4672 27.2384-132.4032 3.8912 0 15.5648 1.9968 54.4768 0v1.9968c-5.8368 15.8208-33.0752 134.3488-33.0752 134.3488l-3.8912 11.8272c-3.8912 25.7024-11.6736 53.3504-40.8576 71.168z" fill="#D43634" p-id="5908"></path><path d="M776.7552 883.1488l29.184-130.4064h-35.0208c-5.8368 0-9.728 0-13.6192-1.9456-3.8912-2.048-7.7824-5.9392-7.7824-9.8816 0-3.9936 1.9456-9.8816 3.8912-17.8176l60.3136-201.5232h42.8032l-5.8368 21.76 5.8368-5.9392 11.6736-49.408h-27.2384v-1.9456c1.9456-7.936 3.8912-17.8176 5.8368-25.7024l1.9456-11.8272c3.8912-17.8176 7.7824-39.5264 7.7824-47.4624 0-3.9424 1.9456-13.824-9.728-13.824-3.8912 0-9.728 1.9968-15.5648 3.9424-1.9456 9.8816-7.7824 37.5808-11.6736 49.408-5.8368 25.7024-5.8368 29.6448-7.7824 43.52l-1.9456 1.9456h-48.64l-1.9456-1.9968 11.6736-47.4112c9.728-43.4688 11.6736-59.2896 13.6192-80.9984l1.9456-1.9968c21.4016-3.9424 27.2384-3.9424 52.5312-7.8848l1.9456 1.9968-3.8912 13.824c3.8912-1.9968 7.7824-5.9392 11.6736-7.936a71.68 71.68 0 0 1 31.1296-7.8848c5.8368 0 11.6736 0 17.5104 3.9424l56.4224-250.88C965.4784 43.4176 1019.9552 0 1074.432 0H652.288c-54.4768 0-107.008 43.4688-118.6816 98.816l-56.4224 250.88c9.728-3.9424 17.5104-3.9424 23.3472-3.9424 9.728 0 21.4016 3.9424 27.2384 15.8208 3.8912 11.8272 1.9456 25.6512-3.8912 51.3536l-3.8912 13.824c-5.8368 29.6448-7.7824 35.584-9.728 55.296l-5.8368 5.9392H455.68v-1.9456c1.9456-7.936 3.8912-17.8176 5.8368-25.7024l1.8944-11.8272c3.9424-17.8176 7.8336-39.5264 7.8336-47.4624 0-3.9424 1.8944-11.8272-5.8368-13.824L352.5632 881.152c-11.6736 55.296 21.4016 98.816 73.984 98.816h424.1408c-52.5312 1.9456-85.6064-43.52-73.9328-96.8192z m15.5648-345.7536l-9.728 31.5904h-68.096l-7.7824 5.9392c-3.8912 3.9424-3.8912 1.9968-7.7824 3.9424a48.8448 48.8448 0 0 1-23.3472 5.9392h-21.4016l9.728-29.6448h5.8368c5.8368 0 9.728 0 11.6736-1.9456 1.9456-1.9968 3.8912-3.9424 7.7824-9.8816l11.6736-23.7056h50.5856l-7.7824 17.7664h48.64z m-180.9408-163.9936l-9.728 39.5264c-1.9456 7.8848-3.8912 17.7664-5.8368 25.7024-3.8912 17.7664-5.8368 25.6512-7.7824 29.5936-1.9456 3.9936-1.9456 7.936-3.8912 17.8176h-56.4224c1.9456-9.8816 3.8912-13.824 5.8368-17.8176 1.9456-3.9424 1.9456-7.8848 5.8368-17.7664 3.8912-13.824 5.8368-23.7056 7.7824-33.5872 1.9456-7.8848 5.8368-31.5904 7.7824-39.5264-1.9456-5.888 1.9456-11.8272 9.728-17.7664 11.6736-7.8848 29.184-9.8816 40.8576-3.9424 7.7824 3.9424 9.728 11.8272 5.8368 17.7664z m9.728 45.4656c3.8912-17.8176 11.6736-37.5296 25.2928-51.4048 21.4016-19.712 46.6944-19.712 58.368-19.712 17.5104 0 36.9664 3.9424 46.6944 17.7664 5.8368 7.8848 11.6736 23.7056 5.8368 53.3504-1.9456 9.8816-7.7824 31.5904-21.4016 45.4144-17.5104 17.8176-38.912 23.7056-62.2592 23.7056-7.7824 0-21.4016-1.9456-31.1296-5.888-29.184-11.8784-25.2928-43.52-21.4016-63.232z m105.0624 333.8752H669.696c-3.8912 0-7.7824 0-13.6192-1.9456-3.8912-2.048-7.7824-3.9936-9.728-5.9392-1.9456-3.9424-5.8368-5.9392-3.8912-13.824l15.5648-55.296h-27.2384l9.728-31.6416h27.2384l7.7824-25.7024h-27.2384l9.728-29.6448h122.5728l-9.728 29.696h-48.64l-7.7824 25.6h50.5856l-7.7824 31.6416h-50.5856l-11.6736 41.472c-1.9456 3.9936 11.6736 5.9392 17.5104 5.9392l25.2928-3.9424-11.6736 33.5872z" fill="#034582" p-id="5909"></path><path d="M846.848 553.216l-9.728 33.5872s3.84-1.9968 7.7312-5.9392l5.8368-27.648h-3.8912z m-167.424-94.8736c5.888 0 9.728-3.9424 13.6704-9.8304 5.8368-7.936 9.728-27.648 11.6736-31.6416 5.8368-23.7056 3.8912-37.5296-7.7824-37.5296-15.5648 0-21.4016 19.7632-27.2384 41.472-1.9456 7.936-3.8912 15.8208-3.8912 21.76 3.8912 15.7696 13.6192 15.7696 13.6192 15.7696z m122.624 248.9856c-1.9456 5.888-1.9456 9.8816-1.9456 9.8816 1.9456 1.9456 3.8912 3.9424 5.8368 3.9424h5.8368l17.5104-77.056h-9.728l-17.5104 63.232z m31.1296-106.7008l-3.8912 13.824h9.728l3.8912-13.824h-9.728z" fill="#034582" p-id="5910"></path><path d="M1162.0352 458.3424c5.8368 0 15.5648-3.9424 19.456-9.8304 1.9456-2.048 3.8912-7.936 5.8368-11.8784a71.168 71.168 0 0 0 3.8912-19.7632c1.9456-3.9424 1.9456-7.8848 1.9456-11.8272 1.9456-15.872-3.8912-25.7024-13.6192-25.7024-15.5648 0-21.4016 19.7632-27.2384 41.472a103.1168 103.1168 0 0 0-3.8912 21.76c3.8912 15.7696 13.6192 15.7696 13.6192 15.7696z m-262.656 156.1088l3.84-13.824h-62.2592l-3.8912 13.824h52.5312c7.7824 0 9.728 1.9456 9.728 0z" fill="#107C84" p-id="5911"></path><path d="M1459.712 3.9424h-383.3344c-54.4768 0-107.008 43.52-120.6272 98.816l-56.4224 250.88a20.1728 20.1728 0 0 1 9.728 11.8784c3.8912 11.8272 1.9456 25.6512-3.8912 51.3536l-3.8912 13.824c-5.8368 29.6448-7.7824 35.584-9.728 55.296l-1.9456 2.048h-21.4016l-11.6736 49.3568c3.8912-3.9424 11.6736-7.8848 15.5648-9.8816 9.728-3.9424 31.1296-7.8848 31.1296-7.8848h68.096l-23.3472 79.0016c-3.8912 13.824-7.7824 21.76-11.6736 25.7024a33.28 33.28 0 0 1-11.6736 11.8272 30.72 30.72 0 0 1-15.5648 5.9392h-77.824l-17.5104 77.056 23.3472-1.9456-9.728 35.5328h-19.456l-31.1296 130.4064c-11.6736 55.296 21.4016 98.816 73.9328 98.816h383.3344c54.4768 0 107.008-43.52 120.6272-98.816l178.9952-780.3904c11.6736-55.296-21.4016-98.816-73.9328-98.816zM1185.3824 349.696c7.7824 3.9424 13.6192 7.8848 17.5104 13.824v-5.9392l1.9456-1.9456c23.3472-3.9424 29.184-3.9424 54.4768-7.8848v1.9456c-3.8912 17.7664-9.728 37.5296-13.6192 55.296-9.728 39.5264-11.6736 59.2896-15.5648 79.0528l-1.9456 1.9968H1177.6l-1.9456-1.9968c0-1.9456 1.9456-5.9392 1.9456-7.8848-7.7824 5.9392-15.5648 11.8272-25.2928 11.8272s-17.5104-1.9456-27.2384-5.888c-29.184-11.8784-25.2928-45.4656-21.4016-63.232 3.8912-17.8176 11.6736-37.5296 25.2928-51.4048 21.4016-17.7664 44.7488-21.7088 56.4224-17.7664z m-264.6528 138.2912l36.9664-156.0576 15.5648-71.168s1.9456-5.888 1.9456-7.8848c7.7824 0 23.3472 1.9968 66.2016 0h15.5136c33.1264 0 60.3136 0 75.9296 19.7632a45.8752 45.8752 0 0 1 7.7824 27.648c0 7.936-1.9456 15.872-1.9456 21.76-5.8368 25.7024-19.456 47.4112-37.0176 61.2352-27.2384 21.76-64.2048 21.76-95.3344 21.76h-3.8912l-3.8912 3.9424c0 1.9456-7.7824 31.5904-7.7824 31.5904s-7.7824 41.472-9.728 49.408c-9.728-1.9968-25.2928-1.9968-60.3136-1.9968z m13.6192 179.8144a31.9488 31.9488 0 0 1-7.7824 13.824c-3.8912 3.9424-9.728 7.8848-23.3472 7.8848h-23.3472v21.76c0 5.9392 1.9456 5.9392 1.9456 5.9392s1.9456 1.9456 3.8912 1.9456h7.7824l23.3472-1.9456-11.6736 35.5328h-25.2928c-17.5104 0-31.1296 0-36.9664-3.9424-3.8912-1.9968-5.8368-5.9392-3.8912-11.8784l1.9456-84.9408h40.8576v17.7664h9.728c3.8912 0 5.8368 0 7.7824-1.9456 1.9456-1.9968 1.9456-1.9968 1.9456-3.9424l3.8912-13.824h33.0752l-3.8912 17.7664z m143.9744 84.9408h-44.7488l3.8912-9.8816h-89.4976l9.728-29.6448h9.728l46.6944-160 9.728-31.6416h44.7488l-3.8912 15.8208s11.6736-7.8848 23.3472-11.8784c9.728-1.9456 56.4736-3.9424 72.0384-3.9424h48.64v17.8176c0 3.9424 1.9456 3.9424 7.7824 3.9424h7.7824l-7.7824 31.5904h-25.2928c-23.3472 1.9968-31.1296-7.8848-31.1296-19.7632v-17.7664l-3.8912 15.8208h-15.5648l-46.6944 158.0544h11.6736l-9.728 31.5904h-13.6704l-3.8912 9.8816z m200.448-140.288h-48.64l-7.7824 25.7024h48.64l-7.7824 25.7024h-52.5312l-9.728 11.8272h21.4016l5.8368 33.5872c0 3.9424 0 5.9392 1.9456 7.936 1.9456 1.9456 7.7824 1.9456 11.6736 1.9456h5.8368l-9.728 33.5872h-27.2384c-5.8368 0-7.7824-3.9424-11.6736-5.9392a13.312 13.312 0 0 1-7.7824-11.8272l-5.8368-33.5872-23.3472 33.5872c-7.7824 9.8816-17.5104 17.7664-35.0208 17.7664h-33.0752l9.728-29.6448h13.568c3.9424 0 7.8336-1.9456 9.728-1.9456 1.9968-1.9968 3.9424-1.9968 7.8336-5.9392l35.0208-49.408h-46.6944l7.7824-27.648h52.5312l7.7824-25.7024H1138.688l9.728-29.6448h145.92l-15.5648 29.696z m31.1296-92.8256l-1.9456 1.9456-19.456 33.5872c-5.8368 11.8784-17.5104 19.7632-35.0208 19.7632h-29.184l9.728-29.6448h5.8368c3.8912 0 5.8368 0 7.7824-1.9456 1.9456 0 1.9456-1.9968 3.8912-3.9424l9.728-17.8176c15.5648-23.7056 19.456-33.5872 35.0208-59.2384-1.9456-29.696-3.8912-39.5264-5.8368-57.344a221.0304 221.0304 0 0 1-3.8912-35.5328c-1.9456-23.7056-1.9456-19.7632-5.8368-35.584v-1.9456l1.9456-1.9968c23.3472-1.9456 23.3472-3.9424 48.64-7.8848l1.9456 1.9456 3.8912 65.2288v3.9424c13.6192-29.6448 13.6192-21.7088 29.184-59.2896v-1.9456l1.9456-1.9968c21.4016-1.9456 25.2928-3.9424 50.5856-7.8848l1.9456 1.9456c-1.9456 0-97.28 167.936-110.8992 195.584z" fill="#107C84" p-id="5912"></path><path d="M912.9472 570.9824l5.8368-17.7664h-66.1504l-5.8368 27.648c9.728-5.9392 19.456-9.8816 29.184-9.8816h36.9664z m136.192-209.408a44.4928 44.4928 0 0 0 25.2928-35.584c3.8912-17.7664-1.9456-29.6448-13.6192-35.584l-33.0752-1.9456h-5.8368v5.9392l-15.5648 69.12v3.9424h7.7824c11.6736 0 25.2928 0 35.0208-5.888z m-36.9664 349.696h36.9664l9.728-35.584h-36.9664l-9.728 35.584z m46.6944-158.0544l-11.6736 39.4752s13.6192-5.888 21.4016-7.8848c7.8336-1.9968 19.456-1.9968 19.456-1.9968l7.8336-29.5936h-37.0176z m-31.1296 100.7616s13.6704-7.936 21.4016-9.8816c7.7824-1.9968 19.456-3.9424 19.456-3.9424l9.728-29.696h-36.9664l-13.6192 43.52z" fill="#107C84" p-id="5913"></path></svg>