<?xml version="1.0" standalone="no"?><!DOCTYPE svg PUBLIC "-//W3C//DTD SVG 1.1//EN" "http://www.w3.org/Graphics/SVG/1.1/DTD/svg11.dtd"><svg t="1621572525861" class="icon" viewBox="0 0 1024 1024" version="1.1" xmlns="http://www.w3.org/2000/svg" p-id="820" xmlns:xlink="http://www.w3.org/1999/xlink" width="200" height="200"><defs><style type="text/css"></style></defs><path d="M448.512 55.808C543.232 41.984 642.048 58.368 727.04 102.912 816.128 148.992 889.856 225.28 932.352 316.928 976.896 411.648 987.648 522.24 961.536 624.128 934.912 730.112 869.376 825.344 780.288 887.296 695.808 947.712 589.824 977.92 485.888 971.264 387.072 964.608 289.792 926.208 214.528 860.672 127.488 787.456 70.656 680.448 56.832 567.296 46.08 478.208 61.952 386.048 102.4 306.176 167.424 172.544 301.568 76.288 448.512 55.808M476.672 112.64C361.984 122.88 254.464 185.856 187.904 279.04 139.776 346.112 112.64 429.056 113.664 512 112.128 616.448 156.16 720.384 230.4 794.112 299.008 863.744 393.728 906.24 491.52 911.36 557.568 915.456 624.64 902.656 684.544 874.496 777.728 830.976 852.992 750.592 889.344 654.336 922.624 567.808 924.672 469.504 894.464 381.952 863.232 289.792 796.672 210.944 712.704 162.816 641.536 122.368 557.568 104.448 476.672 112.64Z" p-id="821" fill="#d81e06"></path><path d="M248.32 279.04C332.288 278.528 415.744 279.04 499.712 278.528 499.2 303.104 499.2 327.168 499.712 351.744 440.32 352.256 380.928 351.744 321.024 351.744 321.024 375.296 321.024 398.336 321.024 421.376 380.416 421.376 440.32 421.376 499.712 421.376 499.712 488.448 499.2 555.008 499.712 622.08 440.32 621.568 380.416 621.568 321.024 622.08 321.024 649.728 321.536 677.376 321.024 705.024 380.416 706.048 439.808 705.536 499.2 705.536 499.712 727.552 499.712 749.056 499.712 771.072 415.744 771.584 332.288 771.584 248.32 771.072 248.32 696.832 248.832 623.104 248.32 548.864 309.248 544.256 370.688 549.376 431.616 545.792 428.544 526.848 430.592 507.392 431.616 488.448 370.688 486.912 309.76 487.936 248.832 487.936 248.32 418.304 248.832 348.672 248.32 279.04Z" p-id="822" fill="#d81e06"></path><path d="M529.92 278.528C613.376 279.04 697.344 278.528 780.8 279.04 780.8 348.16 780.288 417.28 780.8 486.4 720.896 489.472 660.48 486.912 600.064 487.424 600.064 507.392 600.576 526.848 600.064 546.816 606.208 546.816 612.864 547.328 619.52 547.84 673.28 547.84 727.552 544.768 781.312 549.376 780.288 623.104 780.8 697.344 780.8 771.072 697.344 771.584 613.376 771.584 529.92 771.072 529.92 749.568 529.92 727.552 529.92 705.536 589.312 705.024 648.704 706.048 708.096 705.024 707.584 677.376 707.584 649.728 708.096 622.08 648.704 621.568 589.312 622.08 529.92 621.568 529.92 555.008 529.92 488.448 529.92 421.376 589.312 421.376 648.704 421.888 708.096 421.376 708.096 398.336 708.096 374.784 708.096 351.744 648.704 351.744 589.312 352.256 529.92 351.744 529.92 327.168 529.92 303.104 529.92 278.528Z" p-id="823" fill="#d81e06" data-spm-anchor-id="a313x.7781069.0.i3" class="selected"></path></svg>