<?xml version="1.0" encoding="UTF-8"?>
<svg width="134px" height="39px" viewBox="0 0 134 39" version="1.1" xmlns="http://www.w3.org/2000/svg" xmlns:xlink="http://www.w3.org/1999/xlink">
    <title>编组 2</title>
    <g id="注册流程" stroke="none" stroke-width="1" fill="none" fill-rule="evenodd">
        <g id="2.1.3-3" transform="translate(-32.000000, -339.000000)">
            <g id="编组-2" transform="translate(32.000000, 339.000000)">
                <rect id="矩形" fill="#F3F3F3" opacity="0.522553943" x="0" y="0" width="134" height="39" rx="4"></rect>
                <g id="编组" transform="translate(17.000000, 9.000000)" fill-rule="nonzero">
                    <path d="M9.65733138,0.732771557 C9.65733138,0.732771557 11.4748886,-0.652624668 14.6556138,0.386422501 C14.6556138,0.386422501 15.6779898,0.732771557 16.9275604,1.88726841 L20.6762722,5.9280074 L18.6315203,8.00610173 L12.8380566,2.0027181 C12.8380566,1.88726841 11.9292779,0.732771557 9.65733138,0.732771557 Z M17.9499363,8.58335016 L15.5643924,10.8923439 C15.5643924,10.8923439 15.2236005,11.4695923 14.8828085,10.8923439 L10.4525127,6.50525583 C10.4525127,6.50525583 10.1117207,5.9280074 9.77092871,6.38980614 L5.34063291,11.0077936 C5.34063291,11.0077936 4.99984092,11.4695923 5.45423024,11.7004917 L9.77092871,16.0875797 C9.77092871,16.0875797 10.1117207,16.6648281 10.4525127,16.2030294 L14.8828085,11.585042 C14.8828085,11.585042 14.9964058,11.2386929 15.6779898,11.2386929 L20.2218829,11.2386929 C20.2218829,11.2386929 20.4490776,15.97213 16.9275604,18.8583722 C16.9275604,18.8583722 12.3836673,23.4763596 6.02221688,20.7055671 C6.02221688,20.7055671 -0.112038843,18.5120231 0.00155848535,10.5459948 C0.00155848535,10.5459948 0.115155814,5.23530929 4.99984092,2.34906715 C4.99984092,2.34906715 8.5213581,-0.306275612 11.247694,1.65636904 L17.9499363,8.58335016 L17.9499363,8.58335016 Z" id="形状" fill="#003B90"></path>
                    <path d="M77.8157283,4.42716149 C78.1565203,4.54261117 78.6109096,4.77351054 78.9517016,4.88896023 C78.8381042,5.1198596 78.8381042,5.35075897 78.7245069,5.58165834 L80.6556615,5.58165834 L80.6556615,6.38980614 C79.6332855,6.38980614 78.6109096,6.04345708 77.9293256,6.62070551 C77.9293256,6.7361552 77.8157283,6.85160488 77.8157283,6.85160488 L77.8157283,6.96705457 L80.5420642,6.96705457 L80.5420642,7.77520236 L78.9517016,7.77520236 L78.9517016,8.46790048 C79.5196882,8.46790048 80.0876748,8.58335016 80.6556615,8.58335016 C80.6556615,8.92969922 80.6556615,9.27604827 80.5420642,9.39149796 C80.0876748,9.27604827 79.0652989,9.16059859 78.8381042,9.62239733 C78.9517016,9.96874639 78.7245069,10.6614445 78.9517016,11.1232432 C79.5196882,10.7768942 79.9740775,10.5459948 80.5420642,10.1996458 L80.5420642,11.2386929 C80.5420642,11.3541426 80.4284668,11.4695923 80.4284668,11.585042 C79.8604802,11.8159414 78.1565203,13.0858879 77.4749363,12.6240891 C77.1341443,12.5086395 77.020547,12.0468407 76.7933523,11.8159414 C77.020547,11.7004917 77.2477416,11.585042 77.4749363,11.585042 L77.4749363,9.50694764 C77.1341443,9.50694764 76.5661577,9.62239733 76.338963,9.39149796 L76.338963,8.69879985 C76.679755,8.69879985 77.1341443,8.58335016 77.4749363,8.58335016 L77.4749363,7.89065205 C76.9069497,7.77520236 76.679755,7.89065205 76.2253657,7.89065205 C75.998171,7.65975268 75.7709764,7.31340362 75.5437817,7.08250425 C75.7709764,6.7361552 76.2253657,6.62070551 76.4525603,6.38980614 C77.1341443,5.9280074 77.4749363,5.35075897 77.8157283,4.42716149 Z M90.9930184,4.54261117 C91.3338103,4.65806086 91.7881996,5.00440992 91.901797,5.35075897 C91.4474077,6.27435645 90.1978371,8.12155142 89.0618638,8.12155142 C88.9482664,7.89065205 88.7210718,7.54430299 88.6074745,7.31340362 L88.8346691,7.08250425 C89.7434477,6.27435645 90.538629,5.69710803 90.9930184,4.54261117 Z M39.5334287,4.77351054 C41.4645833,4.77351054 43.5093352,4.88896023 45.4404898,4.88896023 C46.2356711,5.00440992 47.598839,4.65806086 47.939631,5.23530929 C48.5076176,5.9280074 48.0532283,9.96874639 48.1668256,11.3541426 C48.280423,11.931391 48.280423,12.7395388 47.939631,12.9704382 C44.6453085,12.9704382 41.3509859,12.8549885 38.1702608,12.8549885 C38.1702608,12.3931898 37.9430661,9.27604827 38.0566634,6.96705457 C38.0566634,6.38980614 37.9430661,5.81255771 38.0566634,5.46620866 C38.1702608,5.1198596 38.5110527,4.88896023 38.6246501,4.77351054 L39.5334287,4.77351054 L39.5334287,4.77351054 Z M30.2184478,4.77351054 L31.1272264,4.77351054 C31.1272264,5.1198596 31.2408237,5.35075897 31.2408237,5.69710803 C32.717589,5.9280074 33.8535623,5.58165834 35.2167302,5.9280074 C35.4439249,6.7361552 35.5575222,11.931391 35.2167302,11.8159414 L31.3544211,11.8159414 L31.3544211,12.7395388 L29.6504611,12.7395388 C29.5368638,12.6240891 29.6504611,12.7395388 29.6504611,12.6240891 L29.6504611,11.8159414 L25.5609573,11.8159414 C25.5609573,10.3150954 25.44736,6.27435645 25.6745547,6.04345708 C26.9241253,5.35075897 28.4008905,5.9280074 29.5368638,5.69710803 C29.6504611,5.46620866 29.6504611,5.1198596 29.7640585,4.77351054 L30.2184478,4.77351054 L30.2184478,4.77351054 Z M61.2305184,7.42885331 L60.5489344,7.42885331 L60.5489344,8.81424953 C59.7537531,8.81424953 58.3905852,8.58335016 57.8225985,8.92969922 L57.8225985,9.27604827 C58.7313771,9.27604827 59.8673504,9.0451489 60.6625317,9.39149796 L60.6625317,10.1996458 L58.0497932,10.1996458 C58.0497932,10.3150954 57.9361959,10.3150954 57.9361959,10.4305451 L58.0497932,10.4305451 C58.8449745,10.7768942 60.0945451,10.1996458 60.6625317,10.6614445 C60.7761291,10.8923439 60.6625317,11.2386929 60.6625317,11.4695923 L57.9361959,11.4695923 L57.9361959,11.8159414 L61.2305184,11.8159414 L61.2305184,12.5086395 L61.0033237,12.7395388 C59.0721691,12.2777401 56.3458333,12.8549885 54.528276,12.7395388 C53.6194974,12.7395388 53.0515107,12.2777401 52.3699268,12.1622904 C51.9155375,12.5086395 51.4611481,12.7395388 50.6659668,12.7395388 L50.6659668,11.585042 C51.0067588,11.4695923 51.2339535,11.4695923 51.4611481,11.2386929 C51.1203562,10.7768942 50.8931615,10.0841961 50.8931615,9.39149796 L51.6883428,9.39149796 C51.8019401,9.73784702 51.9155375,10.3150954 52.2563294,10.4305451 C52.4835241,9.8532967 52.5971214,9.0451489 52.3699268,8.58335016 L50.7795642,8.58335016 L50.7795642,8.46790048 L50.7795642,7.65975268 C51.5747455,7.42885331 52.3699268,6.85160488 52.3699268,5.9280074 L52.0291348,5.9280074 C51.6883428,6.04345708 51.0067588,6.04345708 50.5523695,5.81255771 C50.5523695,5.58165834 50.6659668,5.23530929 50.6659668,5.00440992 L53.846692,5.00440992 C53.846692,6.27435645 53.3923027,6.7361552 53.0515107,7.42885331 L53.6194974,7.42885331 L53.6194974,9.8532967 C53.5059001,10.1996458 53.0515107,11.0077936 53.1651081,11.2386929 C53.2787054,11.8159414 55.6642493,11.931391 56.3458333,11.7004917 L56.3458333,11.3541426 L53.9602894,11.3541426 L53.9602894,10.5459948 C54.7554707,10.5459948 55.550652,10.4305451 56.3458333,10.4305451 L56.3458333,10.1996458 L54.187484,10.1996458 L54.187484,9.96874639 C54.3010814,9.62239733 54.0738867,9.16059859 54.528276,9.27604827 C54.9826653,9.16059859 55.8914439,9.27604827 56.3458333,9.16059859 L56.3458333,8.92969922 L56.2322359,8.81424953 C55.550652,8.92969922 55.20986,8.81424953 54.3010814,8.81424953 L54.3010814,8.00610173 L54.4146787,8.00610173 C55.0962626,8.00610173 55.6642493,7.89065205 56.3458333,7.89065205 L56.3458333,7.54430299 L54.0738867,7.54430299 L54.0738867,6.62070551 C54.7554707,6.62070551 56.0050413,6.85160488 56.3458333,6.38980614 C56.2322359,6.27435645 56.3458333,6.27435645 56.2322359,6.27435645 C55.6642493,6.04345708 54.7554707,6.38980614 54.3010814,6.15890677 L54.3010814,5.35075897 C54.9826653,5.35075897 55.7778466,5.46620866 56.3458333,5.23530929 L56.3458333,4.88896023 L57.9361959,4.88896023 C58.0497932,5.23530929 58.0497932,5.23530929 58.3905852,5.35075897 C59.0721691,5.23530929 60.3217397,5.1198596 60.6625317,5.9280074 C60.6625317,6.15890677 60.7761291,6.38980614 60.7761291,6.7361552 C61.116921,6.7361552 61.3441157,6.7361552 61.457713,6.85160488 C61.2305184,6.96705457 61.2305184,7.19795394 61.2305184,7.42885331 L61.2305184,7.42885331 Z M73.9534191,7.19795394 L73.9534191,8.00610173 C73.3854325,8.00610173 72.8174458,8.12155142 72.3630565,8.00610173 C72.1358619,8.00610173 72.0222645,7.77520236 71.7950699,7.77520236 C71.6814726,7.54430299 71.4542779,7.19795394 71.4542779,6.96705457 C71.4542779,6.62070551 71.5678752,6.15890677 71.4542779,5.81255771 L69.409526,5.81255771 C69.2959287,6.50525583 69.409526,7.31340362 68.9551367,7.77520236 C68.38715,7.89065205 67.4783714,8.00610173 66.9103848,7.89065205 C66.9103848,7.65975268 67.0239821,7.42885331 67.0239821,7.08250425 C68.1599554,7.08250425 67.7055661,5.35075897 67.8191634,4.65806086 L72.9310432,4.65806086 L73.2718352,5.00440992 C73.2718352,5.69710803 73.1582378,6.38980614 73.2718352,6.7361552 C73.2718352,6.85160488 73.3854325,6.85160488 73.4990298,6.96705457 C73.6126271,7.19795394 73.7262245,7.19795394 73.9534191,7.19795394 L73.9534191,7.19795394 Z M82.3596214,4.77351054 C83.7227893,4.77351054 84.97236,4.88896023 86.3355279,4.88896023 C87.2443065,5.58165834 86.5627226,7.77520236 86.9035145,8.81424953 L86.7899172,8.92969922 L82.8140107,8.92969922 C82.8140107,9.73784702 82.5868161,11.0077936 82.9276081,11.585042 C83.4955947,11.3541426 83.8363867,11.1232432 84.0635813,11.3541426 C84.1771787,11.4695923 84.0635813,11.8159414 84.1771787,12.1622904 C83.949984,12.6240891 81.5644401,12.8549885 81.1100508,12.7395388 C81.1100508,12.5086395 80.9964535,11.931391 80.9964535,11.8159414 C80.9964535,11.7004917 81.2236481,11.8159414 81.3372455,11.7004917 L81.3372455,11.4695923 L81.3372455,4.77351054 L82.3596214,4.77351054 L82.3596214,4.77351054 Z M93.3785622,5.81255771 L93.3785622,5.00440992 C95.1961195,4.88896023 98.14965,4.77351054 99.7400126,5.00440992 L99.7400126,5.81255771 L93.3785622,5.81255771 Z M66.5695928,5.9280074 L63.3888676,5.9280074 C63.3888676,5.46620866 63.3888676,5.23530929 63.5024649,5.1198596 L66.5695928,5.1198596 L66.5695928,5.9280074 L66.5695928,5.9280074 Z M40.2150127,5.69710803 C40.1014153,5.81255771 39.8742207,5.81255771 39.7606233,6.15890677 C39.647026,6.62070551 39.7606233,7.31340362 39.7606233,8.00610173 L39.7606233,11.931391 L39.8742207,11.931391 C40.1014153,12.0468407 46.1220737,12.0468407 46.4628657,11.931391 L46.4628657,5.9280074 L46.3492684,5.9280074 C44.3045165,5.81255771 42.2597646,5.69710803 40.2150127,5.69710803 L40.2150127,5.69710803 Z M83.1548027,5.69710803 L82.8140107,5.69710803 L82.8140107,6.38980614 L85.3131519,6.38980614 C85.3131519,6.04345708 85.3131519,5.81255771 85.1995546,5.69710803 L83.1548027,5.69710803 Z M90.538629,12.8549885 C90.538629,12.0468407 90.6522264,9.96874639 90.3114344,9.73784702 C90.0842397,9.8532967 89.8570451,9.96874639 89.5162531,10.0841961 C89.2890584,9.62239733 89.0618638,9.39149796 88.9482664,8.92969922 C90.538629,8.58335016 91.220213,6.96705457 92.3561863,6.04345708 C92.6969783,6.27435645 92.9241729,6.50525583 93.2649649,6.85160488 C93.0377703,7.42885331 92.242589,7.89065205 92.1289916,8.46790048 L92.1289916,12.9704382 C91.561005,12.8549885 91.1066157,12.8549885 90.538629,12.8549885 L90.538629,12.8549885 Z M57.8225985,6.50525583 L58.9585718,6.50525583 L58.9585718,6.15890677 L57.9361959,6.15890677 C57.8225985,6.27435645 57.8225985,6.38980614 57.8225985,6.50525583 Z M46.0084764,8.92969922 L44.6453085,8.92969922 L44.6453085,9.0451489 C45.2132951,8.92969922 45.4404898,9.50694764 46.0084764,9.73784702 L46.0084764,10.3150954 L45.0996978,10.3150954 L45.0996978,10.4305451 C45.4404898,10.4305451 45.8948791,10.3150954 46.0084764,10.5459948 L46.0084764,11.1232432 C45.7812817,11.4695923 40.7829993,11.4695923 39.987818,11.2386929 L39.987818,10.4305451 C40.669402,10.3150954 41.4645833,10.5459948 41.9189726,10.3150954 L41.9189726,8.69879985 C41.2373886,8.69879985 40.32861,8.81424953 39.987818,8.58335016 L39.987818,7.77520236 C40.669402,7.77520236 41.4645833,8.00610173 41.9189726,7.65975268 L41.9189726,6.96705457 L39.987818,6.96705457 L39.987818,6.04345708 L45.8948791,6.04345708 L45.8948791,6.27435645 C46.0084764,6.50525583 46.0084764,6.7361552 45.7812817,6.96705457 C45.4404898,7.08250425 44.1909191,6.85160488 43.8501272,7.08250425 L43.8501272,7.77520236 C44.5317111,7.77520236 45.0996978,7.89065205 45.7812817,7.89065205 C46.0084764,8.35245079 46.0084764,8.69879985 46.0084764,8.92969922 L46.0084764,8.92969922 Z M28.1736959,6.62070551 C27.8329039,6.7361552 27.2649172,6.62070551 27.0377226,6.85160488 C27.1513199,7.54430299 26.8105279,10.5459948 27.1513199,11.0077936 C27.4921119,11.1232432 28.8552798,11.2386929 29.4232665,11.0077936 C29.5368638,10.5459948 29.4232665,9.62239733 29.4232665,8.69879985 C29.4232665,7.89065205 29.4232665,7.08250425 29.3096692,6.7361552 C28.9688772,6.7361552 28.6280852,6.7361552 28.1736959,6.62070551 Z M31.4680184,6.62070551 L31.3544211,6.62070551 L31.3544211,8.81424953 C31.3544211,9.50694764 31.3544211,10.0841961 31.4680184,10.8923439 C32.1496024,11.0077936 33.1719783,11.0077936 33.8535623,10.8923439 L33.8535623,6.62070551 L31.4680184,6.62070551 Z M62.7072836,7.77520236 L62.7072836,6.96705457 L65.4336195,6.96705457 L65.4336195,11.0077936 C65.8880088,10.6614445 66.2288008,10.3150954 66.6831901,9.96874639 C66.6831901,10.4305451 66.7967875,10.8923439 66.6831901,11.3541426 C66.3423981,11.931391 64.6384382,13.3167873 63.7296596,12.8549885 C63.6160623,12.6240891 63.3888676,12.3931898 63.2752703,12.1622904 L63.2752703,12.0468407 C63.5024649,12.0468407 63.6160623,11.931391 63.8432569,11.931391 L63.8432569,9.50694764 C63.8432569,8.92969922 63.9568542,8.35245079 63.8432569,8.00610173 C63.6160623,7.77520236 63.1616729,7.77520236 62.7072836,7.77520236 L62.7072836,7.77520236 Z M82.7004134,7.31340362 L82.7004134,7.89065205 L82.8140107,8.00610173 C83.1548027,8.12155142 85.0859573,8.00610173 85.1995546,8.00610173 L85.1995546,7.42885331 L85.0859573,7.42885331 C84.290776,7.42885331 83.4955947,7.42885331 82.7004134,7.31340362 Z M57.8225985,7.42885331 C57.8225985,7.65975268 57.8225985,7.77520236 57.9361959,8.00610173 L58.9585718,8.00610173 L58.9585718,7.54430299 C58.5041825,7.54430299 58.1633905,7.54430299 57.8225985,7.42885331 Z M93.0377703,7.54430299 L99.9672073,7.54430299 L99.9672073,7.65975268 C99.8536099,7.89065205 100.080805,8.23700111 99.9672073,8.35245079 C99.6264153,8.46790048 98.9448313,8.23700111 98.7176367,8.35245079 L98.7176367,10.5459948 C98.7176367,11.0077936 98.831234,11.4695923 98.7176367,11.931391 C98.2632474,13.0858879 95.9913008,12.8549885 94.7417302,12.7395388 L94.7417302,11.931391 C95.5369115,11.931391 96.2184954,12.0468407 96.9000794,11.7004917 C97.0136767,10.5459948 97.0136767,9.27604827 96.9000794,8.23700111 C95.7641061,8.00610173 94.0601462,8.23700111 92.9241729,8.23700111 C93.0377703,8.12155142 93.0377703,7.77520236 93.0377703,7.54430299 L93.0377703,7.54430299 Z M66.7967875,9.16059859 C66.7967875,8.69879985 66.7967875,8.35245079 67.0239821,8.23700111 C69.2959287,8.23700111 71.5678752,8.35245079 73.9534191,8.35245079 L73.9534191,9.39149796 L72.1358619,11.2386929 C72.9310432,11.4695923 73.4990298,11.7004917 74.5214058,11.7004917 L74.5214058,12.8549885 C73.7262245,12.8549885 72.8174458,12.7395388 72.0222645,12.5086395 C71.5678752,12.3931898 71.1134859,11.931391 70.5454993,12.0468407 C69.6367207,12.2777401 67.7055661,13.3167873 66.9103848,12.8549885 L66.9103848,11.931391 L66.9103848,11.8159414 C67.7055661,11.7004917 68.38715,11.585042 69.068734,11.3541426 L69.068734,11.2386929 C68.5007474,10.6614445 67.8191634,10.4305451 67.3647741,9.73784702 L67.4783714,9.62239733 C68.9551367,9.27604827 69.5231233,10.0841961 70.5454993,10.5459948 C71.2270832,10.3150954 71.7950699,9.73784702 72.1358619,9.27604827 L72.1358619,9.16059859 L66.7967875,9.16059859 L66.7967875,9.16059859 Z M44.0773218,8.92969922 C43.9637245,9.27604827 43.9637245,9.62239733 44.0773218,10.0841961 C44.4181138,10.4305451 44.5317111,10.4305451 44.9861004,10.5459948 C44.7589058,10.0841961 44.6453085,9.73784702 44.4181138,9.27604827 L44.6453085,9.0451489 L44.6453085,8.92969922 L44.0773218,8.92969922 Z M86.1083332,9.27604827 L87.1307092,9.27604827 L87.1307092,9.50694764 C86.7899172,10.0841961 86.3355279,10.6614445 85.9947359,11.2386929 C86.4491252,11.3541426 86.9035145,11.585042 87.3579038,11.7004917 L87.3579038,12.8549885 C85.3131519,12.8549885 83.7227893,11.0077936 83.3819974,9.27604827 L84.5179706,9.27604827 C84.631568,9.73784702 84.97236,10.1996458 85.3131519,10.4305451 C85.5403466,10.1996458 85.7675413,9.62239733 86.1083332,9.27604827 L86.1083332,9.27604827 Z M46.6900604,15.625781 C46.3492684,15.625781 46.2356711,15.625781 46.0084764,15.5103313 C45.6676844,14.0094854 42.7141539,14.8176332 43.2821405,17.0111772 C43.5093352,17.819325 44.5317111,18.5120231 45.4404898,18.0502244 C45.7812817,17.819325 45.8948791,17.2420766 46.2356711,17.1266269 L46.6900604,17.1266269 C46.0084764,19.2047212 43.0549459,19.0892715 42.6005565,16.8957275 C42.1461672,14.3558344 45.0996978,13.778586 46.576463,15.3948816 C46.6900604,15.3948816 46.6900604,15.5103313 46.6900604,15.625781 Z M68.1599554,14.3558344 L68.38715,14.5867338 L68.38715,14.9330829 L67.8191634,14.9330829 L67.8191634,14.5867338 L67.8191634,14.4712841 C67.8191634,14.4712841 68.0463581,14.3558344 68.1599554,14.3558344 L68.1599554,14.3558344 Z M29.4232665,17.0111772 C29.4232665,18.0502244 27.8329039,19.2047212 26.6969306,18.5120231 C26.6969306,18.2811237 25.5609573,17.819325 25.44736,16.5493785 L25.44736,16.4339288 C25.5609573,14.0094854 29.3096692,13.6631363 29.4232665,15.625781 L28.8552798,15.625781 C28.4008905,14.0094854 26.0153466,14.9330829 26.0153466,16.5493785 C26.0153466,18.3965734 28.6280852,18.7429225 28.8552798,17.0111772 L29.4232665,17.0111772 L29.4232665,17.0111772 Z M30.4456424,14.3558344 L30.4456424,15.7412307 L30.7864344,15.7412307 C31.0136291,15.5103313 31.695213,15.3948816 32.1496024,15.5103313 C32.717589,15.97213 32.4903943,16.4339288 32.4903943,17.1266269 C32.4903943,17.7038753 32.717589,18.3965734 32.4903943,18.6274728 L32.036005,18.6274728 C32.036005,17.819325 31.9224077,17.0111772 31.9224077,16.2030294 C31.2408237,15.8566803 31.0136291,16.0875797 30.5592398,16.3184791 C30.3320451,16.7802778 30.6728371,18.3965734 30.3320451,18.6274728 L29.8776558,18.6274728 L29.8776558,14.5867338 C30.1048505,14.3558344 30.2184478,14.3558344 30.4456424,14.3558344 L30.4456424,14.3558344 Z M33.2855756,14.3558344 L33.6263676,14.3558344 L33.6263676,14.9330829 L33.1719783,14.9330829 L33.1719783,14.4712841 C33.1719783,14.3558344 33.1719783,14.3558344 33.2855756,14.3558344 L33.2855756,14.3558344 Z M78.0429229,14.3558344 C78.8381042,14.3558344 79.7468829,14.3558344 80.3148695,14.8176332 C80.5420642,15.5103313 80.4284668,15.7412307 80.0876748,16.3184791 C80.3148695,16.5493785 80.5420642,16.7802778 80.7692588,17.1266269 C80.7692588,17.4729759 80.6556615,17.7038753 80.5420642,18.0502244 C80.3148695,18.165674 80.2012722,18.3965734 79.8604802,18.3965734 C79.0652989,18.6274728 78.1565203,18.5120231 77.361339,18.2811237 C77.361339,16.8957275 77.2477416,15.1639822 77.361339,14.2403847 C77.4749363,14.3558344 77.8157283,14.3558344 78.0429229,14.3558344 L78.0429229,14.3558344 Z M87.6986958,14.3558344 L88.1530851,14.3558344 L88.1530851,16.5493785 C88.2666825,16.5493785 88.2666825,16.4339288 88.3802798,16.4339288 C88.7210718,16.0875797 89.1754611,15.7412307 89.5162531,15.5103313 L90.0842397,15.5103313 L89.9706424,15.625781 C89.6298504,15.7412307 89.2890584,16.0875797 89.0618638,16.4339288 L89.0618638,16.6648281 C89.4026558,16.8957275 90.3114344,18.0502244 90.1978371,18.3965734 C90.0842397,18.3965734 89.8570451,18.2811237 89.7434477,18.2811237 C89.4026558,17.819325 89.1754611,17.3575262 88.8346691,16.8957275 C88.6074745,17.0111772 88.4938771,17.1266269 88.2666825,17.1266269 C88.2666825,17.5884256 88.1530851,17.9347747 88.1530851,18.3965734 C87.9258905,18.3965734 87.8122932,18.3965734 87.6986958,18.2811237 C87.5850985,17.9347747 87.5850985,14.8176332 87.6986958,14.3558344 Z M56.5730279,15.5103313 L56.5730279,14.7021835 C56.8002226,14.7021835 56.9138199,14.7021835 57.0274172,14.8176332 C57.0274172,15.0485325 57.1410146,15.2794319 57.1410146,15.5103313 C57.3682092,15.5103313 57.4818065,15.5103313 57.5954039,15.625781 L57.5954039,15.8566803 L57.1410146,15.8566803 C57.1410146,16.5493785 56.9138199,17.4729759 57.2546119,17.9347747 C57.3682092,18.0502244 57.4818065,18.0502244 57.7090012,18.0502244 L57.7090012,18.3965734 C57.2546119,18.5120231 56.9138199,18.5120231 56.8002226,18.165674 C56.4594306,17.5884256 56.6866252,16.6648281 56.6866252,15.8566803 C56.5730279,15.8566803 56.4594306,15.7412307 56.2322359,15.7412307 C56.2322359,15.5103313 56.1186386,15.5103313 56.5730279,15.5103313 L56.5730279,15.5103313 Z M66.3423981,14.7021835 L66.9103848,14.7021835 L66.9103848,15.3948816 L67.3647741,15.3948816 L67.3647741,15.7412307 C67.1375794,15.7412307 67.0239821,15.8566803 66.7967875,15.8566803 C66.7967875,16.5493785 66.6831901,17.4729759 66.9103848,17.9347747 L67.3647741,17.9347747 L67.3647741,18.2811237 L67.2511768,18.3965734 C66.7967875,18.3965734 66.5695928,18.3965734 66.4559955,18.165674 C66.1152035,17.5884256 66.3423981,16.3184791 66.3423981,15.7412307 L65.8880088,15.7412307 L65.8880088,15.3948816 L66.3423981,15.3948816 L66.3423981,14.7021835 L66.3423981,14.7021835 Z M77.8157283,14.8176332 C77.702131,15.1639822 77.702131,15.625781 77.8157283,16.0875797 C78.4973123,16.0875797 79.4060909,16.2030294 79.8604802,15.625781 C79.8604802,14.7021835 78.8381042,14.8176332 77.8157283,14.8176332 Z M70.2047073,15.2794319 C70.8862913,15.3948816 71.2270832,15.625781 71.6814726,15.97213 C71.7950699,17.2420766 71.9086672,18.165674 70.5454993,18.3965734 C70.3183046,18.5120231 69.6367207,18.5120231 69.2959287,18.2811237 C68.6143447,17.819325 68.5007474,16.2030294 69.1823313,15.625781 C69.409526,15.5103313 69.750318,15.3948816 70.2047073,15.2794319 L70.2047073,15.2794319 Z M38.7382474,15.2794319 C39.306234,15.2794319 39.7606233,15.3948816 39.987818,15.7412307 C40.32861,16.2030294 40.1014153,17.3575262 40.1014153,17.819325 C40.2150127,17.819325 40.32861,17.9347747 40.4422073,17.9347747 L40.4422073,18.165674 C39.987818,18.2811237 39.7606233,18.0502244 39.5334287,17.819325 C38.8518447,18.165674 38.3974554,18.2811237 37.6022741,17.9347747 C37.4886768,17.7038753 37.3750795,17.4729759 37.3750795,17.1266269 C37.9430661,16.2030294 38.965442,16.7802778 39.647026,16.0875797 C39.647026,15.97213 39.5334287,15.8566803 39.5334287,15.7412307 C38.965442,15.625781 38.6246501,15.5103313 38.0566634,15.8566803 C37.9430661,16.0875797 38.0566634,16.0875797 37.7158714,16.0875797 L37.6022741,16.0875797 L37.9430661,15.3948816 C38.1702608,15.5103313 38.3974554,15.3948816 38.7382474,15.2794319 L38.7382474,15.2794319 Z M50.3251749,15.5103313 L50.7795642,15.5103313 L50.7795642,15.7412307 C51.1203562,15.625781 52.0291348,15.0485325 52.5971214,15.625781 C53.2787054,16.0875797 53.0515107,17.5884256 52.9379134,18.3965734 L52.3699268,18.3965734 C52.3699268,17.819325 52.4835241,15.7412307 51.8019401,15.97213 L51.1203562,15.97213 C51.0067588,16.2030294 50.7795642,16.3184791 50.7795642,16.5493785 C50.6659668,17.1266269 50.8931615,17.9347747 50.7795642,18.3965734 L50.3251749,18.3965734 C50.3251749,17.9347747 50.3251749,17.1266269 50.2115775,16.8957275 C50.2115775,18.9738218 47.3716443,19.0892715 46.917255,17.2420766 C46.4628657,15.3948816 49.3027989,14.4712841 50.2115775,16.7802778 L50.3251749,16.7802778 L50.3251749,15.5103313 L50.3251749,15.5103313 Z M54.4146787,15.3948816 C55.0962626,15.3948816 56.0050413,15.3948816 56.0050413,16.2030294 L55.550652,16.2030294 C55.3234573,15.7412307 54.6418733,15.7412307 54.187484,15.8566803 C54.187484,15.97213 54.0738867,15.97213 54.0738867,16.0875797 C54.0738867,16.2030294 54.187484,16.3184791 54.187484,16.4339288 C54.869068,16.6648281 55.6642493,16.8957275 56.2322359,17.2420766 L56.2322359,17.819325 C55.8914439,18.8583722 53.7330947,18.7429225 53.6194974,17.5884256 L54.0738867,17.5884256 C54.3010814,18.0502244 54.528276,18.0502244 54.869068,18.2811237 C55.3234573,18.165674 55.6642493,18.165674 55.7778466,17.5884256 C55.0962626,17.1266269 54.4146787,17.1266269 53.7330947,16.7802778 C53.7330947,16.4339288 53.6194974,16.3184791 53.7330947,15.97213 C53.846692,15.625781 54.0738867,15.5103313 54.4146787,15.3948816 L54.4146787,15.3948816 Z M73.7262245,15.3948816 C74.1806138,15.3948816 74.4078084,15.5103313 74.7486004,15.7412307 C74.8621978,16.3184791 75.0893924,17.5884256 74.8621978,18.3965734 L74.4078084,18.3965734 C74.4078084,17.5884256 74.5214058,16.3184791 74.0670165,15.97213 C73.8398218,15.7412307 73.4990298,15.8566803 73.1582378,15.97213 C73.0446405,16.0875797 72.9310432,16.3184791 72.7038485,16.4339288 L72.7038485,18.3965734 L72.4766539,18.3965734 C72.2494592,18.5120231 72.2494592,18.2811237 72.1358619,18.0502244 L72.1358619,15.5103313 L72.5902512,15.5103313 C72.5902512,15.625781 72.7038485,15.7412307 72.7038485,15.7412307 L73.7262245,15.3948816 L73.7262245,15.3948816 Z M35.4439249,15.3948816 C36.0119115,15.3948816 36.3527035,15.5103313 36.6934955,15.625781 C37.0342875,16.4339288 36.9206901,17.3575262 36.9206901,18.2811237 L36.4663008,18.2811237 C36.2391062,17.3575262 36.5798982,16.5493785 36.2391062,15.8566803 L36.1255088,15.7412307 C35.7847169,15.7412307 35.5575222,15.8566803 35.2167302,15.8566803 C34.7623409,16.5493785 35.1031329,17.819325 34.7623409,18.2811237 L34.3079516,18.2811237 L34.3079516,15.3948816 L34.6487436,15.3948816 C34.7623409,15.5103313 34.7623409,15.5103313 34.7623409,15.625781 C34.9895356,15.625781 35.2167302,15.5103313 35.4439249,15.3948816 L35.4439249,15.3948816 Z M59.4129611,15.3948816 C59.6401558,15.5103313 59.6401558,15.7412307 59.4129611,15.97213 C59.0721691,15.8566803 58.8449745,16.0875797 58.6177798,16.2030294 C58.6177798,16.4339288 58.5041825,16.5493785 58.5041825,16.7802778 C58.5041825,17.3575262 58.6177798,18.0502244 58.3905852,18.3965734 C58.2769878,18.3965734 58.1633905,18.2811237 58.0497932,18.2811237 L58.0497932,15.5103313 L58.3905852,15.5103313 C58.3905852,15.625781 58.5041825,15.7412307 58.5041825,15.8566803 C58.8449745,15.625781 59.0721691,15.625781 59.4129611,15.3948816 L59.4129611,15.3948816 Z M64.2976462,15.3948816 C65.0928275,15.3948816 65.5472168,15.625781 65.7744115,16.2030294 L65.7744115,16.3184791 L65.3200222,16.3184791 C65.0928275,15.7412307 64.2976462,15.625781 63.7296596,15.97213 C63.2752703,16.8957275 63.3888676,17.4729759 64.1840489,18.0502244 C64.5248409,18.0502244 64.8656329,17.9347747 65.0928275,17.7038753 C65.2064249,17.5884256 65.3200222,17.3575262 65.4336195,17.2420766 C65.5472168,17.1266269 65.6608142,17.2420766 65.8880088,17.2420766 C65.6608142,18.3965734 63.9568542,18.8583722 63.2752703,17.819325 C62.7072836,16.8957275 62.9344783,15.97213 63.3888676,15.5103313 C63.6160623,15.5103313 63.9568542,15.5103313 64.2976462,15.3948816 Z M81.9052321,15.3948816 C82.7004134,15.3948816 83.1548027,15.5103313 83.609192,15.7412307 C83.609192,16.2030294 83.609192,17.3575262 83.7227893,17.7038753 C83.8363867,18.0502244 83.949984,17.7038753 84.0635813,17.9347747 C84.0635813,17.9347747 83.949984,18.0502244 84.0635813,18.165674 L83.949984,18.2811237 C83.609192,18.3965734 83.2684,18.165674 83.1548027,17.9347747 C82.4732187,18.3965734 81.5644401,18.3965734 80.9964535,17.9347747 L80.9964535,17.3575262 C81.5644401,16.4339288 82.4732187,16.8957275 83.2684,16.4339288 L83.2684,16.0875797 C83.1548027,16.0875797 83.0412054,15.97213 83.0412054,15.97213 C82.3596214,15.625781 81.9052321,16.0875797 81.4508428,16.4339288 L81.2236481,16.4339288 L81.2236481,16.3184791 C81.3372455,16.0875797 81.3372455,15.97213 81.5644401,15.8566803 C81.6780374,15.625781 81.7916348,15.5103313 81.9052321,15.3948816 L81.9052321,15.3948816 Z M85.7675413,15.3948816 C86.2219306,15.3948816 86.4491252,15.5103313 86.7899172,15.625781 C87.0171119,16.2030294 87.2443065,17.7038753 86.9035145,18.3965734 L86.4491252,18.3965734 C86.4491252,17.4729759 86.5627226,16.5493785 86.1083332,15.97213 L85.9947359,15.97213 C85.4267493,15.97213 85.1995546,16.0875797 84.8587626,16.3184791 C84.7451653,16.8957275 84.7451653,17.7038753 84.7451653,18.3965734 C84.631568,18.3965734 84.5179706,18.5120231 84.5179706,18.5120231 L84.4043733,18.5120231 C84.1771787,17.819325 84.290776,16.6648281 84.290776,15.625781 C84.5179706,15.625781 84.7451653,15.5103313 84.7451653,15.7412307 C84.97236,15.8566803 85.3131519,15.7412307 85.7675413,15.3948816 L85.7675413,15.3948816 Z M33.058381,15.5103313 C33.2855756,15.5103313 33.5127703,15.5103313 33.6263676,15.625781 L33.6263676,18.5120231 L33.058381,18.5120231 L33.058381,15.5103313 Z M67.8191634,15.5103313 L68.38715,15.5103313 L68.38715,18.3965734 L67.9327607,18.3965734 L67.8191634,18.3965734 L67.8191634,15.5103313 Z M59.8673504,15.5103313 L60.3217397,15.5103313 C60.3217397,16.6648281 60.0945451,18.2811237 61.5713104,17.9347747 C61.798505,17.3575262 62.0256997,16.3184791 61.9121023,15.5103313 L62.480089,15.5103313 C62.5936863,15.97213 62.7072836,17.819325 62.3664917,18.3965734 L62.0256997,18.3965734 L62.0256997,18.0502244 C61.798505,18.165674 61.6849077,18.2811237 61.457713,18.3965734 C61.2305184,18.5120231 60.8897264,18.5120231 60.5489344,18.5120231 C60.4353371,18.3965734 60.2081424,18.2811237 60.0945451,18.165674 C59.7537531,17.7038753 59.6401558,16.3184791 59.8673504,15.5103313 L59.8673504,15.5103313 Z M69.8639153,15.7412307 C69.1823313,16.2030294 68.9551367,17.0111772 69.409526,17.819325 C69.6367207,17.9347747 69.750318,18.0502244 69.9775126,18.0502244 C70.431902,17.9347747 70.7726939,17.9347747 70.8862913,17.4729759 C71.2270832,16.8957275 70.9998886,16.2030294 70.7726939,15.8566803 C70.5454993,15.8566803 70.3183046,15.7412307 69.8639153,15.7412307 L69.8639153,15.7412307 Z M48.3940203,15.8566803 C48.280423,15.8566803 48.1668256,15.97213 48.0532283,15.97213 C47.3716443,16.4339288 47.4852417,17.3575262 47.939631,18.0502244 C48.6212149,18.2811237 48.8484096,18.2811237 49.4163962,17.819325 C49.5299936,17.1266269 49.5299936,16.7802778 49.4163962,16.2030294 C48.9620069,15.97213 48.7348123,15.8566803 48.3940203,15.8566803 Z M77.8157283,16.5493785 L77.8157283,17.819325 C77.8157283,17.9347747 77.9293256,17.9347747 77.9293256,18.0502244 C79.0652989,18.0502244 79.7468829,18.165674 80.0876748,17.3575262 C79.9740775,17.1266269 79.9740775,17.0111772 79.8604802,16.7802778 C79.1788962,16.5493785 78.6109096,16.5493785 77.8157283,16.5493785 L77.8157283,16.5493785 Z M39.4198314,16.8957275 C38.8518447,17.1266269 38.2838581,17.0111772 37.8294688,17.2420766 L37.8294688,17.7038753 C38.5110527,18.0502244 38.965442,17.819325 39.4198314,17.4729759 C39.5334287,17.3575262 39.647026,17.1266269 39.4198314,16.8957275 Z M83.0412054,17.0111772 C82.5868161,17.1266269 82.1324268,17.2420766 81.5644401,17.2420766 C81.4508428,17.5884256 81.4508428,17.819325 81.7916348,18.0502244 C82.3596214,18.3965734 83.1548027,17.819325 83.2684,17.4729759 L83.2684,17.0111772 L83.0412054,17.0111772 Z" id="形状" fill="#231815"></path>
                </g>
            </g>
        </g>
    </g>
</svg>