<?xml version="1.0" encoding="UTF-8"?>
<svg width="22px" height="22px" viewBox="0 0 22 22" version="1.1" xmlns="http://www.w3.org/2000/svg" xmlns:xlink="http://www.w3.org/1999/xlink">
    <title>套餐-加购-通行</title>
    <defs>
        <circle id="path-1" cx="11" cy="11" r="11"></circle>
        <filter id="filter-3">
            <feColorMatrix in="SourceGraphic" type="matrix" values="0 0 0 0 1.000000 0 0 0 0 1.000000 0 0 0 0 1.000000 0 0 0 1.000000 0"></feColorMatrix>
        </filter>
    </defs>
    <g id="注册流程" stroke="none" stroke-width="1" fill="none" fill-rule="evenodd">
        <g id="2.1.3-临时交互" transform="translate(-32.000000, -583.000000)">
            <g id="套餐-加购-通行" transform="translate(32.000000, 583.000000)">
                <mask id="mask-2" fill="white">
                    <use xlink:href="#path-1"></use>
                </mask>
                <use id="蒙版" fill="#2FB565" xlink:href="#path-1"></use>
                <g filter="url(#filter-3)" id="编组">
                    <g mask="url(#mask-2)">
                        <g transform="translate(4.950000, 4.950000)" fill="#FFFAFA" fill-rule="nonzero" id="形状">
                            <path d="M10.6585875,3.17398125 C10.5434562,2.9797359 10.3791128,2.81930542 10.18215,2.7088875 L10.18215,0 L8.920725,0 L8.920725,2.7088875 C8.7241,2.8193 8.55848125,2.9811375 8.4442875,3.17398125 L4.45809375,3.17398125 L4.45809375,0 L3.17398125,0 L3.17398125,3.17398125 L0,3.17398125 L0,4.45809375 L3.17398125,4.45809375 L3.17398125,8.46016875 C2.98584261,8.57055938 2.82910938,8.72729261 2.71871875,8.91543125 L0,8.91543125 L0,10.1798812 L2.707375,10.1798812 C2.8177875,10.3765063 2.979625,10.5413688 3.17398125,10.6548063 L3.17398125,12.1 L4.45809375,12.1 L4.45809375,10.6555625 C4.65245,10.5406125 4.81353125,10.3765063 4.9247,10.1798812 L8.2885,10.1798812 C8.79052665,10.1800819 9.27207128,9.98084492 9.62719955,9.6260003 C9.98232782,9.27115568 10.1819495,8.7897704 10.18215,8.28774375 L10.18215,4.9231875 C10.378775,4.812775 10.5436375,4.65245 10.6585875,4.45885 L12.1,4.45885 L12.1,3.17398125 L10.6585875,3.17398125 Z M3.826625,10.18215 C3.59940185,10.18215 3.38943899,10.0609279 3.27582741,9.86414688 C3.16221583,9.66736586 3.16221583,9.42492164 3.27582741,9.22814062 C3.38943899,9.03135959 3.59940185,8.9101375 3.826625,8.9101375 C4.17788154,8.9101375 4.46263122,9.19488721 4.46263122,9.54614375 C4.46263122,9.89740029 4.17788154,10.18215 3.826625,10.18215 L3.826625,10.18215 Z M4.9126,8.91543125 C4.80218256,8.72731334 4.64545541,8.57058619 4.4573375,8.46016875 L4.4573375,4.45809375 L8.44353125,4.45809375 C8.55848125,4.65169375 8.72334375,4.812775 8.91996875,4.9231875 L8.920725,8.9161875 L4.9126,8.9161875 L4.9126,8.91543125 Z M9.55068125,4.46263125 C9.32372828,4.46263125 9.11401508,4.34155329 9.0005386,4.14500626 C8.88706211,3.94845922 8.88706211,3.70630328 9.0005386,3.50975624 C9.11401508,3.31320921 9.32372828,3.19213125 9.55068125,3.19213125 C9.90152013,3.19213125 10.1859312,3.47654237 10.1859312,3.82738125 C10.1859312,4.17822013 9.90152013,4.46263125 9.55068125,4.46263125 L9.55068125,4.46263125 Z"></path>
                        </g>
                    </g>
                </g>
            </g>
        </g>
    </g>
</svg>