<?xml version="1.0" encoding="UTF-8"?>
<svg width="22px" height="22px" viewBox="0 0 22 22" version="1.1" xmlns="http://www.w3.org/2000/svg" xmlns:xlink="http://www.w3.org/1999/xlink">
    <title>套餐-加购-停车</title>
    <defs>
        <circle id="path-1" cx="11" cy="11" r="11"></circle>
        <filter id="filter-3">
            <feColorMatrix in="SourceGraphic" type="matrix" values="0 0 0 0 1.000000 0 0 0 0 1.000000 0 0 0 0 1.000000 0 0 0 1.000000 0"></feColorMatrix>
        </filter>
    </defs>
    <g id="注册流程" stroke="none" stroke-width="1" fill="none" fill-rule="evenodd">
        <g id="2.1.3-临时交互" transform="translate(-32.000000, -646.000000)">
            <g id="套餐-加购-停车" transform="translate(32.000000, 646.000000)">
                <mask id="mask-2" fill="white">
                    <use xlink:href="#path-1"></use>
                </mask>
                <use id="蒙版" fill="#2FB565" xlink:href="#path-1"></use>
                <g filter="url(#filter-3)" id="编组">
                    <g mask="url(#mask-2)">
                        <g transform="translate(2.750000, 4.950000)" fill="#4D7BFE" fill-rule="nonzero" id="形状">
                            <path d="M13.3217936,6.65289259 L11.7151493,6.65289259 C11.5597332,6.65289259 11.396587,6.6503637 11.265175,6.64867777 C11.1166753,6.64867777 10.964514,6.64446294 10.8152007,6.64446296 L9.65690332,6.64446296 C9.47789003,6.64446296 9.34159582,6.64783482 9.21506597,6.655 L9.18658659,6.655 C8.74998508,6.64349673 8.395489,6.28579863 8.37288981,5.83395341 C8.36437101,5.47210692 8.3631502,5.11011555 8.36922817,4.74821624 C8.36922817,4.57161535 8.37288981,4.38911372 8.37288981,4.20534765 C8.37288981,3.87996368 8.37492405,3.55162934 8.3769583,3.23593947 L8.3769583,3.22329501 C8.37899254,2.90634068 8.38143363,2.57884931 8.38143363,2.25388682 L8.38143363,1.77086865 C8.38143363,1.45054246 8.37777199,1.11925775 8.38143363,0.79640268 C8.41143372,0.364498123 8.74720385,0.0233369766 9.16461677,0.0006449969 L13.9991962,0.0006449969 C14.0498119,-0.00206399184 14.100516,0.00377243518 14.1493232,0.0179257504 C14.5445831,0.104232923 14.8160764,0.481772964 14.7827862,0.898822764 C14.7909231,2.50593295 14.7909231,4.13538167 14.7827862,5.74249185 C14.7861305,6.02905082 14.6596307,6.3006669 14.4410335,6.47629171 C14.2639301,6.60726956 14.0475514,6.66854032 13.8307609,6.64909925 C13.6785996,6.65162814 13.516674,6.65289259 13.3217936,6.65289259 L13.3217936,6.65289259 Z M11.0914507,1.12133919 C10.7700405,1.12133919 10.4482234,1.12642294 10.1369844,1.13105924 L10.1064708,1.13105924 C10.0849078,1.13105924 10.0617175,1.13358813 10.0434093,1.13527407 L10.0393408,1.13527407 C10.0238806,1.13527407 10.0043519,1.13864593 9.98604367,1.13864591 L9.98197518,1.13864591 L9.98197518,5.52669317 L10.9148785,5.52669317 L10.9148785,4.21546321 L11.0914507,4.21546321 C11.1707862,4.2133558 11.2513421,4.21293433 11.329457,4.21251284 L11.3701419,4.21251284 C11.5859305,4.21703679 11.8017698,4.20661702 12.0162171,4.18132318 C12.4934898,4.12518717 12.9164768,3.83707012 13.1553926,3.40537515 C13.3770426,2.953321 13.3841037,2.42040792 13.1745145,1.96222139 C12.9294013,1.42215833 12.3900514,1.09269533 11.815234,1.1319022 C11.5740401,1.12451141 11.3327499,1.12099864 11.0914507,1.12133919 L11.0914507,1.12133919 Z M11.6386618,3.35943364 L10.9152854,3.35943364 C10.9234224,2.89327474 10.9234224,2.4443966 10.9234224,1.96854363 C11.0283892,1.97402289 11.133763,1.97697326 11.233034,1.97992364 C11.438822,1.98199798 11.6443342,1.99606962 11.8485956,2.02207181 C12.0049622,2.04267955 12.1468206,2.12738829 12.2424092,2.25723208 C12.3379977,2.38707587 12.3793315,2.55120821 12.3571561,2.71288051 C12.3479505,3.02943393 12.1183604,3.29228097 11.815234,3.33330176 L11.6402892,3.35943364 L11.6386618,3.35943364 Z"></path>
                            <path d="M13.8051148,11.04125 C13.9230137,10.4488276 13.7861604,9.83367123 13.4287122,9.34931826 C13.0962463,8.8985129 12.5971783,8.60324034 12.0455559,8.53097661 C11.9599775,8.52171068 11.8739768,8.51699629 11.7879091,8.51685295 C11.3374934,8.51245671 10.8993516,8.66518294 10.5473419,8.94928627 C9.94306773,9.42006715 9.64256735,10.1877245 9.76453954,10.9490308 L4.85651236,10.9490308 C4.91764564,10.5609381 4.8709854,10.1633077 4.72173063,9.80044467 C4.57458387,9.4307732 4.32269827,9.11327684 3.99768979,8.8878068 C3.68180271,8.66173234 3.30710162,8.53460289 2.92025782,8.52225317 L2.84423765,8.52225317 C2.35624705,8.51663084 1.88315022,8.6920607 1.51450088,9.01533517 C0.98920033,9.47017267 0.721208015,10.1587427 0.799089343,10.8534884 L0.746491598,10.8464265 C0.640063345,10.8318875 0.541031649,10.8185946 0.445287317,10.810702 C0.142439359,10.7749774 -0.0169975635,10.6860814 0.00765763232,10.3088965 C0.00738108911,10.2915321 0.00614641105,10.2741967 0.00395935412,10.2569713 C-0.00236663794,10.2261167 -0.00109665315,10.1941634 0.00765763232,10.1639213 L0.0175197153,10.1360894 C0.0396220087,10.0487095 0.0818649701,9.96785716 0.140795683,9.90014111 C0.202606764,9.85163224 0.237612631,9.77606641 0.234896338,9.6970096 L0.234896338,8.57542461 L0.815937058,8.57542461 C0.895651034,8.57844967 0.973130599,8.54844023 1.03043724,8.49234425 C1.06951627,8.45115081 1.08952105,8.39516035 1.08550051,8.33823016 C1.08550051,8.2111172 0.977017657,8.12554442 0.815937058,8.12554441 L0.234896338,8.12554441 L0.234896338,7.96893791 C0.243525657,7.62373898 0.288315921,7.5851066 0.596916758,7.47544052 C0.688140974,7.44843939 0.777721512,7.41396105 0.864425611,7.3803135 C0.914557841,7.36078961 0.965922822,7.34085031 1.01810965,7.32257263 C1.0117521,7.31579804 1.00873576,7.30649787 1.00989125,7.29723312 C0.97606957,7.29574737 0.942545962,7.29016889 0.910037713,7.28061704 C0.734164,7.24655409 0.647870827,7.1377188 0.673347861,6.98235852 C0.691302064,6.86275479 0.801506076,6.78031433 0.919899796,6.7979201 C0.945069691,6.79807627 0.970197647,6.8000196 0.995098135,6.80373573 C1.04975048,6.81412077 1.10522467,6.82201341 1.15946609,6.82949064 C1.24041204,6.83895649 1.32079484,6.85282331 1.40026514,6.87103082 C1.47409246,6.89124359 1.55019643,6.90171555 1.62668201,6.90218596 C1.82608542,6.89675729 2.01839335,6.82622337 2.17484914,6.70113146 C2.66425473,6.35593252 3.16516608,6.0364885 3.54691067,5.79929404 C3.84168183,5.60649698 4.17341132,5.47881287 4.52037988,5.42460158 C5.07190446,5.33994397 5.6288191,5.29620993 6.18666005,5.29375 C6.39212,5.29375 6.59511442,5.30039643 6.7931778,5.31368929 C7.50211581,5.33676417 8.19988451,5.49871927 8.84777726,5.79057062 C9.58746516,6.15799288 10.2800501,6.61526641 10.9101842,7.15225787 C10.9627764,7.19198761 11.0229385,7.22027519 11.0868798,7.23533824 C11.2832995,7.28352486 11.485883,7.33046527 11.6814808,7.37574407 L11.6839464,7.37574407 C12.0418576,7.45882444 12.4125073,7.54439722 12.7708295,7.64326286 C13.2671688,7.77540176 13.7390096,7.98808193 14.1679571,8.27301206 C14.2986139,8.33404117 14.3664154,8.48166784 14.3282159,8.62194961 C14.2521957,8.60907216 14.1732991,8.59411769 14.096457,8.58040943 C14.019615,8.56670118 13.9407184,8.55050049 13.8651091,8.53886925 C13.8459741,8.53552295 13.8265887,8.53385514 13.8071694,8.53388443 C13.6984629,8.52608711 13.6009598,8.60116856 13.5795198,8.70918401 C13.5688866,8.76185846 13.5800212,8.81663757 13.6103388,8.86080568 C13.6528229,8.92110145 13.71756,8.96153548 13.7899108,8.97296419 C13.8347011,8.98085683 13.8790804,8.99041107 13.9259253,9.00038071 C14.0279753,9.02466001 14.1316798,9.04118377 14.2361698,9.04981353 C14.3438308,9.05770617 14.3877993,9.10672358 14.3877992,9.21971288 C14.3960176,9.43530644 14.404236,9.65837723 14.4288912,9.88435585 C14.4272629,9.94730489 14.4553296,10.0072887 14.5045005,10.0459472 C14.6714303,10.2854589 14.6846022,10.6014602 14.5381959,10.8543192 C14.5068771,10.8919194 14.4663563,10.9205647 14.4206728,10.9373995 C14.2411009,10.9677239 14.0278334,11.0034484 13.8063476,11.0395884 L13.8051148,11.04125 Z M6.14474622,8.59037908 L6.32349637,8.59037908 C6.35226075,8.59037908 6.38677803,8.59037908 6.41389874,8.58664047 C6.48168313,8.58534481 6.54616113,8.55679063 6.59305982,8.50729871 C6.62882359,8.46595071 6.64633786,8.41163444 6.64154836,8.35692324 C6.64064551,8.29548587 6.61494353,8.23709053 6.57040346,8.19528079 C6.52586339,8.15347105 6.46635512,8.13187958 6.40568035,8.13551406 C6.3530826,8.13302165 6.29473198,8.13177544 6.2269302,8.13177544 L5.86819713,8.13177544 C5.74917022,8.12790003 5.6469519,8.21662594 5.6327314,8.33615315 C5.63168962,8.46326475 5.72664141,8.57023762 5.85176033,8.58290185 L6.14474622,8.59037908 Z M6.45868902,6.00824118 C6.24406462,6.0085447 6.02963034,6.02116553 5.81642122,6.04604275 L5.8201195,6.10502981 C5.85217125,6.5960348 5.88504484,7.10407126 5.92572592,7.62041576 C6.14967726,7.63246241 6.3777378,7.64700147 6.59716901,7.66195595 L6.60127822,7.66195595 C7.15067811,7.69726511 7.71898032,7.73340507 8.27947506,7.73340506 C8.93416424,7.74248605 9.58775213,7.67628897 10.2276463,7.53608919 C9.20007287,6.57531957 7.85820277,6.03120861 6.45868902,6.00782578 L6.45868902,6.00824118 Z M5.3282484,6.08841373 C4.55135775,6.24207609 3.87525653,6.72132408 3.46760313,7.40731461 C3.81688503,7.43390033 4.16616694,7.46339386 4.50476493,7.49039498 L4.51791437,7.49039498 C4.81870772,7.51573449 5.130185,7.54232021 5.43755309,7.56599811 C5.42070537,7.316757 5.40139213,7.06751589 5.38290074,6.82450582 C5.36440935,6.58149574 5.34509611,6.33100842 5.3282484,6.08509052 L5.3282484,6.08841373 Z"></path>
                            <path d="M2.80085994,12.1 C2.41454748,12.0945814 2.04659506,11.9325919 1.77970179,11.6504394 C1.4883437,11.3488441 1.33144491,10.9402237 1.34528872,10.5190727 C1.35566743,10.1333379 1.51828626,9.76780085 1.79694693,9.50382875 C2.08017615,9.22810208 2.4584059,9.07433834 2.85177412,9.07500214 C3.66889472,9.07591853 4.33107609,9.74475315 4.33198123,10.5700837 C4.33697382,10.9762188 4.18273007,11.3678644 3.90290595,11.6595633 C3.6227686,11.9446553 3.24039588,12.1032097 2.84274097,12.0991705 L2.80085994,12.1 Z M2.84191977,10.0093771 C2.69022107,10.0125196 2.54612845,10.0770714 2.44199696,10.1885378 C2.33654941,10.293765 2.2773723,10.4373665 2.27775575,10.5870874 C2.28765126,10.896127 2.53233065,11.1448942 2.83822439,11.156918 L2.85177412,11.156918 C3.15874671,11.142099 3.40162649,10.889158 3.40690312,10.5787929 C3.39550811,10.2692059 3.14965895,10.0208866 2.84315157,10.0093771 L2.84191977,10.0093771 Z"></path>
                            <path d="M11.784154,12.0996208 C11.3901964,12.1019913 11.0124353,11.9419892 10.7386932,11.6568121 C10.4613933,11.3640777 10.3069169,10.9749919 10.3074086,10.570521 C10.3120162,10.179027 10.4689264,9.80495351 10.7444601,9.52859371 C11.0289726,9.23772804 11.4177566,9.0742652 11.8232867,9.07500248 L11.8685982,9.07500248 C12.6702187,9.10461995 13.3025811,9.77145025 13.2946759,10.5788133 C13.3038905,10.9848565 13.1477213,11.3770284 12.862434,11.6642584 C12.5771466,11.9514883 12.1875635,12.108785 11.784154,12.0996208 L11.784154,12.0996208 Z M11.8031024,10.0182539 C11.4981841,10.0254298 11.2523777,10.2719309 11.2441228,10.5788133 C11.2479761,10.892872 11.4973623,11.1479129 11.8092813,11.1567865 L11.8228747,11.1567865 C12.1266003,11.1414797 12.3672577,10.8931034 12.3748517,10.5871056 C12.3633221,10.2811176 12.1217426,10.0345422 11.8179317,10.0186685 L11.8031024,10.0182539 Z"></path>
                        </g>
                    </g>
                </g>
            </g>
        </g>
    </g>
</svg>