<?xml version="1.0" encoding="UTF-8"?>
<svg width="30px" height="22px" viewBox="0 0 30 22" version="1.1" xmlns="http://www.w3.org/2000/svg" xmlns:xlink="http://www.w3.org/1999/xlink">
    <title>etc</title>
    <g id="注册流程" stroke="none" stroke-width="1" fill="none" fill-rule="evenodd">
        <g id="2.1.3-2" transform="translate(-34.000000, -135.000000)">
            <g id="编组-4" transform="translate(34.051786, 135.040476)">
                <path d="M7.54714929,14.97553 C7.45215643,15.6951014 6.78554571,16.2024157 6.05815286,16.1087729 C5.33042786,16.01513 4.81759929,15.3553586 4.91226,14.6357871 C5.00725286,13.9158871 5.67386357,13.4082443 6.40158857,13.5025443 C7.12898143,13.5961871 7.64214214,14.2559586 7.54714929,14.97553" id="Fill-297" fill="#FE8431"></path>
                <path d="M25.0767857,3.72097286 C25.6760147,3.72097286 26.1693496,4.16948405 26.2324643,4.74566769 L26.2392857,4.87097286 L26.2392857,10.7261157 C26.2392857,11.3612432 25.7188167,11.8761157 25.0767857,11.8761157 C24.4775568,11.8761157 23.9842219,11.4276045 23.9211071,10.8514209 L23.9142857,10.7261157 L23.9142857,4.87097286 C23.9142857,4.23584539 24.4347547,3.72097286 25.0767857,3.72097286 Z" id="路径" fill="#219E61" fill-rule="nonzero"></path>
                <path d="M25.49595,2.27417429 C27.8506606,2.27417429 29.7731252,4.10537963 29.887476,6.4067167 L29.8928571,6.62380286 L29.8928571,14.3531171 C29.8928571,16.7553017 27.9242453,18.7027457 25.49595,18.7027457 C24.853919,18.7027457 24.33345,18.1878732 24.33345,17.5527457 C24.33345,16.9599601 24.7868363,16.4719299 25.3692828,16.4094938 L25.49595,16.4027457 C26.585696,16.4027457 27.4790162,15.5703658 27.5616232,14.5132881 L27.5678571,14.3531171 L27.5678571,6.62380286 C27.5678571,5.54577459 26.7264296,4.66205996 25.6578619,4.58034118 L25.49595,4.57417429 L25.0767857,4.57417429 C24.4347547,4.57417429 23.9142857,4.05930175 23.9142857,3.42417429 C23.9142857,2.83138865 24.367672,2.34335842 24.9501185,2.28092233 L25.0767857,2.27417429 L25.49595,2.27417429 Z" id="路径" fill="#219E61" fill-rule="nonzero"></path>
                <path d="M20.7765321,6.42689 C21.4185632,6.42689 21.9390321,6.94176254 21.9390321,7.57689 C21.9390321,8.16967563 21.4856458,8.65770586 20.9031993,8.72014196 L20.7765321,8.72689 L5.31428571,8.72689 C4.67225469,8.72689 4.15178571,8.21201746 4.15178571,7.57689 C4.15178571,6.98410437 4.60517202,6.49607414 5.18761853,6.43363804 L5.31428571,6.42689 L20.7765321,6.42689 Z" id="路径" fill="#219E61" fill-rule="nonzero"></path>
                <path d="M21.3156,0 C24.0348209,0 26.2392857,2.18102698 26.2392857,4.87107143 C26.2392857,5.50619889 25.7188167,6.02107143 25.0767857,6.02107143 C24.4775568,6.02107143 23.9842219,5.57256024 23.9211071,4.9963766 L23.9142857,4.87107143 C23.9142857,3.51037962 22.8456411,2.3964013 21.4935083,2.30593209 L21.3156,2.3 L4.92401786,2.3 C3.54843389,2.3 2.42244064,3.35725058 2.33099604,4.69504883 L2.325,4.87107143 L2.325,16.1059143 C2.325,17.4665496 3.39358991,18.5802779 4.74606291,18.6707264 L4.92401786,18.6766571 L21.3156,18.6766571 C22.6909908,18.6766571 23.8168561,17.6195897 23.9082904,16.2819204 L23.9142857,16.1059143 L23.9142857,10.7262143 C23.9142857,10.0910868 24.4347547,9.57621429 25.0767857,9.57621429 C25.6760147,9.57621429 26.1693496,10.0247255 26.2324643,10.6009091 L26.2392857,10.7262143 L26.2392857,16.1059143 C26.2392857,18.7190699 24.1590205,20.8516283 21.5473786,20.9713556 L21.3156,20.9766571 L4.92401786,20.9766571 C2.28220099,20.9766571 0.126391879,18.9188232 0.00535937186,16.335206 L0,16.1059143 L0,4.87107143 C0,2.25782078 2.08035845,0.125041946 4.6922196,0.00530213503 L4.92401786,0 L21.3156,0 Z" id="路径" fill="#219E61" fill-rule="nonzero"></path>
            </g>
        </g>
    </g>
</svg>