<?xml version="1.0" encoding="UTF-8"?>
<svg width="16px" height="16px" viewBox="0 0 16 16" version="1.1" xmlns="http://www.w3.org/2000/svg" xmlns:xlink="http://www.w3.org/1999/xlink">
    <title>套餐-加油</title>
    <defs>
        <filter id="filter-1">
            <feColorMatrix in="SourceGraphic" type="matrix" values="0 0 0 0 0.980392 0 0 0 0 0.317647 0 0 0 0 0.317647 0 0 0 1.000000 0"></feColorMatrix>
        </filter>
    </defs>
    <g id="注册流程" stroke="none" stroke-width="1" fill="none" fill-rule="evenodd">
        <g id="套餐-加油" transform="translate(-32.000000, -421.000000)" filter="url(#filter-1)">
            <g transform="translate(32.000000, 421.000000)">
                <path d="M15.4968995,1.99677782 L13.729798,0.240613286 C13.5688683,0.0796836218 13.3595035,0 13.1517011,0 C12.9423363,0 12.7329715,0.0796836218 12.5736043,0.240613286 C12.2533074,0.560910193 12.2533074,1.07807252 12.5736043,1.39836945 L13.718861,2.54675106 L12.8720272,3.42952059 C12.5954782,3.71388176 12.5954782,4.17010956 12.8720272,4.45290828 C13.0063957,4.59665129 13.1876369,4.66696036 13.3673156,4.66696036 L13.3751277,4.66696036 L14.3328936,4.66539794 L14.3328936,12.1572208 C14.3328936,12.4353323 14.1079046,12.6681334 13.8313555,12.6681334 L13.821981,12.6681334 C13.5501192,12.6634462 13.3313799,12.441582 13.3313799,12.1681578 L13.3313799,7.499635 C13.3313799,6.30281826 12.3611146,5.3341154 11.1658603,5.33411538 C10.8893112,5.33411538 10.6658846,5.10912633 10.6658846,4.83413972 L10.6658846,1.33431006 C10.6658846,0.598408374 10.0690386,0.00156242028 9.33313698,0.00156242028 L2.33347763,0.00156242028 C1.59757596,0.00156242028 1.00073001,0.598408374 1.00073001,1.33431006 L1.00073001,14.1821223 C1.00073001,14.2664932 0.931983361,14.3368022 0.847612462,14.3368022 C0.624185831,14.3368022 0.417945869,14.424298 0.264828323,14.568041 C0.11014834,14.7086591 0.0117156434,14.9086494 0.00077867017,15.132076 C-0.0195328404,15.6086153 0.360136178,16.0007838 0.833550633,16.0007838 L10.822127,16.0007838 C11.2799172,16.0007838 11.6627111,15.6351765 11.6673984,15.1773863 C11.6720856,14.711784 11.2986663,14.3352398 10.8346264,14.3352398 C10.740881,14.3352398 10.6658846,14.2602435 10.6658846,14.166498 L10.6658846,7.50275984 C10.6658846,7.2262108 10.8893112,7.00278418 11.1658603,7.00278418 C11.3033536,7.00278418 11.4299099,7.05903144 11.5205305,7.14965203 C11.6111511,7.24027263 11.6673984,7.36526653 11.6673984,7.50432226 L11.6673984,12.1697202 C11.6673984,13.366537 12.6376636,14.3368022 13.832918,14.3368022 C15.0297347,14.3368022 16,13.3649745 16,12.1697202 L16,3.19359457 C16,2.72330496 15.8062594,2.29988806 15.4968995,1.99677782 Z M2.75064483,2.74986616 C2.75064483,2.19676809 3.19906052,1.74991484 3.75059617,1.74991484 L8.00038934,1.74991484 C8.55192499,1.74991484 9.00034066,2.19676809 9.00034066,2.74986616 L9.00034066,5.49973233 C9.00034066,6.05126798 8.55192498,6.49968366 8.00038934,6.49968366 L3.75059617,6.49968366 C3.19906052,6.49968366 2.75064483,6.05126798 2.75064483,5.49973233 L2.75064483,2.74986616 Z M15.0000487,3.66388418 L14.3297688,3.6654466 L14.0313458,3.6654466 L14.4407009,3.23890487 L14.868805,2.79361404 C14.9547384,2.91079584 15.0000487,3.04828914 15.0000487,3.19359457 L15.0000487,3.66388418 L15.0000487,3.66388418 Z" id="形状" fill="#000000" fill-rule="nonzero"></path>
            </g>
        </g>
    </g>
</svg>