<?xml version="1.0" encoding="UTF-8"?>
<svg width="26px" height="22px" viewBox="0 0 26 22" version="1.1" xmlns="http://www.w3.org/2000/svg" xmlns:xlink="http://www.w3.org/1999/xlink">
    <title>jiachengxian@1x</title>
    <defs>
        <filter id="filter-1">
            <feColorMatrix in="SourceGraphic" type="matrix" values="0 0 0 0 0.968627 0 0 0 0 0.709804 0 0 0 0 0.000000 0 0 0 1.000000 0"></feColorMatrix>
        </filter>
    </defs>
    <g id="注册流程" stroke="none" stroke-width="1" fill="none" fill-rule="evenodd">
        <g id="2.1.3车主服务" transform="translate(-16.000000, -214.000000)">
            <g id="编组" transform="translate(16.000000, 214.000000)" filter="url(#filter-1)">
                <g transform="translate(0.000000, 0.000000)">
                    <path d="M17.4249796,7.83907271 L12.5864175,13.6374387 L7.76762663,7.82289624 L5.31419526,7.82289624 L5.31419526,8.76292892 C5.61892032,8.72199657 5.92163893,8.85094504 6.10324755,9.09904003 L6.10324755,9.20149101 C7.16190768,10.5621119 11.3282475,15.3000204 12.5037377,16.7612949 C13.6792279,15.2820466 17.827594,10.5441381 18.9042279,9.16734069 C19.0854101,8.91856966 19.3882048,8.78889905 19.6932802,8.82943219 L19.6932802,7.75639297 L17.5741626,7.75639297 C17.57596,7.75639297 17.4753064,7.75639297 17.4249796,7.83907271 L17.4249796,7.83907271 Z M24.5138685,6.39397467 C25.4053717,7.45083742 25.4053717,9.00018382 24.5138685,10.0570466 L18.7532475,16.3389093 L14.4862541,20.9420139 C14.0494894,21.5279616 13.3664828,21.8766544 12.6385417,21.8820466 C11.9097352,21.8740281 11.2264135,21.5263849 10.7908292,20.9420139 L6.62448938,16.4898897 L0.694914216,10.073223 C-0.203778595,9.03792892 -0.203778595,7.49756944 0.694914216,6.46227533 L3.43233252,3.42289624 L5.70063317,0.953288399 C6.1526981,0.373350114 6.84539631,0.0322988936 7.58069853,0.0276348039 L17.6586397,0.0276348039 C18.3653922,0.0579309198 19.0257108,0.3880902 19.4739992,0.935314542 C20.4140319,1.87354984 22.446875,4.12747141 23.6744894,5.45573938 L24.5138685,6.39397467 Z" id="形状" fill="#000000" fill-rule="nonzero"></path>
                </g>
            </g>
        </g>
    </g>
</svg>