<?xml version="1.0" encoding="UTF-8"?>
<svg width="137px" height="67px" viewBox="0 0 137 67" version="1.1" xmlns="http://www.w3.org/2000/svg" xmlns:xlink="http://www.w3.org/1999/xlink">
    <title>编组 3</title>
    <defs>
        <rect id="path-1" x="-1.42108547e-14" y="0" width="137" height="67" rx="6"></rect>
        <linearGradient x1="100%" y1="45.5%" x2="21.704741%" y2="60.3064129%" id="linearGradient-3">
            <stop stop-color="#DE5B67" offset="0%"></stop>
            <stop stop-color="#AF3051" offset="100%"></stop>
        </linearGradient>
        <linearGradient x1="100%" y1="20.0783197%" x2="21.704741%" y2="118.530042%" id="linearGradient-4">
            <stop stop-color="#DE5B67" offset="0%"></stop>
            <stop stop-color="#AF3051" offset="100%"></stop>
        </linearGradient>
    </defs>
    <g id="注册流程" stroke="none" stroke-width="1" fill="none" fill-rule="evenodd">
        <g id="2.1.3-临时交互" transform="translate(-186.000000, -298.000000)">
            <g id="编组-3" transform="translate(186.000000, 298.000000)">
                <mask id="mask-2" fill="white">
                    <use xlink:href="#path-1"></use>
                </mask>
                <use id="蒙版" fill="#F7F4FF" xlink:href="#path-1"></use>
                <g opacity="0.0387137277" mask="url(#mask-2)" fill-rule="nonzero">
                    <g transform="translate(101.000000, 18.000000)">
                        <path d="M45.5234298,2.34038043 L49,12 L9,12 L41.0171036,0.215387323 C42.8417587,-0.456210028 44.8593097,0.495181749 45.5234298,2.34038043 Z" id="合并形状" fill="url(#linearGradient-3)"></path>
                        <path d="M49.576162,8 C51.4670074,8 53,9.51376179 53,11.3810816 L53,21.717725 C49.6213088,22.131548 47.0047765,25.0102845 47.0047765,28.5 C47.0047765,31.9897155 49.6213088,34.868452 53,35.282275 L53,38.5319149 C53,44.3132787 48.254073,49 42.3998723,49 L7.06664538,49 C3.1638449,49 0,45.8755191 0,42.0212766 L0.00065198637,35.2821755 C3.37895059,34.867991 5.99506387,31.9894361 5.99506387,28.5 C5.99506387,25.0105639 3.37895059,22.132009 0.00065198637,21.7178245 L0,11.3810816 C0,9.51376179 1.53283303,8 3.42367839,8 L49.576162,8 Z" id="合并形状" fill="url(#linearGradient-4)"></path>
                        <rect id="合并形状" fill="#FFFFFF" x="16" y="22" width="21" height="4" rx="1.44"></rect>
                        <rect id="合并形状-copy" fill="#FFFFFF" x="16" y="31" width="21" height="4" rx="1.44"></rect>
                    </g>
                </g>
            </g>
        </g>
    </g>
</svg>