<?xml version="1.0" encoding="UTF-8"?>
<svg width="22px" height="24px" viewBox="0 0 22 24" version="1.1" xmlns="http://www.w3.org/2000/svg" xmlns:xlink="http://www.w3.org/1999/xlink">
    <title>shebeiyanbao@1x</title>
    <defs>
        <filter id="filter-1">
            <feColorMatrix in="SourceGraphic" type="matrix" values="0 0 0 0 0.527732 0 0 0 0 0.730071 0 0 0 0 0.916845 0 0 0 1.000000 0"></feColorMatrix>
        </filter>
    </defs>
    <g id="注册流程" stroke="none" stroke-width="1" fill="none" fill-rule="evenodd">
        <g id="2.1.3车主服务" transform="translate(-18.000000, -387.000000)">
            <g id="编组" transform="translate(18.000000, 387.000000)" filter="url(#filter-1)">
                <g transform="translate(-0.000000, 0.000000)">
                    <path d="M10.8169975,23.9836676 L10.5504705,23.9836676 C5.28925671,22.6517511 0.0280429251,17.9235912 0.0280429251,11.330461 L0.0280429251,2.67264462 C0.0280429251,2.3396655 0.22811777,2.07349772 0.561096865,2.00668637 L10.4840184,0.00881165567 L10.8834496,0.00881165567 L20.8063711,2.00668637 C21.1393503,2.07349772 21.3390659,2.3396655 21.3390659,2.67264462 L21.3390659,11.330461 C21.3390659,17.9235912 16.0114,22.6517511 10.8169975,23.9836676 L10.8169975,23.9836676 Z M16.9790868,13.9723827 L16.5530747,13.5463706 L13.0842728,10.1993377 C13.632054,8.67812242 13.2667468,6.97407394 12.1108387,5.7571017 C11.3195194,4.90507745 10.223957,4.47906533 9.12875383,4.47906533 C8.45920359,4.47906533 7.79001254,4.66153931 7.18116723,4.96578238 C6.81621924,5.14825636 6.75551431,5.63533262 7.05975737,5.93957571 L9.12875383,8.00857218 L8.39849866,8.73882735 L6.32950216,6.66983088 C6.20773311,6.54806183 6.08596403,6.4873569 5.90349005,6.48735687 C5.65995192,6.48735687 5.47747794,6.60876673 5.35570886,6.85230486 C4.56438954,8.43458429 4.80792767,10.4428759 6.14666896,11.7816171 C6.99869322,12.6336414 8.03319145,12.9989486 9.12875383,12.9989486 C9.61547088,12.9989486 10.1025471,12.9378845 10.5285593,12.7554105 L13.9973612,16.1024433 L14.4230141,16.5284554 C14.6665522,16.7719936 15.0318594,16.7719936 15.2750384,16.5284554 L15.7010505,16.1024433 L16.5530747,15.2504191 L16.9790868,14.8244069 C17.222625,14.581228 17.222625,14.2159208 16.9790868,13.9723827 L16.9790868,13.9723827 Z" id="形状" fill="#8A8A8A" fill-rule="nonzero"></path>
                </g>
            </g>
        </g>
    </g>
</svg>