<?xml version="1.0" encoding="UTF-8"?>
<svg width="21px" height="16px" viewBox="0 0 21 16" version="1.1" xmlns="http://www.w3.org/2000/svg" xmlns:xlink="http://www.w3.org/1999/xlink">
    <title>套餐-积分</title>
    <defs>
        <filter id="filter-1">
            <feColorMatrix in="SourceGraphic" type="matrix" values="0 0 0 0 1.000000 0 0 0 0 0.764706 0 0 0 0 0.000000 0 0 0 1.000000 0"></feColorMatrix>
        </filter>
    </defs>
    <g id="注册流程" stroke="none" stroke-width="1" fill="none" fill-rule="evenodd">
        <g id="套餐-积分" transform="translate(-195.000000, -421.000000)" filter="url(#filter-1)">
            <g transform="translate(195.000000, 421.000000)">
                <path d="M20.2918157,4.92851201 C20.1154317,4.810752 19.8770957,4.85862401 19.7593357,5.03500802 C19.5586317,5.33606402 19.2826637,5.46611202 19.0456077,5.51910402 C19.0435597,5.07187202 18.8269837,4.60518401 18.4304397,4.20864003 C18.0518157,3.83001604 17.5019277,3.75398404 17.1230477,4.02688004 C16.8396557,4.23142403 16.6164237,4.68505604 16.9195277,5.29177604 C17.1081997,5.66937603 17.4568718,5.97171204 17.8813197,6.14886404 C17.8009357,6.20569604 17.7080077,6.26048003 17.6033037,6.31270404 C17.3731597,6.42790404 17.1376397,6.49676804 16.9095437,6.53670405 C16.3568397,5.40774405 15.3579277,4.44211205 14.0748557,3.76038405 C13.6061197,4.85939201 12.5150477,5.632 11.2468237,5.632 C9.61840772,5.632 8.2856717,4.35763199 8.18455171,2.75404799 C8.0253197,2.769408 7.8686477,2.78656 7.7153037,2.80652798 C6.75351173,2.18367999 4.96867972,1.41696 3.18282371,1.53599999 C3.2652557,2.2784 3.72067971,3.23199999 4.30768772,3.92012798 C3.17027972,4.62284798 2.43709573,5.58207997 2.06794372,6.69260797 C1.63504772,6.88255997 1.16759173,7.00313596 0.645095715,7.03846397 C0.263143725,7.06457597 -0.0253682853,7.39225598 0.00176770466,7.77420797 C0.0724237122,8.758784 0.364007715,10.43584 1.51882372,10.88 C1.73514372,10.9632 2.08023173,11.012352 2.49111173,11.038464 C2.98058372,11.838208 3.69891974,12.541952 4.58570373,13.099776 C4.43722373,13.841408 4.25367173,14.58944 4.02762372,15.345152 C3.92983172,15.671552 4.17712772,16 4.51837572,16 L6.66928772,16 C6.88202372,16 7.07607173,15.869696 7.15005573,15.670272 C7.31927173,15.213056 7.46237573,14.745088 7.58397572,14.268416 C8.22218372,14.395648 8.89187971,14.464 9.58282373,14.464 C10.3864077,14.464 11.1613197,14.372096 11.8909197,14.202368 C11.7959437,14.58176 11.6943117,14.962176 11.5798797,15.344896 C11.4818317,15.671552 11.7291277,16 12.0703757,16 L14.2212877,16 C14.4340237,16 14.6280717,15.869696 14.7020557,15.670272 C15.0852877,14.635264 15.3389837,13.54752 15.4943757,12.420096 C16.6750477,11.388416 17.3908237,10.045696 17.3908237,8.57599999 C17.3908237,8.124928 17.3211917,7.68614398 17.1939597,7.264256 C17.4412557,7.209216 17.6952077,7.12550399 17.9465997,6.999552 C18.3625997,6.79167999 18.6244877,6.55206399 18.7878157,6.32012801 C19.4505997,6.30656001 20.0432397,5.993728 20.3983117,5.46124802 C20.5160717,5.28460799 20.4681997,5.04627199 20.2918157,4.92851201 Z M4.97482373,6.784 C4.62128773,6.784 4.33482374,6.49753601 4.33482374,6.14400001 C4.33482374,5.79046401 4.62128773,5.50400002 4.97482373,5.50400002 C5.32835972,5.50400002 5.61482372,5.79046401 5.61482372,6.14400001 C5.61482372,6.49753601 5.32835972,6.784 4.97482373,6.784 Z M17.6063757,4.94822399 C17.5282957,4.79231998 17.5298317,4.67993599 17.5718157,4.64972798 C17.5884557,4.63769597 17.6137997,4.63052799 17.6447757,4.63052799 C17.7090317,4.63052799 17.7983757,4.66252799 17.8872077,4.75161599 C18.1199117,4.984576 18.2581517,5.246208 18.2755597,5.47711999 C17.9745037,5.37702399 17.7251597,5.18553599 17.6063757,4.94822399 Z M11.2468237,-1.63709046e-15 C9.83293571,-1.63709046e-15 8.68682371,1.146112 8.68682371,2.56000001 C8.68682371,3.97388801 9.83293571,5.12000001 11.2468237,5.12000001 C12.6607117,5.12000001 13.8068237,3.97388801 13.8068237,2.56000001 C13.8068237,1.146112 12.6607117,-1.63709046e-15 11.2468237,-1.63709046e-15 Z M12.0675597,2.03724799 C11.9341837,2.08230399 11.7882637,2.01036798 11.7434637,1.87571198 C11.7012237,1.74950399 11.5458317,1.60230398 11.2468237,1.60230398 C11.0072077,1.60230398 10.8658957,1.76025598 10.8495117,1.91667197 C10.8292877,2.11148798 10.9974797,2.26534397 11.2993037,2.32857596 C11.9884557,2.47270397 12.1899277,2.93887996 12.1533197,3.29395196 C12.1164557,3.65132797 11.8520077,3.93395195 11.5028237,4.02969596 L11.5028237,4.24294396 C11.5028237,4.38451196 11.3883917,4.49894396 11.2468237,4.49894396 C11.1052557,4.49894396 10.9908237,4.38451196 10.9908237,4.24294396 L10.9908237,4.03993595 C10.5814797,3.95699195 10.3449357,3.68511995 10.2645517,3.44447996 C10.2194957,3.31033595 10.2919437,3.16518395 10.4260877,3.12038395 C10.5604877,3.07583996 10.7053837,3.14777594 10.7501837,3.28191995 C10.7924237,3.40812794 10.9475597,3.55532796 11.2468237,3.55532796 C11.4864397,3.55532796 11.6277517,3.39737596 11.6441357,3.24095996 C11.6643597,3.04639997 11.4961677,2.89254395 11.1943437,2.82931196 C10.5051917,2.68518395 10.3037197,2.21875196 10.3403277,1.86367995 C10.3771917,1.50630395 10.6416397,1.22367996 10.9908237,1.12793596 L10.9908237,0.91494396 C10.9908237,0.773375963 11.1052557,0.658943955 11.2468237,0.658943955 C11.3883917,0.658943955 11.5028237,0.773375963 11.5028237,0.91494396 L11.5028237,1.11769596 C11.9121677,1.20063996 12.1484557,1.47225596 12.2290957,1.71315196 C12.2741517,1.84729599 12.2014477,1.99219199 12.0675597,2.03724799 Z" id="形状" fill="#000000" fill-rule="nonzero"></path>
            </g>
        </g>
    </g>
</svg>