<?xml version="1.0" encoding="UTF-8"?>
<svg width="16px" height="14px" viewBox="0 0 16 14" version="1.1" xmlns="http://www.w3.org/2000/svg" xmlns:xlink="http://www.w3.org/1999/xlink">
    <title>套餐发票</title>
    <defs>
        <filter id="filter-1">
            <feColorMatrix in="SourceGraphic" type="matrix" values="0 0 0 0 0.184314 0 0 0 0 0.709804 0 0 0 0 0.396078 0 0 0 1.000000 0"></feColorMatrix>
        </filter>
    </defs>
    <g id="注册流程" stroke="none" stroke-width="1" fill="none" fill-rule="evenodd">
        <g id="套餐发票" transform="translate(-32.000000, -263.000000)" filter="url(#filter-1)">
            <g transform="translate(32.000000, 263.000000)">
                <path d="M3.70502883,3.62552177 C3.35519779,3.62552177 3.06897238,3.91174717 3.06897238,4.26157821 L3.06897238,8.96839595 C3.06897238,9.31822699 3.35519779,9.60445239 3.70502883,9.60445239 C4.05485987,9.60445239 4.34108527,9.31822699 4.34108527,8.96839595 L4.34108527,4.26157821 C4.34108527,3.91029393 4.0563131,3.62552177 3.70502883,3.62552177 L3.70502883,3.62552177 Z" id="路径" fill="#000000" fill-rule="nonzero"></path>
                <path d="M16,9.48360167 L16,9.47406082 C16,9.46133969 15.9968197,9.44861857 15.9968197,9.43589744 C15.9936394,9.41045518 15.9936394,9.38183264 15.9872789,9.35639037 C15.9840986,9.33730868 15.977738,9.31822699 15.9713775,9.29914529 C15.9650169,9.2800636 15.9618366,9.25780162 15.9522958,9.23871994 C15.9427549,9.21963827 15.9332141,9.20055656 15.9236732,9.18465513 C15.9141324,9.16557344 15.9045915,9.14967203 15.8950507,9.13059034 C15.8855098,9.11468893 15.8727887,9.09878751 15.8600676,9.08288611 C15.8473465,9.0669847 15.8346253,9.04790301 15.8187239,9.03518187 C15.8028225,9.01928047 15.7869211,9.00655933 15.7710197,8.9938382 C15.7551183,8.98111706 15.7423971,8.96839595 15.7233154,8.95567481 C15.7010535,8.9397734 15.6756112,8.92705227 15.6533492,8.91433115 C15.6406281,8.90797059 15.6310873,8.90161002 15.6215464,8.89524946 C14.7215265,8.49771418 14.1395349,7.60087459 14.1395349,6.61816736 C14.1395349,5.63546012 14.7215265,4.73862055 15.6215464,4.34108527 C15.6342676,4.33472471 15.6438084,4.32836414 15.6533492,4.32200358 C15.6787915,4.30928244 15.7010535,4.29656133 15.7233154,4.2806599 L15.7710197,4.24249652 C15.7869211,4.22977538 15.8028225,4.21705426 15.8187239,4.20115286 C15.8346253,4.18525145 15.8473465,4.16935003 15.8600676,4.15344862 C15.8727887,4.13754722 15.8855098,4.1216458 15.8950507,4.10574439 C15.9077718,4.08984299 15.9141324,4.07076129 15.9236732,4.05167958 C15.9332141,4.03259789 15.9427549,4.01669648 15.9522958,3.99761479 C15.9618366,3.97853309 15.9650169,3.95627111 15.9713775,3.93718942 C15.977738,3.91810773 15.9840986,3.89902603 15.9872789,3.87994434 C15.9936394,3.85450209 15.9936394,3.82587955 15.9968197,3.8004373 C15.9968197,3.78771616 16,3.77499504 16,3.76227391 L16,1.90816935 C16,0.855495919 15.1445041,0 14.0918306,0 L1.90816935,0 C0.855495919,0 0,0.855495919 0,1.90816935 L0,11.639833 C0,12.6925065 0.855495919,13.5480024 1.90816935,13.5480024 L14.0918306,13.5480024 C15.1445041,13.5480024 16,12.6925065 16,11.639833 L16,9.48360167 C16,9.48678196 16,9.48360167 16,9.48360167 Z M14.0918306,12.2758895 L1.90816935,12.2758895 C1.55833831,12.2758895 1.27211291,11.9896641 1.27211291,11.639833 L1.27211291,1.90816935 C1.27211291,1.55833831 1.55833831,1.27211291 1.90816935,1.27211291 L14.0918306,1.27211291 C14.4416617,1.27211291 14.7278871,1.55833831 14.7278871,1.90816935 L14.7278871,3.37109919 C13.5771126,4.04670754 12.8694681,5.28054925 12.867422,6.61498709 C12.867422,7.95706619 13.5861658,9.18783542 14.7278871,9.85887498 L14.7278871,11.639833 C14.7278871,11.9896641 14.4416617,12.2758895 14.0918306,12.2758895 L14.0918306,12.2758895 Z" id="形状" fill="#000000" fill-rule="nonzero"></path>
            </g>
        </g>
    </g>
</svg>