<?xml version="1.0" encoding="UTF-8"?>
<svg width="148px" height="50px" viewBox="0 0 148 50" version="1.1" xmlns="http://www.w3.org/2000/svg" xmlns:xlink="http://www.w3.org/1999/xlink">
    <title>券底</title>
    <g id="注册流程" stroke="none" stroke-width="1" fill="none" fill-rule="evenodd">
        <g id="2.2.5服务加购记录" transform="translate(-195.000000, -234.000000)" fill="#2FB565">
            <path d="M342,234 C342.552285,234 343,234.447715 343,235 L343,255 C340.790861,255 339,256.790861 339,259 C339,261.209139 340.790861,263 343,263 L343,263 L343,283 C343,283.552285 342.552285,284 342,284 L196,284 C195.447715,284 195,283.552285 195,283 L195,263 C197.209139,263 199,261.209139 199,259 C199,256.790861 197.209139,255 195,255 L195,255 L195,235 C195,234.447715 195.447715,234 196,234 L342,234 Z" id="券底"></path>
        </g>
    </g>
</svg>