<?xml version="1.0" encoding="UTF-8"?>
<svg width="29px" height="21px" viewBox="0 0 29 21" version="1.1" xmlns="http://www.w3.org/2000/svg" xmlns:xlink="http://www.w3.org/1999/xlink">
    <title>套餐-1</title>
    <g id="注册流程" stroke="none" stroke-width="1" fill="none" fill-rule="evenodd">
        <g id="2.1.3-3" transform="translate(-33.000000, -138.000000)">
            <g id="编组-4" transform="translate(33.000000, 138.000000)">
                <path d="M8.93212051,14.4861196 C8.84088651,15.1847296 8.20065351,15.6772656 7.50204351,15.5863506 C6.80311451,15.4954356 6.31057851,14.8548836 6.40149351,14.1562736 C6.49272751,13.4573446 7.13296051,12.9644896 7.83188951,13.0560426 C8.53049951,13.1469576 9.02335451,13.7875096 8.93212051,14.4861196" id="Fill-297" fill="#FE8431"></path>
                <path d="M24.1553889,0.708888889 C24.7309064,0.708888889 25.2047201,1.14433475 25.2653374,1.70373391 L25.2718889,1.82538889 L25.2718889,7.50996889 C25.2718889,8.12659481 24.7720148,8.62646889 24.1553889,8.62646889 C23.5798714,8.62646889 23.1060577,8.19102303 23.0454404,7.63162386 L23.0388889,7.50996889 L23.0388889,1.82538889 C23.0388889,1.20876297 23.538763,0.708888889 24.1553889,0.708888889 Z" id="路径" fill="#219E61" fill-rule="nonzero"></path>
                <path d="M24.1621233,0.708888889 C24.7376409,0.708888889 25.2114546,1.14433475 25.2720719,1.70373391 L25.2786233,1.82538889 L25.2786233,7.50996889 C25.2786233,8.12659481 24.7787493,8.62646889 24.1621233,8.62646889 C23.5866058,8.62646889 23.1127921,8.19102303 23.0521748,7.63162386 L23.0456233,7.50996889 L23.0456233,1.82538889 C23.0456233,1.20876297 23.5454974,0.708888889 24.1621233,0.708888889 Z" id="路径备份" fill="#219E61" fill-rule="nonzero" transform="translate(24.162123, 4.667679) rotate(-270.000000) translate(-24.162123, -4.667679) "></path>
                <path d="M18.5910092,6.18650523 C19.0899627,6.18650523 19.4944444,6.68637931 19.4944444,7.30300523 C19.4944444,7.87852276 19.1420959,8.35233646 18.6894484,8.41295376 L18.5910092,8.41950523 L6.57454634,8.41950523 C6.07559284,8.41950523 5.67111111,7.91963116 5.67111111,7.30300523 C5.67111111,6.72748771 6.02345964,6.25367401 6.47610712,6.1930567 L6.57454634,6.18650523 L18.5910092,6.18650523 Z" id="路径" fill="#219E61" fill-rule="nonzero"></path>
                <path d="M20.472144,0 C22.2135162,0 21.9416415,2.32659309 20.6430125,2.23875928 L20.472144,2.233 L4.729175,2.233 C3.40802274,2.233 2.32658492,3.25945241 2.23875877,4.55828002 L2.233,4.729175 L2.233,15.636742 C2.233,16.9577414 3.25930593,18.0390264 4.55826171,18.12684 L4.729175,18.132598 L20.472144,18.132598 C21.7931107,18.132598 22.8744256,17.1063234 22.9622419,15.807621 L22.968,15.636742 L22.968,10.413755 C22.968,9.79712908 23.4678741,9.297255 24.0845,9.297255 C24.6600175,9.297255 25.1338312,9.73270086 25.1944485,10.2921 L25.201,10.413755 L25.201,15.636742 C25.201,18.1737753 23.2030507,20.2442113 20.6947511,20.3604509 L20.472144,20.365598 L4.729175,20.365598 C2.19189454,20.365598 0.121390566,18.3677096 0.00514730209,15.8593544 L0,15.636742 L0,4.729175 C0,2.19204948 1.99803889,0.121399419 4.50654897,0.00514768153 L4.729175,0 L20.472144,0 Z" id="路径" fill="#219E61" fill-rule="nonzero"></path>
            </g>
        </g>
    </g>
</svg>