<?xml version="1.0" encoding="UTF-8"?>
<svg width="32px" height="26px" viewBox="0 0 32 26" version="1.1" xmlns="http://www.w3.org/2000/svg" xmlns:xlink="http://www.w3.org/1999/xlink">
    <title>查违章</title>
    <defs>
        <linearGradient x1="-5.89599609%" y1="91.207695%" x2="84.7076416%" y2="16.9921875%" id="linearGradient-1">
            <stop stop-color="#14AC69" offset="0%"></stop>
            <stop stop-color="#84D157" offset="100%"></stop>
        </linearGradient>
        <path d="M17.8138028,18.9560684 C17.8138028,17.0707642 18.5645213,15.2626772 19.9008087,13.9295658 C21.2370962,12.5964544 23.0494909,11.8475202 24.9392867,11.8475202 C25.6479947,11.8449283 26.3529073,11.9508134 27.0294286,12.1614811 C26.7697603,11.5509263 26.3361915,11.0298206 25.782469,10.6627622 C26.7138224,10.6235028 27.4369316,9.83846013 27.3975786,8.90932034 C27.3582257,7.98018054 26.5713127,7.25878997 25.6399593,7.29804939 L23.7517061,7.29804939 L22.5166222,2.52939832 C22.3088586,1.74015404 21.6882055,1.12551215 20.8955746,0.924051205 C16.1490575,-0.308017068 11.1654837,-0.308017068 6.41896658,0.924051205 C5.62633571,1.12551215 5.00568257,1.74015404 4.79791903,2.52939832 L3.56283516,7.31582076 L2.26243434,7.31582076 C1.43708485,7.30690025 0.725683478,7.89328519 0.578807388,8.70357953 C0.431931299,9.51387387 0.892431938,10.3116723 1.66864404,10.5916767 C0.629993411,11.1955515 -0.00624721749,12.3068909 4.62606542e-05,13.5061815 L4.62606542e-05,18.008262 C0.00198516808,19.0400284 0.706750866,19.938422 1.71020934,20.1882168 L1.71020934,21.3255845 C1.71020934,21.9799083 2.24190731,22.5103425 2.89778999,22.5103425 L6.21113997,22.5103425 C6.86702265,22.5103425 7.39872062,21.9799083 7.39872062,21.3255845 L7.39872062,20.2593023 L17.9325609,20.2593023 C17.853713,19.8293456 17.8139654,19.3931613 17.8138028,18.9560684 Z M31.7144343,24.0446042 L29.891498,22.2200768 C30.5364477,21.2532892 30.879477,20.1173859 30.8771899,18.9560684 C30.8771899,16.560119 29.4304663,14.4000901 27.2116239,13.4831999 C24.9927816,12.5663098 22.4387835,13.0731241 20.7405551,14.7673162 C19.0423267,16.4615083 18.5343049,19.0094361 19.4533795,21.2230048 C20.3724541,23.4365734 22.537629,24.8798586 24.9392867,24.8798586 C26.103371,24.8821402 27.2419804,24.5399262 28.2110714,23.8965094 L30.0399456,25.715113 C30.5111304,26.1176661 31.2135057,26.0906008 31.6521612,25.6529879 C32.0908167,25.215375 32.1179464,24.5146691 31.7144343,24.0446042 L31.7144343,24.0446042 Z M21.3765448,18.9560684 C21.3765448,16.9930971 22.9716387,15.4017943 24.9392867,15.4017943 C26.9069347,15.4017943 28.5020286,16.9930971 28.5020286,18.9560684 C28.5020286,20.9190398 26.9069347,22.5103425 24.9392867,22.5103425 C22.9716387,22.5103425 21.3765448,20.9190398 21.3765448,18.9560684 L21.3765448,18.9560684 Z" id="path-2"></path>
        <filter x="-3.1%" y="-3.8%" width="106.2%" height="107.7%" filterUnits="objectBoundingBox" id="filter-3">
            <feGaussianBlur stdDeviation="0.5" in="SourceAlpha" result="shadowBlurInner1"></feGaussianBlur>
            <feOffset dx="0" dy="1" in="shadowBlurInner1" result="shadowOffsetInner1"></feOffset>
            <feComposite in="shadowOffsetInner1" in2="SourceAlpha" operator="arithmetic" k2="-1" k3="1" result="shadowInnerInner1"></feComposite>
            <feColorMatrix values="0 0 0 0 1   0 0 0 0 1   0 0 0 0 1  0 0 0 0.5 0" type="matrix" in="shadowInnerInner1"></feColorMatrix>
        </filter>
        <linearGradient x1="-135.139605%" y1="220.304629%" x2="128.357439%" y2="0.238779828%" id="linearGradient-4">
            <stop stop-color="#14AC69" offset="0%"></stop>
            <stop stop-color="#84D157" offset="100%"></stop>
        </linearGradient>
        <path d="M4.55446499,17.4455099 C3.31065411,17.4357054 2.30937293,16.4235838 2.31587483,15.1827076 C2.32244031,13.9418314 3.33432436,12.9402595 4.57816977,12.9434914 C5.82201517,12.946739 6.82868192,13.9535684 6.82868192,15.1944617 C6.82213948,16.4419054 5.80489348,17.4487846 4.55446499,17.4455099 L4.55446499,17.4455099 Z" id="path-5"></path>
        <filter x="-22.2%" y="-22.2%" width="144.3%" height="144.4%" filterUnits="objectBoundingBox" id="filter-6">
            <feGaussianBlur stdDeviation="0.5" in="SourceAlpha" result="shadowBlurInner1"></feGaussianBlur>
            <feOffset dx="0" dy="1" in="shadowBlurInner1" result="shadowOffsetInner1"></feOffset>
            <feComposite in="shadowOffsetInner1" in2="SourceAlpha" operator="arithmetic" k2="-1" k3="1" result="shadowInnerInner1"></feComposite>
            <feColorMatrix values="0 0 0 0 1   0 0 0 0 1   0 0 0 0 1  0 0 0 0.5 0" type="matrix" in="shadowInnerInner1"></feColorMatrix>
        </filter>
        <linearGradient x1="-144.506926%" y1="72.4135256%" x2="73.2603924%" y2="50%" id="linearGradient-7">
            <stop stop-color="#14AC69" offset="0%"></stop>
            <stop stop-color="#84D157" offset="100%"></stop>
        </linearGradient>
        <path d="M7.00088111,3.08031083 C9.17699331,2.53154189 11.4127118,2.25299 13.6572706,2.25097478 C15.9054986,2.24953954 18.1445989,2.53622768 20.319598,3.10400597 L21.2945578,7.82557162 C21.4062433,8.36644572 21.0583172,8.89544981 20.5174431,9.00713532 C20.4509117,9.02087344 20.3831536,9.02779613 20.3152186,9.02779613 L6.99953388,9.02779613 C6.44724913,9.02779613 5.99953388,8.58008088 5.99953388,8.02779613 C5.99953388,7.95980484 6.00646806,7.8919908 6.02022879,7.82540658 L7.00088111,3.08031083 L7.00088111,3.08031083 Z" id="path-8"></path>
        <filter x="-11.2%" y="-29.5%" width="122.5%" height="159.0%" filterUnits="objectBoundingBox" id="filter-9">
            <feGaussianBlur stdDeviation="1.5" in="SourceAlpha" result="shadowBlurInner1"></feGaussianBlur>
            <feOffset dx="0" dy="1" in="shadowBlurInner1" result="shadowOffsetInner1"></feOffset>
            <feComposite in="shadowOffsetInner1" in2="SourceAlpha" operator="arithmetic" k2="-1" k3="1" result="shadowInnerInner1"></feComposite>
            <feColorMatrix values="0 0 0 0 0.896654212   0 0 0 0 0.896654212   0 0 0 0 0.896654212  0 0 0 0.738308566 0" type="matrix" in="shadowInnerInner1"></feColorMatrix>
        </filter>
    </defs>
    <g id="注册流程" stroke="none" stroke-width="1" fill="none" fill-rule="evenodd">
        <g id="2.2.2" transform="translate(-128.000000, -149.000000)" fill-rule="nonzero">
            <g id="查违章" transform="translate(128.000000, 149.000000)">
                <g id="形状">
                    <use fill="url(#linearGradient-1)" xlink:href="#path-2"></use>
                    <use fill="black" fill-opacity="1" filter="url(#filter-3)" xlink:href="#path-2"></use>
                </g>
                <g id="路径">
                    <use fill="url(#linearGradient-4)" xlink:href="#path-5"></use>
                    <use fill="black" fill-opacity="1" filter="url(#filter-6)" xlink:href="#path-5"></use>
                </g>
                <g id="路径">
                    <use fill="url(#linearGradient-7)" xlink:href="#path-8"></use>
                    <use fill="black" fill-opacity="1" filter="url(#filter-9)" xlink:href="#path-8"></use>
                </g>
            </g>
        </g>
    </g>
</svg>