<?xml version="1.0" encoding="UTF-8"?>
<svg width="35px" height="34px" viewBox="0 0 35 34" version="1.1" xmlns="http://www.w3.org/2000/svg" xmlns:xlink="http://www.w3.org/1999/xlink">
    <title>牛头</title>
    <g id="注册流程" stroke="none" stroke-width="1" fill="none" fill-rule="evenodd">
        <g id="2.1.3-临时交互" transform="translate(-32.000000, -129.000000)" fill="#2FB565" fill-rule="nonzero">
            <g id="牛头" transform="translate(32.000000, 129.000000)">
                <path d="M35,7.74009567 C35,4.26714093 31.0505335,1.75579541 28.7194898,0.819943579 L26.6760702,0 L26.6674844,2.20225684 C26.6546057,5.48203115 25.5169876,7.1476757 23.2889734,7.1476757 L11.7153195,7.1476757 C8.13074942,7.1476757 7.83453943,3.36563228 7.83024654,2.20225684 L7.82166074,0 L5.77824114,0.819943579 C2.99644303,1.93609714 0,4.57622961 0,7.74009567 C0,9.4529621 0.58812707,11.0284558 1.56261499,12.2905679 L1.56261499,15.7291794 C1.56261499,18.3607261 3.72623574,20.5114682 6.43505458,20.6402551 L6.43505458,22.6493315 C5.71384766,23.7182632 5.29314363,25.0061327 5.29314363,26.3927389 L5.29314363,26.5386974 C5.29314363,30.2391758 8.30246535,33.2484975 12.0029437,33.2484975 L22.9970563,33.2484975 C26.6975346,33.2484975 29.7068564,30.2391758 29.7068564,26.5386974 L29.7068564,26.3927389 C29.7068564,25.0104256 29.2861523,23.7225561 28.5649454,22.6493315 L28.5649454,20.6402551 C31.2737643,20.5114682 33.437385,18.3607261 33.437385,15.7291794 L33.437385,12.2905679 C34.4118729,11.0284558 35,9.4529621 35,7.74009567 Z M5.0999632,4.601987 C5.88985649,7.99766957 8.35398013,10.1441187 11.7153195,10.1441187 L23.2846805,10.1441187 C26.5816264,10.1441187 28.7838832,8.10069913 29.4492825,4.56764381 C30.8659389,5.49061695 32.0078499,6.70550718 32.0078499,7.74438857 C32.0078499,10.2042193 30.0073593,12.2047099 27.5475285,12.2047099 L7.45676438,12.2047099 C4.99693364,12.2047099 2.99644303,10.2042193 2.99644303,7.74438857 C2.99644303,6.6454066 3.91083037,5.47773826 5.0999632,4.601987 Z M9.42720471,15.1968601 L25.5685024,15.1968601 L25.5685024,20.1937937 C24.7743162,19.8632405 23.9071507,19.6786459 22.9970563,19.6786459 L12.0029437,19.6786459 C11.0928493,19.6786459 10.2213909,19.8632405 9.42720471,20.1937937 L9.42720471,15.1968601 L9.42720471,15.1968601 Z M4.55476512,15.7291794 L4.55476512,14.608733 C5.14289219,14.8577211 5.77824114,15.0251441 6.43076168,15.115295 L6.43076168,17.6352263 C5.37900159,17.519318 4.55476512,16.7165461 4.55476512,15.7291794 Z M26.7147062,26.5386974 C26.7147062,28.5864099 25.0490617,30.2563474 22.9970563,30.2563474 L12.0029437,30.2563474 C9.9552312,30.2563474 8.28529376,28.5907028 8.28529376,26.5386974 L8.28529376,26.3927389 C8.28529376,24.3450264 9.9509383,22.6750889 12.0029437,22.6750889 L22.9970563,22.6750889 C23.9973016,22.6750889 24.9031032,23.0786214 25.5685024,23.7225561 L25.5685024,23.7826567 L25.6371888,23.7826567 C26.302588,24.4523488 26.7104133,25.375322 26.7104133,26.3927389 L26.7104133,26.5386974 L26.7147062,26.5386974 Z M28.5649454,17.6395192 L28.5649454,15.1195879 C29.2217589,15.029437 29.8528149,14.862014 30.4409587,14.6130259 L30.4409587,15.7334723 C30.4452349,16.7165461 29.6209984,17.519318 28.5649454,17.6395192 Z" id="形状"></path>
                <path d="M12.5567276,26.431375 C12.5567276,27.2588198 13.2275042,27.9295965 14.0549491,27.9295965 C14.882394,27.9295965 15.5531706,27.2588198 15.5531706,26.431375 C15.5531706,25.6039301 14.882394,24.9331534 14.0549491,24.9331534 C13.2275042,24.9331534 12.5567276,25.6039301 12.5567276,26.431375 L12.5567276,26.431375 Z" id="路径"></path>
                <path d="M19.4468294,26.431375 C19.4468294,26.966638 19.7323888,27.4612414 20.1959401,27.7288729 C20.6594915,27.9965044 21.2306103,27.9965044 21.6941617,27.7288729 C22.157713,27.4612414 22.4432724,26.966638 22.4432724,26.431375 C22.4432724,25.8961119 22.157713,25.4015085 21.6941617,25.133877 C21.2306103,24.8662455 20.6594915,24.8662455 20.1959401,25.133877 C19.7323888,25.4015085 19.4468294,25.8961119 19.4468294,26.431375 L19.4468294,26.431375 Z" id="路径"></path>
            </g>
        </g>
    </g>
</svg>